<svg xmlns="http://www.w3.org/2000/svg" width="79.552" height="79.551" viewBox="0 0 79.552 79.551">
  <g id="_0_Unemployment_Rate" data-name="0% Unemployment Rate" transform="translate(0 -0.001)">
    <g id="Group_11405" data-name="Group 11405" transform="translate(19.888 0.001)">
      <g id="Group_11404" data-name="Group 11404" transform="translate(0 0)">
        <path id="Path_15936" data-name="Path 15936" d="M163.753,42.428a5.268,5.268,0,0,0-3.978,1.832,5.233,5.233,0,0,0-7.955,0,5.2,5.2,0,0,0-6.629-1.1V39.039c.172-.048.346-.094.517-.146.131-.04.259-.088.388-.13.4-.131.793-.272,1.181-.427.1-.042.208-.086.312-.13q.672-.282,1.321-.611l.07-.036A19.857,19.857,0,0,0,154,33.9a1.37,1.37,0,0,0,.094-.151,19.877,19.877,0,1,0-28.371.06c.024.028.032.066.058.093.09.091.188.174.28.263.066.065.135.126.2.191q.5.471,1.032.907c.106.086.211.174.318.259q.533.418,1.091.8c.093.064.182.13.276.192.46.3.929.585,1.412.847.111.061.228.113.341.171.374.194.753.378,1.14.549.178.078.358.151.54.224.353.143.711.274,1.073.4.174.06.346.121.522.175.192.06.386.114.581.167V59.117l-4.32-4.32a6.014,6.014,0,1,0-8.507,8.5l12.824,12.824v2.1a1.325,1.325,0,0,0,1.326,1.326h30.495a1.325,1.325,0,0,0,1.326-1.326V73.236l1.187-2.372a1.329,1.329,0,0,0,.139-.593V47.726A5.307,5.307,0,0,0,163.753,42.428ZM126.006,30.061A17.2,17.2,0,0,1,139.035,2.674a17.2,17.2,0,0,1,14.733,27.382,14.683,14.683,0,0,0-7.934-8.879,7.955,7.955,0,1,0-11.893,0A14.677,14.677,0,0,0,126.006,30.061Zm19.185-14.15a5.283,5.283,0,0,1-2.658,4.569c-.007,0-.015,0-.023.008a5.484,5.484,0,0,1-1.134.487c-.07.021-.138.048-.211.065-.143.037-.288.064-.432.089A5.325,5.325,0,0,1,140,21.2c-.077,0-.154,0-.232,0a5.126,5.126,0,0,1-.732-.074c-.145-.025-.289-.05-.432-.089-.072-.019-.139-.045-.211-.065a5.556,5.556,0,0,1-1.134-.487c-.007,0-.015,0-.021-.008a5.294,5.294,0,1,1,7.951-4.569Zm-10.607,15.91v4.462a17.3,17.3,0,0,1-1.62-.622c-.15-.066-.294-.139-.442-.209q-.561-.265-1.1-.567c-.17-.1-.338-.192-.5-.294-.343-.209-.678-.435-1.006-.668-.145-.1-.294-.2-.435-.306q-.64-.485-1.234-1.033c-.04-.036-.074-.076-.114-.113a11.986,11.986,0,0,1,8.3-9.406,7.851,7.851,0,0,0,6.914,0,11.983,11.983,0,0,1,8.295,9.379c-.179.168-.354.341-.54.5-.038.033-.078.065-.118.1a17.625,17.625,0,0,1-2,1.468c-.03.02-.061.042-.091.061-.255.158-.52.3-.784.443-.248.134-.5.265-.75.387-.216.1-.434.208-.655.3-.464.2-.935.386-1.416.544l-.089.033v-4.46a5.3,5.3,0,0,0-10.608,0Zm31.821,38.137-1.187,2.372a1.329,1.329,0,0,0-.139.593V76.9H137.236V75.575a1.32,1.32,0,0,0-.388-.937L123.636,61.425a3.362,3.362,0,0,1,4.755-4.755l6.583,6.583a1.326,1.326,0,0,0,2.263-.937V31.821a2.652,2.652,0,1,1,5.3,0V55.687h2.652V47.732a2.652,2.652,0,1,1,5.3,0v7.955h2.652V47.732a2.652,2.652,0,1,1,5.3,0v7.955H161.1V47.732a2.652,2.652,0,0,1,5.3-.005Z" transform="translate(-120 -0.001)" fill="#eee"/>
      </g>
    </g>
    <g id="Group_11407" data-name="Group 11407" transform="translate(0 13.259)">
      <g id="Group_11406" data-name="Group 11406">
        <path id="Path_15937" data-name="Path 15937" d="M13.552,91.656a6.629,6.629,0,1,0-8.541,0A9.284,9.284,0,0,0,0,99.887v3.978a1.325,1.325,0,0,0,1.326,1.326h15.91a1.325,1.325,0,0,0,1.326-1.326V99.887A9.284,9.284,0,0,0,13.552,91.656ZM9.281,82.651A3.978,3.978,0,1,1,5.3,86.628,3.982,3.982,0,0,1,9.281,82.651Zm6.629,19.888H2.652V99.887a6.629,6.629,0,0,1,13.259,0Z" transform="translate(0 -79.999)" fill="#eee"/>
      </g>
    </g>
    <g id="Group_11409" data-name="Group 11409" transform="translate(60.99 11.933)">
      <g id="Group_11408" data-name="Group 11408">
        <path id="Path_15938" data-name="Path 15938" d="M381.552,83.656a6.629,6.629,0,1,0-8.541,0A9.284,9.284,0,0,0,368,91.887v3.978a1.325,1.325,0,0,0,1.326,1.326h15.91a1.325,1.325,0,0,0,1.326-1.326V91.887A9.284,9.284,0,0,0,381.552,83.656Zm-4.271-9.005a3.978,3.978,0,1,1-3.978,3.978A3.982,3.982,0,0,1,377.281,74.651Zm6.629,19.888H370.652V91.887a6.629,6.629,0,1,1,13.259,0Z" transform="translate(-368 -71.999)" fill="#eee"/>
      </g>
    </g>
  </g>
</svg>
