<svg xmlns="http://www.w3.org/2000/svg" width="79.571" height="79.551" viewBox="0 0 79.571 79.551">
  <g id="_3X_More_Salary" data-name="3X More Salary" transform="translate(0.01 0.001)">
    <path id="Path_15939" data-name="Path 15939" d="M42.948,48.789A24.4,24.4,0,1,0,18.563,24.4,24.4,24.4,0,0,0,42.948,48.789Zm0-46.3a21.909,21.909,0,1,1-21.9,21.905A21.909,21.909,0,0,1,42.948,2.487Z" transform="translate(12.208 0)" fill="#eee"/>
    <path id="Path_15940" data-name="Path 15940" d="M38.795,29.38h-4.79a3.48,3.48,0,0,1-3.48-3.48,1.243,1.243,0,1,0-2.486,0,5.966,5.966,0,0,0,5.966,5.966h1.15v4.327a1.243,1.243,0,1,0,2.486,0V31.866H38.8a5.966,5.966,0,0,0,0-11.932h-4.79a3.48,3.48,0,0,1,0-6.961H38.8a3.48,3.48,0,0,1,3.48,3.48,1.243,1.243,0,0,0,2.486,0A5.966,5.966,0,0,0,38.8,10.487h-1.16V6.148a1.243,1.243,0,0,0-2.486,0v4.327h-1.15a5.966,5.966,0,0,0,0,11.932h4.79a3.48,3.48,0,0,1,0,6.961Z" transform="translate(18.436 3.225)" fill="#eee"/>
    <path id="Path_15941" data-name="Path 15941" d="M72.524,35.224c-2.582.844-10.68,3.315-10.681,3.315l-8.484,1.989a5.085,5.085,0,0,0-1.989-2.042c-.539-.331-13.248-8.066-17.5-9.965a8.845,8.845,0,0,0-6.266-.089L11.568,35.025l-1.054-2.564a1.241,1.241,0,0,0-1.622-.676L.76,35.131a1.243,1.243,0,1,0,.946,2.3l6.98-2.874,8.794,21.389L10.5,58.819a1.243,1.243,0,0,0,.472,2.391,1.22,1.22,0,0,0,.472-.094l8.131-3.344a1.241,1.241,0,0,0,.676-1.622l-1.288-3.131,6.667-2.746L42.749,56.8a6.811,6.811,0,0,0,4.592.094l.5-.166a122.344,122.344,0,0,0,18.31-7.643c.968-.5,7.973-4.067,10.509-5.588a4.934,4.934,0,0,0,2.353-6.405c-1.152-2.125-3.578-2.822-6.487-1.869Zm2.854,6.144c-2.461,1.477-9.4,5.008-10.37,5.51a120.082,120.082,0,0,1-17.952,7.494l-.5.166a4.357,4.357,0,0,1-2.918-.06l-17.567-6.7a1.241,1.241,0,0,0-.916.012l-7.126,2.93L12.512,37.322l16.039-6.606a6.4,6.4,0,0,1,4.309.061c4.11,1.835,17.092,9.738,17.271,9.846a2.679,2.679,0,0,1-2.378,4.8L39,41.507a1.243,1.243,0,1,0-1.014,2.269l8.754,3.913a5.143,5.143,0,0,0,7.254-4.768l8.5-1.989c.081-.025,8.2-2.5,10.809-3.349.994-.331,2.789-.673,3.53.693s-.84,2.726-1.453,3.092Z" transform="translate(0 18.34)" fill="#eee"/>
  </g>
</svg>
