<svg xmlns="http://www.w3.org/2000/svg" width="96.343" height="76.381" viewBox="0 0 96.343 76.381">
  <path id="_40_Million" data-name="$40 Million" d="M96.343,83.661a1.3,1.3,0,0,0-.654-1.128l-6.618-3.8,6.621-3.822a1.3,1.3,0,0,0,0-2.257Q78.766,62.938,61.844,53.216a1.3,1.3,0,0,0-1.3,0L.652,87.8a1.3,1.3,0,0,0,0,2.256l6.618,3.8L.651,97.677a1.3,1.3,0,0,0,0,2.256l6.618,3.8L.651,107.556a1.3,1.3,0,0,0,0,2.257L34.5,129.25a1.3,1.3,0,0,0,1.3,0l59.894-34.58a1.3,1.3,0,0,0,0-2.256l-6.618-3.8,6.621-3.822A1.3,1.3,0,0,0,96.343,83.661ZM61.2,55.847q15.615,8.972,31.233,17.938L69.888,86.8c-.717-.406-2.033-1.158-3.744-2.139L78.96,77.263a1.3,1.3,0,0,0,.446-1.829,2.352,2.352,0,0,1-.288-2.189,1.3,1.3,0,0,0-.546-1.648L64.716,63.635a1.3,1.3,0,0,0-1.1-.091,8.9,8.9,0,0,1-6.187-.267,1.3,1.3,0,0,0-1.153.074L42.712,71.182l-1.421-.818-2.626-1.511ZM76.618,75.608,63.532,83.159C58.2,80.1,50.854,75.87,45.32,72.684l11.719-6.768a11.613,11.613,0,0,0,6.884.266L76.4,73.354A4.8,4.8,0,0,0,76.618,75.608Zm-50.188.308L30.2,78.083,17.41,85.474a1.3,1.3,0,0,0-.446,1.828,2.352,2.352,0,0,1,.289,2.188,1.3,1.3,0,0,0,.546,1.648L31.65,99.089a1.3,1.3,0,0,0,1.1.091,8.913,8.913,0,0,1,6.188.265,1.3,1.3,0,0,0,1.152-.074l2.134-1.233q5.711-3.3,11.422-6.593l4.019,2.307L35.145,106.859Q19.527,97.894,3.911,88.921ZM19.752,87.128l13.062-7.546,16.529,9.491,1.695.973q-5.057,2.917-10.112,5.837l-1.6.923a11.623,11.623,0,0,0-6.885-.265l-12.473-7.16a4.812,4.812,0,0,0-.217-2.253ZM9.883,95.353q12.307,7.07,24.616,14.137a1.3,1.3,0,0,0,1.3,0L58.979,96.1,59,102.97l-23.85,13.769L3.911,98.8Zm25.263,31.266L3.911,108.681l5.972-3.447L34.5,119.371a1.3,1.3,0,0,0,1.3,0l23.2-13.4.017,6.864Zm26.474-15.284-.042-17.491a1.3,1.3,0,0,0-.654-1.126S36.236,78.547,29.037,74.411l7.023-4.053S66.432,87.845,68.6,89.027l.036,18.256Zm30.812-17.79L71.238,105.782l-.014-6.866,15.24-8.8ZM71.218,95.913,71.2,89.045l15.259-8.808,5.969,3.428ZM31.359,91.442a1.3,1.3,0,0,1,.476-1.778l5.7-3.293a1.3,1.3,0,0,1,1.3,2.255l-5.7,3.293a1.3,1.3,0,0,1-1.778-.476ZM65.735,71.592a1.3,1.3,0,0,1-.476,1.778l-5.016,2.9a1.3,1.3,0,1,1-1.3-2.254l5.016-2.9a1.3,1.3,0,0,1,1.778.476Z" transform="translate(0 -53.042)" fill="#eee"/>
</svg>
