<svg xmlns="http://www.w3.org/2000/svg" width="62.838" height="68.967" viewBox="0 0 62.838 68.967">
  <g id="Gamified_Learning" data-name="Gamified Learning" transform="translate(-27.205 0)">
    <g id="Group_11488" data-name="Group 11488" transform="translate(27.205 0)">
      <g id="Group_11487" data-name="Group 11487" transform="translate(0 0)">
        <g id="Group_11485" data-name="Group 11485">
          <g id="Group_11475" data-name="Group 11475" transform="translate(11.897)">
            <g id="Group_11472" data-name="Group 11472">
              <path id="Path_16210" data-name="Path 16210" d="M152.34,16.649a1.075,1.075,0,0,1-.394-.075L133.5,9.328a1.078,1.078,0,0,1,0-2.006L151.946.075a1.076,1.076,0,0,1,.788,0l18.445,7.246a1.078,1.078,0,0,1,0,2.006l-18.445,7.246A1.077,1.077,0,0,1,152.34,16.649Zm-15.5-8.324,15.5,6.088,15.5-6.088-15.5-6.088Z" transform="translate(-132.817 0)" fill="#fff"/>
            </g>
            <g id="Group_11473" data-name="Group 11473" transform="translate(5.8 9.525)">
              <path id="Path_16211" data-name="Path 16211" d="M198.034,100.654A41.933,41.933,0,0,1,185.055,98.6a1.078,1.078,0,0,1-.744-1.025V85.641a1.078,1.078,0,1,1,2.155,0V96.782a39.564,39.564,0,0,0,23.136,0V85.641a1.078,1.078,0,1,1,2.155,0V97.573a1.078,1.078,0,0,1-.744,1.025A41.942,41.942,0,0,1,198.034,100.654Z" transform="translate(-184.311 -84.563)" fill="#fff"/>
            </g>
            <g id="Group_11474" data-name="Group 11474" transform="translate(36.891 7.247)">
              <path id="Path_16212" data-name="Path 16212" d="M461.395,76.5a1.077,1.077,0,0,1-1.078-1.078V65.411a1.078,1.078,0,0,1,2.155,0V75.418A1.077,1.077,0,0,1,461.395,76.5Z" transform="translate(-460.317 -64.333)" fill="#fff"/>
            </g>
          </g>
          <g id="Group_11484" data-name="Group 11484" transform="translate(0 25.878)">
            <g id="Group_11476" data-name="Group 11476">
              <path id="Path_16213" data-name="Path 16213" d="M34.6,272.826a7.543,7.543,0,0,1-4.33-1.362c-1.982-1.383-3.013-3.572-3.062-6.5a26.375,26.375,0,0,1,1.19-7.222l4.4-19.379a11.072,11.072,0,0,1,17.154-6.615l.966.677a1.513,1.513,0,0,0,.872.275H65.461a1.514,1.514,0,0,0,.872-.275l.966-.677a11.072,11.072,0,0,1,17.153,6.615l4.4,19.379a26.382,26.382,0,0,1,1.19,7.222c-.049,2.933-1.079,5.122-3.062,6.505a7.594,7.594,0,0,1-10.562-1.881L66.363,255.172H50.884l-6.64,9.518-.126.181-3.287,4.712a7.583,7.583,0,0,1-6.232,3.242Zm8.994-40.933a8.871,8.871,0,0,0-8.7,6.942l-4.4,19.4c0,.017-.008.033-.013.049a24.563,24.563,0,0,0-1.119,6.634c.038,2.234.738,3.8,2.14,4.774a5.437,5.437,0,0,0,7.561-1.347l10.375-14.873a1.077,1.077,0,0,1,.884-.461h16.6a1.077,1.077,0,0,1,.884.461l6.962,9.979.127.182,3.286,4.711a5.437,5.437,0,0,0,7.562,1.346c1.4-.978,2.1-2.54,2.14-4.774a24.557,24.557,0,0,0-1.119-6.634c0-.017-.009-.033-.013-.049l-4.4-19.4a8.917,8.917,0,0,0-13.814-5.327l-.966.677a3.658,3.658,0,0,1-2.109.666H51.788a3.656,3.656,0,0,1-2.109-.666l-.966-.677a8.878,8.878,0,0,0-5.119-1.615Z" transform="translate(-27.205 -229.737)" fill="#fff"/>
            </g>
            <g id="Group_11483" data-name="Group 11483" transform="translate(9.878 5.948)">
              <g id="Group_11477" data-name="Group 11477" transform="translate(0 1.373)">
                <path id="Path_16214" data-name="Path 16214" d="M123.639,308.481H119.9a1.077,1.077,0,0,1-1.078-1.078v-2.849h-2.85a1.077,1.077,0,0,1-1.078-1.078v-3.74a1.077,1.077,0,0,1,1.078-1.078h2.85v-2.85a1.077,1.077,0,0,1,1.078-1.078h3.74a1.077,1.077,0,0,1,1.078,1.078v2.85h2.85a1.077,1.077,0,0,1,1.078,1.078v3.74a1.077,1.077,0,0,1-1.078,1.078h-2.85V307.4A1.078,1.078,0,0,1,123.639,308.481Zm-2.662-2.155h1.585v-2.85a1.077,1.077,0,0,1,1.078-1.078h2.85v-1.585h-2.85a1.077,1.077,0,0,1-1.078-1.078v-2.85h-1.585v2.85a1.077,1.077,0,0,1-1.078,1.078h-2.85V302.4h2.85a1.077,1.077,0,0,1,1.078,1.078Z" transform="translate(-114.894 -294.731)" fill="#fff"/>
              </g>
              <g id="Group_11482" data-name="Group 11482" transform="translate(26.587)">
                <g id="Group_11478" data-name="Group 11478" transform="translate(0 5.266)">
                  <path id="Path_16215" data-name="Path 16215" d="M353.9,335.256a2.982,2.982,0,1,1,2.982-2.982,2.985,2.985,0,0,1-2.982,2.982Zm0-3.809a.827.827,0,1,0,.827.827A.828.828,0,0,0,353.9,331.447Z" transform="translate(-350.923 -329.292)" fill="#fff"/>
                </g>
                <g id="Group_11479" data-name="Group 11479" transform="translate(10.533 5.266)">
                  <path id="Path_16216" data-name="Path 16216" d="M447.409,335.256a2.982,2.982,0,1,1,2.982-2.982A2.985,2.985,0,0,1,447.409,335.256Zm0-3.809a.827.827,0,1,0,.827.827A.828.828,0,0,0,447.409,331.447Z" transform="translate(-444.427 -329.292)" fill="#fff"/>
                </g>
                <g id="Group_11480" data-name="Group 11480" transform="translate(5.266)">
                  <path id="Path_16217" data-name="Path 16217" d="M400.655,288.505a2.982,2.982,0,1,1,2.982-2.982A2.985,2.985,0,0,1,400.655,288.505Zm0-3.809a.827.827,0,1,0,.827.827A.828.828,0,0,0,400.655,284.7Z" transform="translate(-397.673 -282.541)" fill="#fff"/>
                </g>
                <g id="Group_11481" data-name="Group 11481" transform="translate(5.266 10.533)">
                  <path id="Path_16218" data-name="Path 16218" d="M400.655,382.011a2.982,2.982,0,1,1,2.982-2.982A2.985,2.985,0,0,1,400.655,382.011Zm0-3.809a.827.827,0,1,0,.827.827A.828.828,0,0,0,400.655,378.2Z" transform="translate(-397.673 -376.047)" fill="#fff"/>
                </g>
              </g>
            </g>
          </g>
        </g>
        <g id="Group_11486" data-name="Group 11486" transform="translate(30.342 23.46)">
          <path id="Path_16219" data-name="Path 16219" d="M297.645,215.8a1.077,1.077,0,0,1-1.078-1.078v-5.377a1.078,1.078,0,0,1,2.155,0v5.377A1.077,1.077,0,0,1,297.645,215.8Z" transform="translate(-296.567 -208.271)" fill="#fff"/>
        </g>
      </g>
    </g>
  </g>
</svg>
