<svg xmlns="http://www.w3.org/2000/svg" width="70.449" height="71.397" viewBox="0 0 70.449 71.397">
  <g id="Hacker_Community" data-name="Hacker Community" transform="translate(-3.402)">
    <path id="Path_16206" data-name="Path 16206" d="M201.345,174.847l2.291.5a1.056,1.056,0,0,0,.45-2.063l-2.291-.5a1.056,1.056,0,0,0-.45,2.063Z" transform="translate(-169.625 -148.669)" fill="#fff"/>
    <path id="Path_16207" data-name="Path 16207" d="M285.632,175.372a1.065,1.065,0,0,0,.226-.024l2.291-.5a1.056,1.056,0,1,0-.45-2.063l-2.291.5a1.056,1.056,0,0,0,.224,2.087Z" transform="translate(-241.965 -148.67)" fill="#fff"/>
    <path id="Path_16208" data-name="Path 16208" d="M70.251,62.22h-.864l-2.16-11.468a18.563,18.563,0,0,0-4.7-9.575A11.753,11.753,0,0,0,56.1,37.614c.521-1.086,1.122-2.15,1.715-3.2C59.4,31.6,60.9,28.946,60.86,26.07A28.3,28.3,0,0,0,53.442,7.5C49.174,2.805,43.756,0,38.951,0,34.2,0,28.834,2.753,24.59,7.363a1.056,1.056,0,0,0,1.554,1.43c3.851-4.184,8.64-6.682,12.808-6.682,8.365,0,18.536,9.681,19.691,22.061a14.493,14.493,0,0,0-7.124-7.585,27.706,27.706,0,0,0-12.567-3.244,27.734,27.734,0,0,0-12.571,3.244A14.132,14.132,0,0,0,19.238,24.4a26.123,26.123,0,0,1,4.183-12.1,1.056,1.056,0,0,0-1.769-1.153,28.124,28.124,0,0,0-4.609,14.926c-.045,2.825,1.131,5.466,2.377,8.261.476,1.067.957,2.148,1.373,3.254-5.376.815-10.029,6.1-11.36,13.167L7.276,62.22H7a3.606,3.606,0,0,0-3.6,3.6V67.8A3.6,3.6,0,0,0,7,71.4H70.251a3.6,3.6,0,0,0,3.6-3.6V65.824A3.606,3.606,0,0,0,70.251,62.22Zm-5.1-11.078L67.238,62.22H56.977l1.47-16.86a2.545,2.545,0,0,0-.682-1.952,2.794,2.794,0,0,0-2.051-.9H54.6a11.969,11.969,0,0,1,.652-2.872C59.86,40.079,63.955,44.779,65.151,51.142ZM51.523,29.322c.122-.358.228-.717.313-1.076a10.156,10.156,0,0,0,.271-2.326V19.356c3.342,2.218,5.274,5.714,5.756,10.415-.511,1.171-1.188,2.371-1.885,3.6-1.526,2.7-3.236,5.732-3.493,9.128h-6.2v-6a16.281,16.281,0,0,0,5.236-7.163l.006-.018ZM41.248,36.978a8.57,8.57,0,0,1-2.44.55,8.581,8.581,0,0,1-2.443-.55,14.3,14.3,0,0,1-7.411-6.611,24.928,24.928,0,0,0,3,.183,23,23,0,0,0,4.832-.5,5.781,5.781,0,0,0,2.164-1.1,5.763,5.763,0,0,0,2.163,1.1,23.165,23.165,0,0,0,7.643.322,14.787,14.787,0,0,1-7.509,6.606Zm2.921.961V42.5H33.444V37.93a13.743,13.743,0,0,0,2.2,1.035,10.535,10.535,0,0,0,3.108.676h.1a10.528,10.528,0,0,0,3.1-.676A14.23,14.23,0,0,0,44.169,37.94Zm-16.4-19.677a25.361,25.361,0,0,1,11.182-2.807A25.224,25.224,0,0,1,49.994,18.2v2.6H27.769Zm0,4.647H49.994v3.01a8.02,8.02,0,0,1-.214,1.839q-.04.17-.088.341a21.253,21.253,0,0,1-8.136-.114A3,3,0,0,1,40,26.993a1.06,1.06,0,0,0-.03-.108,1.076,1.076,0,0,0-2.069.1,3,3,0,0,1-1.56,1,22.336,22.336,0,0,1-8.294.112c-.03-.11-.059-.221-.085-.332a7.02,7.02,0,0,1-.194-1.594V22.91Zm-7.689,7.562c.377-5.017,2.25-8.713,5.577-11.016v6.718a9.138,9.138,0,0,0,.25,2.077c.084.358.189.715.309,1.07l.008.024a16.3,16.3,0,0,0,5.108,7.121V42.5H24.079c-.2-3.345-1.537-6.351-2.731-9.032-.455-1.021-.9-2.019-1.268-3Zm-8.574,20.67a16.553,16.553,0,0,1,4.2-8.5,9.645,9.645,0,0,1,5.758-3.017,14.819,14.819,0,0,1,.5,2.874H21.9a2.788,2.788,0,0,0-2.046.9,2.546,2.546,0,0,0-.682,1.952L20.555,62.22H9.424ZM71.739,67.8a1.49,1.49,0,0,1-1.488,1.488H7A1.49,1.49,0,0,1,5.514,67.8V65.824A1.492,1.492,0,0,1,7,64.331H36.367a1.056,1.056,0,0,0,0-2.112H22.673l-1.4-17.037a.46.46,0,0,1,.132-.348.681.681,0,0,1,.492-.22H55.714a.7.7,0,0,1,.5.222.456.456,0,0,1,.133.343L54.858,62.22h-13.8a1.056,1.056,0,0,0,0,2.112H70.251a1.492,1.492,0,0,1,1.488,1.493V67.8Z" transform="translate(0)" fill="#fff"/>
    <path id="Path_16209" data-name="Path 16209" d="M228.733,354.136c0-2.586-2.479-4.69-5.526-4.69s-5.526,2.1-5.526,4.69,2.479,4.686,5.526,4.686S228.733,356.72,228.733,354.136Zm-5.526,2.574c-1.851,0-3.414-1.179-3.414-2.574s1.564-2.578,3.414-2.578,3.414,1.181,3.414,2.578S225.058,356.71,223.207,356.71Z" transform="translate(-184.398 -300.716)" fill="#fff"/>
  </g>
</svg>
