<svg xmlns="http://www.w3.org/2000/svg" width="66.111" height="66.345" viewBox="0 0 66.111 66.345">
  <g id="Interactive_Live_Classes" data-name="Interactive Live Classes" transform="translate(-43.419 -42.667)">
    <path id="Path_16197" data-name="Path 16197" d="M73.952,42.667h39.807a9.952,9.952,0,0,1,9.952,9.952v19.9a9.952,9.952,0,0,1-9.952,9.952H73.952A9.952,9.952,0,0,1,64,72.522v-19.9a9.952,9.952,0,0,1,9.952-9.952Zm0,3.317a6.635,6.635,0,0,0-6.635,6.635v19.9a6.634,6.634,0,0,0,6.635,6.635h39.807a6.634,6.634,0,0,0,6.635-6.635v-19.9a6.635,6.635,0,0,0-6.635-6.635Z" transform="translate(-17.381)" fill="#fff" fill-rule="evenodd"/>
    <path id="Path_16198" data-name="Path 16198" d="M228.769,112.643l-10.279-6.853a3.317,3.317,0,0,0-5.157,2.76v13.7a3.317,3.317,0,0,0,5.157,2.76l10.279-6.853A3.317,3.317,0,0,0,228.769,112.643Zm-12.119,9.613v-13.7l10.279,6.853Z" transform="translate(-143.493 -52.833)" fill="#fff" fill-rule="evenodd"/>
    <path id="Path_16199" data-name="Path 16199" d="M219.968,329.952a3.317,3.317,0,1,0-3.317-3.317A3.317,3.317,0,0,0,219.968,329.952Zm0,3.317a6.634,6.634,0,1,0-6.635-6.634A6.634,6.634,0,0,0,219.968,333.269Z" transform="translate(-143.493 -234.209)" fill="#fff" fill-rule="evenodd"/>
    <path id="Path_16200" data-name="Path 16200" d="M369.3,329.952a3.317,3.317,0,1,0-3.317-3.317A3.317,3.317,0,0,0,369.3,329.952Zm0,3.317a6.634,6.634,0,1,0-6.635-6.634A6.634,6.634,0,0,0,369.3,333.269Z" transform="translate(-269.605 -234.209)" fill="#fff" fill-rule="evenodd"/>
    <path id="Path_16201" data-name="Path 16201" d="M70.635,329.952a3.317,3.317,0,1,0-3.317-3.317A3.317,3.317,0,0,0,70.635,329.952Zm0,3.317A6.634,6.634,0,1,0,64,326.635,6.634,6.634,0,0,0,70.635,333.269Z" transform="translate(-17.381 -234.209)" fill="#fff" fill-rule="evenodd"/>
    <path id="Path_16202" data-name="Path 16202" d="M59.684,413.643a2.042,2.042,0,0,0,1.863,1.642,1.465,1.465,0,0,0,1.522-1.652,9.954,9.954,0,0,0-19.631,0,1.465,1.465,0,0,0,1.522,1.652,2.042,2.042,0,0,0,1.863-1.642,6.637,6.637,0,0,1,12.86,0Z" transform="translate(0 -306.273)" fill="#fff" fill-rule="evenodd"/>
    <path id="Path_16203" data-name="Path 16203" d="M209.017,413.643a2.042,2.042,0,0,0,1.863,1.642,1.466,1.466,0,0,0,1.522-1.652,9.954,9.954,0,0,0-19.631,0,1.465,1.465,0,0,0,1.522,1.652,2.042,2.042,0,0,0,1.863-1.642,6.637,6.637,0,0,1,12.86,0Z" transform="translate(-126.113 -306.273)" fill="#fff" fill-rule="evenodd"/>
    <path id="Path_16204" data-name="Path 16204" d="M358.351,413.643a2.042,2.042,0,0,0,1.863,1.642,1.466,1.466,0,0,0,1.522-1.652,9.954,9.954,0,0,0-19.631,0,1.466,1.466,0,0,0,1.522,1.652,2.042,2.042,0,0,0,1.863-1.642,6.637,6.637,0,0,1,12.859,0Z" transform="translate(-252.226 -306.273)" fill="#fff" fill-rule="evenodd"/>
  </g>
</svg>
