<svg xmlns="http://www.w3.org/2000/svg" width="62.374" height="79.552" viewBox="0 0 62.374 79.552">
  <g id="Official_TISC" data-name="Official TISC" transform="translate(-6.91 0)">
    <path id="Path_16194" data-name="Path 16194" d="M69.2,71.677,60.217,48.053a7.693,7.693,0,0,0,2.269-2.071A7.565,7.565,0,0,0,63.7,39.661a5.14,5.14,0,0,1,1.731-5.206,7.584,7.584,0,0,0-.015-11.742A5.14,5.14,0,0,1,63.7,17.5a7.558,7.558,0,0,0-1.216-6.308,7.753,7.753,0,0,0-5.778-3.178,5.286,5.286,0,0,1-4.519-3.228,7.693,7.693,0,0,0-4.756-4.4,7.817,7.817,0,0,0-6.535.778,5.373,5.373,0,0,1-5.6,0A7.817,7.817,0,0,0,28.76.388a7.694,7.694,0,0,0-4.755,4.4,5.29,5.29,0,0,1-4.531,3.229A7.744,7.744,0,0,0,13.708,11.2,7.565,7.565,0,0,0,12.5,17.518a5.14,5.14,0,0,1-1.731,5.206,7.584,7.584,0,0,0,.015,11.742,5.14,5.14,0,0,1,1.712,5.209,7.558,7.558,0,0,0,1.216,6.308,7.693,7.693,0,0,0,2.269,2.069L6.992,71.677a1.242,1.242,0,0,0,1.582,1.611l9.786-3.518L23.333,78.9a1.242,1.242,0,0,0,1.091.649l.084,0a1.243,1.243,0,0,0,1.078-.8L34,56.646a7.826,7.826,0,0,0,1.3-.634,5.373,5.373,0,0,1,5.6,0h0a7.813,7.813,0,0,0,1.295.625L50.608,78.75a1.243,1.243,0,0,0,1.078.8l.084,0a1.242,1.242,0,0,0,1.091-.649l4.973-9.133,9.786,3.518A1.242,1.242,0,0,0,69.2,71.676ZM24.224,75.341l-4.19-7.694a1.244,1.244,0,0,0-1.511-.575l-8.247,2.964,8.01-21.059a7.93,7.93,0,0,0,1.2.185,5.286,5.286,0,0,1,4.519,3.228,7.693,7.693,0,0,0,4.756,4.4,7.858,7.858,0,0,0,2.377.38ZM33.989,53.9a5.327,5.327,0,0,1-4.459.53,5.212,5.212,0,0,1-3.224-2.978,7.792,7.792,0,0,0-6.664-4.768,5.267,5.267,0,0,1-3.922-2.158,5.083,5.083,0,0,1-.814-4.251,7.64,7.64,0,0,0-2.559-7.734,5.1,5.1,0,0,1,.015-7.909A7.639,7.639,0,0,0,14.9,16.892a5.076,5.076,0,0,1,.818-4.238A5.275,5.275,0,0,1,19.656,10.5a7.788,7.788,0,0,0,6.651-4.767,5.206,5.206,0,0,1,3.224-2.977,5.334,5.334,0,0,1,4.46.53,7.881,7.881,0,0,0,8.214,0,5.332,5.332,0,0,1,4.459-.53A5.212,5.212,0,0,1,49.888,5.73,7.792,7.792,0,0,0,56.552,10.5a5.267,5.267,0,0,1,3.922,2.158,5.083,5.083,0,0,1,.814,4.251,7.64,7.64,0,0,0,2.559,7.734,5.1,5.1,0,0,1-.015,7.909,7.639,7.639,0,0,0-2.541,7.736,5.076,5.076,0,0,1-.818,4.238,5.275,5.275,0,0,1-3.935,2.158,7.788,7.788,0,0,0-6.651,4.767,5.206,5.206,0,0,1-3.224,2.977,5.323,5.323,0,0,1-4.46-.53,7.881,7.881,0,0,0-8.214,0ZM57.672,67.071a1.243,1.243,0,0,0-1.511.575l-4.19,7.694L45.057,57.173a7.862,7.862,0,0,0,2.376-.382,7.7,7.7,0,0,0,4.757-4.4,5.286,5.286,0,0,1,4.53-3.229,7.86,7.86,0,0,0,1.189-.184l8.01,21.058Z" transform="translate(0 0)" fill="#fff"/>
    <path id="Path_16195" data-name="Path 16195" d="M54.29,26.645A18.645,18.645,0,1,0,35.645,45.29,18.645,18.645,0,0,0,54.29,26.645ZM35.645,42.8A16.159,16.159,0,1,1,51.8,26.645,16.159,16.159,0,0,1,35.645,42.8Z" transform="translate(2.452 1.944)" fill="#fff"/>
    <path id="Path_16196" data-name="Path 16196" d="M44.027,21.054l-6.061-.881-2.71-5.492a1.294,1.294,0,0,0-2.229,0l-2.711,5.492-6.061.881a1.243,1.243,0,0,0-.689,2.121l4.387,4.275-1.035,6.036a1.243,1.243,0,0,0,1.8,1.31l5.421-2.85,5.421,2.85a1.243,1.243,0,0,0,1.8-1.31L40.329,27.45l4.387-4.275a1.243,1.243,0,0,0-.689-2.121Zm-5.9,5.071a1.245,1.245,0,0,0-.357,1.1l.72,4.2-3.77-1.982a1.242,1.242,0,0,0-1.156,0l-3.77,1.981.72-4.2a1.245,1.245,0,0,0-.357-1.1l-3.05-2.973,4.215-.612a1.242,1.242,0,0,0,.936-.68l1.885-3.819,1.885,3.819a1.242,1.242,0,0,0,.936.68l4.215.612Z" transform="translate(3.956 3.413)" fill="#fff"/>
  </g>
</svg>
