<svg xmlns="http://www.w3.org/2000/svg" width="72.19" height="72.19" viewBox="0 0 72.19 72.19">
  <g id="Virtual_Lab" data-name="Virtual Lab" transform="translate(-16 -16)">
    <path id="Path_16205" data-name="Path 16205" d="M86.589,71.171l-.147-.324-2.191,1,.147.323a15.452,15.452,0,0,1,1.386,6.4,7.218,7.218,0,0,1-7.22,7.219H70.142a1.2,1.2,0,0,1-1.2-1.2V77.361a1.2,1.2,0,0,1,1.2-1.2h3.609a1.2,1.2,0,0,0,1.2-1.2V73.443A.894.894,0,0,1,76.7,73.16l.725,2.175a1.2,1.2,0,0,0,1.141.823h4.813V73.752H79.432L78.981,72.4a3.3,3.3,0,0,0-4.025-2.133V65.71L80.369,63.3l2.788,6.133,2.191-1-6.31-13.882a12.439,12.439,0,0,0-11.3-7.277H65.707a14.308,14.308,0,0,0,.624-2.406h.2a4.813,4.813,0,0,0,0-9.625V28.032a8.432,8.432,0,0,0-8.422-8.422h-.4A6.472,6.472,0,0,0,51.9,16H48.485A13.25,13.25,0,0,0,35.251,29.235v3.609a1.2,1.2,0,0,0,1.2,1.2h1.2v1.2a4.813,4.813,0,0,0,0,9.625h.2a14.307,14.307,0,0,0,.624,2.406H36.454a12.386,12.386,0,0,0-6.721,1.977c-.331.213-.655.445-.964.688l1.49,1.89c.248-.2.51-.382.777-.554a9.986,9.986,0,0,1,5.418-1.594H39.6a14.431,14.431,0,0,0,25,0h3.141a10.027,10.027,0,0,1,9.111,5.867l2.527,5.558-4.418,1.963V59.314a1.2,1.2,0,0,0-1.2-1.2H56.908a6.01,6.01,0,0,0-4.812,2.41,6.01,6.01,0,0,0-4.813-2.41H30.438a1.2,1.2,0,0,0-1.2,1.2v3.763l-4.418-1.963,2.527-5.558a9.986,9.986,0,0,1,1.592-2.465L27.128,51.5a12.388,12.388,0,0,0-1.975,3.058L17.6,71.171A17.761,17.761,0,0,0,16,78.565a9.625,9.625,0,0,0,9.626,9.625H78.565a9.624,9.624,0,0,0,9.625-9.626,17.855,17.855,0,0,0-1.6-7.395ZM66.533,37.657a2.406,2.406,0,1,1,0,4.813ZM37.657,42.47a2.406,2.406,0,0,1,0-4.813Zm0-10.828V29.885c.452-.035.9-.077,1.34-.128,1.112-.127,2.235-.312,3.339-.548A31.8,31.8,0,0,0,53.659,24.54L52.237,22.6a29.751,29.751,0,0,1-10.406,4.256c-1.028.22-2.073.392-3.11.511-.3.035-.607.065-.915.092a10.731,10.731,0,0,1,.632-2.251,47.768,47.768,0,0,0,11.083-3.142l-.478-1.078-.385-1.165a1.2,1.2,0,0,0-.113.043A45.987,45.987,0,0,1,40.019,22.5a10.811,10.811,0,0,1,8.467-4.09H51.9A4.07,4.07,0,0,1,55.7,21.021v6.358a27.361,27.361,0,0,1-14.692,4.262Zm3.563,2.4a12.937,12.937,0,0,1-1.156.611v-.609h.949ZM64.127,42.47a12.032,12.032,0,1,1-24.063,0v-5.2l.263-.105A15.456,15.456,0,0,0,45.539,33.7a29.728,29.728,0,0,0,10.845-3.918,16.417,16.417,0,0,0,7.743,7.459Zm0-14.25a26.266,26.266,0,0,0-4.145-3.6l-1.336,2a23.8,23.8,0,0,1,5.481,5.387v2.533a13.991,13.991,0,0,1-6.016-6.751V22.016a6.023,6.023,0,0,1,6.016,6.016ZM35.251,84.58a1.2,1.2,0,0,1-1.2,1.2H25.625a7.219,7.219,0,0,1-7.219-7.219,15.368,15.368,0,0,1,1.386-6.4L23.821,63.3l5.414,2.406v4.557A3.3,3.3,0,0,0,25.209,72.4l-.451,1.353H20.813v2.406h4.813a1.2,1.2,0,0,0,1.141-.823l.725-2.175a.894.894,0,0,1,1.743.282v1.512a1.2,1.2,0,0,0,1.2,1.2h3.609a1.2,1.2,0,0,1,1.2,1.2Zm13.235,1.2H37.45a3.593,3.593,0,0,0,.207-1.2V77.361a3.614,3.614,0,0,0-3.609-3.609H31.641V65.33H48.485ZM31.641,62.923V60.517H47.282a3.616,3.616,0,0,1,3.4,2.406ZM53.3,85.784H50.892V65.33H53.3Zm3.609-25.266H72.549v2.406H53.5a3.616,3.616,0,0,1,3.4-2.406ZM66.74,85.784H55.7V65.33H72.549v8.422H70.142a3.614,3.614,0,0,0-3.609,3.609V84.58a3.593,3.593,0,0,0,.207,1.2ZM46.079,42.47a2.406,2.406,0,1,1,2.406-2.406A2.406,2.406,0,0,1,46.079,42.47Zm12.032-4.813A2.406,2.406,0,1,1,55.7,40.063a2.406,2.406,0,0,1,2.406-2.406Zm-3.118,7.452,1.424,1.94a7.183,7.183,0,0,1-8.643,0l1.424-1.94A4.817,4.817,0,0,0,54.993,45.109ZM68.939,71.346H59.314V68.939h9.625Zm-8.422,2.406H65.33v2.406H60.517Z" transform="translate(0 0)" fill="#fff"/>
  </g>
</svg>
