<svg xmlns="http://www.w3.org/2000/svg" xmlns:xlink="http://www.w3.org/1999/xlink" width="94.23" height="94.23" viewBox="0 0 94.23 94.23">
  <defs>
    <clipPath id="clip-path">
      <path id="path3441" d="M0-682.665H94.23v94.23H0Z" transform="translate(0 682.665)" fill="#fff"/>
    </clipPath>
  </defs>
  <g id="Compliance_Audit_Services" data-name="Compliance &amp; Audit Services" transform="translate(0 682.665)">
    <g id="g3437" transform="translate(0 -682.665)">
      <g id="g3439" clip-path="url(#clip-path)">
        <g id="g3445" transform="translate(38.263 38.263)">
          <path id="path3447" d="M-221.108-110.553a17.7,17.7,0,0,1-17.7,17.7,17.7,17.7,0,0,1-17.7-17.7,17.7,17.7,0,0,1,17.7-17.7A17.7,17.7,0,0,1-221.108-110.553Z" transform="translate(256.515 128.257)" fill="none" stroke="#fff" stroke-linecap="round" stroke-linejoin="round" stroke-miterlimit="10" stroke-width="2"/>
        </g>
        <g id="g3449" transform="translate(72.955 72.955)">
          <path id="path3451" d="M-118.841-118.841h0a2.951,2.951,0,0,1-4.173,0l-13.994-13.994a2.951,2.951,0,0,1,0-4.173,2.951,2.951,0,0,1,4.173,0l13.994,13.994A2.951,2.951,0,0,1-118.841-118.841Z" transform="translate(137.871 137.871)" fill="none" stroke="#fff" stroke-linecap="round" stroke-linejoin="round" stroke-miterlimit="10" stroke-width="2"/>
        </g>
        <g id="g3453" transform="translate(68.692 68.692)">
          <path id="path3455" d="M0,0,4.979,4.979" fill="none" stroke="#fff" stroke-linecap="round" stroke-linejoin="round" stroke-miterlimit="10" stroke-width="2"/>
        </g>
        <g id="g3457" transform="translate(76.622 76.622)">
          <path id="path3459" d="M0-18.425l2.951-2.951" transform="translate(0 21.376)" fill="none" stroke="#fff" stroke-linecap="round" stroke-linejoin="round" stroke-miterlimit="10" stroke-width="2"/>
        </g>
        <g id="g3461" transform="translate(49.981 44.165)">
          <path id="path3463" d="M-100.822-111.084a11.731,11.731,0,0,0,1.643-5.986,11.8,11.8,0,0,0-11.8-11.8,11.731,11.731,0,0,0-5.986,1.643" transform="translate(116.968 128.873)" fill="none" stroke="#fff" stroke-linecap="round" stroke-linejoin="round" stroke-miterlimit="10" stroke-width="2"/>
        </g>
        <g id="g3465" transform="translate(44.165 49.981)">
          <path id="path3467" d="M-10.263,0a11.731,11.731,0,0,0-1.644,5.986A11.8,11.8,0,0,0-.1,17.789a11.731,11.731,0,0,0,5.986-1.643" transform="translate(11.907)" fill="none" stroke="#fff" stroke-linecap="round" stroke-linejoin="round" stroke-miterlimit="10" stroke-width="2"/>
        </g>
        <g id="g3469" transform="translate(1.38 7.282)">
          <path id="path3471" d="M-386.938-442.22v1.475a4.426,4.426,0,0,1-4.426,4.426h-53.112a4.426,4.426,0,0,1-4.426-4.426V-508.61a4.426,4.426,0,0,1,4.426-4.426h11.8" transform="translate(448.902 513.036)" fill="none" stroke="#fff" stroke-linecap="round" stroke-linejoin="round" stroke-miterlimit="10" stroke-width="2"/>
        </g>
        <g id="g3473" transform="translate(47.115 7.282)">
          <path id="path3475" d="M0,0H11.8a4.426,4.426,0,0,1,4.426,4.426v22.13" fill="none" stroke="#fff" stroke-linecap="round" stroke-linejoin="round" stroke-miterlimit="10" stroke-width="2"/>
        </g>
        <g id="g3477" transform="translate(17.609 1.38)">
          <path id="path3479" d="M-119.779-9.224l0,0A5.031,5.031,0,0,0-123.34-10.7h-1.734a5.031,5.031,0,0,0-3.557,1.473l0,0a5.031,5.031,0,0,1-3.557,1.473h-3.818A2.951,2.951,0,0,0-138.96-4.8V1.1h29.506V-4.8A2.951,2.951,0,0,0-112.4-7.751h-3.817A5.031,5.031,0,0,1-119.779-9.224Z" transform="translate(138.96 10.701)" fill="none" stroke="#fff" stroke-linecap="round" stroke-linejoin="round" stroke-miterlimit="10" stroke-width="2"/>
        </g>
        <g id="g3481" transform="translate(7.282 13.183)">
          <path id="path3483" d="M-202.682-377.727h-30.982a1.475,1.475,0,0,1-1.475-1.475V-436.74a1.475,1.475,0,0,1,1.475-1.475h2.951" transform="translate(235.139 438.215)" fill="none" stroke="#fff" stroke-linecap="round" stroke-linejoin="round" stroke-miterlimit="10" stroke-width="2"/>
        </g>
        <g id="g3485" transform="translate(53.016 13.183)">
          <path id="path3487" d="M0,0H2.951A1.475,1.475,0,0,1,4.426,1.475v17.7" fill="none" stroke="#fff" stroke-linecap="round" stroke-linejoin="round" stroke-miterlimit="10" stroke-width="2"/>
        </g>
        <g id="g3489" transform="translate(31.624 7.282)">
          <path id="path3491" d="M0,0H1.475" fill="none" stroke="#fff" stroke-linecap="round" stroke-linejoin="round" stroke-miterlimit="10" stroke-width="2"/>
        </g>
        <g id="g3493" transform="translate(14.658 22.773)">
          <path id="path3495" d="M0-13.819l2.951,2.951,5.164-5.164" transform="translate(0 16.032)" fill="none" stroke="#2cf411" stroke-linecap="round" stroke-linejoin="round" stroke-miterlimit="10" stroke-width="2"/>
        </g>
        <g id="g3497" transform="translate(29.411 24.985)">
          <path id="path3499" d="M0,0H19.179" fill="none" stroke="#2cf411" stroke-linecap="round" stroke-linejoin="round" stroke-miterlimit="10" stroke-width="2"/>
        </g>
        <g id="g3501" transform="translate(14.658 34.575)">
          <path id="path3503" d="M0-13.819l2.951,2.951,5.164-5.164" transform="translate(0 16.032)" fill="none" stroke="#2cf411" stroke-linecap="round" stroke-linejoin="round" stroke-miterlimit="10" stroke-width="2"/>
        </g>
        <g id="g3505" transform="translate(29.411 36.788)">
          <path id="path3507" d="M0,0H14.753" fill="none" stroke="#2cf411" stroke-linecap="round" stroke-linejoin="round" stroke-miterlimit="10" stroke-width="2"/>
        </g>
        <g id="g3509" transform="translate(14.658 46.378)">
          <path id="path3511" d="M0-13.819l2.951,2.951,5.164-5.164" transform="translate(0 16.032)" fill="none" stroke="#2cf411" stroke-linecap="round" stroke-linejoin="round" stroke-miterlimit="10" stroke-width="2"/>
        </g>
        <g id="g3513" transform="translate(29.411 48.591)">
          <path id="path3515" d="M0,0H2.951" fill="none" stroke="#2cf411" stroke-linecap="round" stroke-linejoin="round" stroke-miterlimit="10" stroke-width="2"/>
        </g>
        <g id="g3517" transform="translate(14.658 58.18)">
          <path id="path3519" d="M0-13.819l2.951,2.951,5.164-5.164" transform="translate(0 16.032)" fill="none" stroke="#2cf411" stroke-linecap="round" stroke-linejoin="round" stroke-miterlimit="10" stroke-width="2"/>
        </g>
        <g id="g3521" transform="translate(29.411 60.393)">
          <path id="path3523" d="M0,0H2.951" fill="none" stroke="#2cf411" stroke-linecap="round" stroke-linejoin="round" stroke-miterlimit="10" stroke-width="2"/>
        </g>
      </g>
    </g>
  </g>
</svg>
