<svg xmlns="http://www.w3.org/2000/svg" width="25.531" height="25.518" viewBox="0 0 25.531 25.518">
  <g id="Cyber_Range" data-name="Cyber Range" transform="translate(-0.985 0)">
    <path id="Shape" d="M24.276,27.357h4.253A1.276,1.276,0,0,0,29.8,26.081V22.253a1.276,1.276,0,0,0-1.276-1.276v-.851a2.126,2.126,0,0,0-4.253,0v.851A1.276,1.276,0,0,0,23,22.253v3.828A1.276,1.276,0,0,0,24.276,27.357Zm.851-7.23a1.276,1.276,0,1,1,2.552,0v.851H25.126Zm-1.276,2.126a.425.425,0,0,1,.425-.425h4.253a.425.425,0,0,1,.425.425v3.828a.425.425,0,0,1-.425.425H24.276a.425.425,0,0,1-.425-.425Z" transform="translate(-12.652 -10.345)" fill="#2cf411"/>
    <path id="Shape-2" data-name="Shape" d="M28.85,31.466v.078a.425.425,0,1,0,.851,0v-.078a1.276,1.276,0,1,0-.851,0Zm.425-1.623a.425.425,0,1,1-.425.425.425.425,0,0,1,.425-.425Z" transform="translate(-15.525 -16.659)" fill="#2cf411"/>
    <path id="Shape-3" data-name="Shape" d="M14,20.23A7.23,7.23,0,1,0,21.23,13,7.23,7.23,0,0,0,14,20.23Zm7.23-6.379a6.379,6.379,0,1,1-6.379,6.379A6.379,6.379,0,0,1,21.23,13.851Z" transform="translate(-7.48 -7.471)" fill="#2cf411"/>
    <path id="Shape-4" data-name="Shape" d="M43.529,46.822A1.7,1.7,0,0,0,41.888,48.1H38.851V45.527a8.889,8.889,0,0,0,2.552-1.81.425.425,0,1,0-.607-.6,8.064,8.064,0,0,1-2.525,1.746.418.418,0,0,0-.151.1c0,.005-.007.012-.012.018a.421.421,0,0,0-.074.117.407.407,0,0,0-.017.082.393.393,0,0,0-.017.074V48.1a.851.851,0,0,0,.851.851h3.037a1.7,1.7,0,1,0,1.641-2.126Zm0,2.552a.851.851,0,1,1,.851-.851A.851.851,0,0,1,43.529,49.374Z" transform="translate(-21.273 -24.707)" fill="#fff"/>
    <path id="Shape-5" data-name="Shape" d="M4.333,36.4H6.388l.01,0a.408.408,0,0,0,.124-.025.425.425,0,0,0,.058-.024l.015-.006s.012-.012.019-.017a.4.4,0,0,0,.1-.089l.014-.02a.417.417,0,0,0,.061-.128.1.1,0,0,1,0-.019.405.405,0,0,0,.02-.095.364.364,0,0,0-.01-.048.034.034,0,0,0,0-.017.413.413,0,0,0-.048-.142l0-.007a8.011,8.011,0,0,1-.919-2.424.425.425,0,0,0-.834.17,8.865,8.865,0,0,0,.68,2.041H4.333a1.7,1.7,0,1,0,0,.851Zm-1.641.425a.851.851,0,1,1,.851-.851A.851.851,0,0,1,2.693,36.827Z" transform="translate(0 -18.965)" fill="#fff"/>
    <path id="Shape-6" data-name="Shape" d="M1,15.977a1.7,1.7,0,0,0,3.342.425H6.408a.436.436,0,0,0,.123-.025.383.383,0,0,0,.054-.022.372.372,0,0,0,.064-.043.4.4,0,0,0,.092-.1c.006-.008.013-.014.018-.023a8.067,8.067,0,0,1,2.151-2.427.425.425,0,0,0-.51-.68,8.918,8.918,0,0,0-2.24,2.467H4.342A1.7,1.7,0,0,0,1,15.977Zm2.552,0a.851.851,0,1,1-.249-.6.851.851,0,0,1,.249.6Z" transform="translate(-0.009 -7.471)" fill="#fff"/>
    <path id="Shape-7" data-name="Shape" d="M51.431,34.275a1.7,1.7,0,0,0-1.641,1.276H48.445a8.835,8.835,0,0,0,.68-2.041.426.426,0,0,0-.834-.17,8.008,8.008,0,0,1-.919,2.424v.006a.412.412,0,0,0-.049.145.023.023,0,0,1,0,.014.464.464,0,0,0-.011.048.42.42,0,0,0,.02.1.029.029,0,0,0,0,.017.407.407,0,0,0,.063.128c0,.006.008.013.012.019a.414.414,0,0,0,.1.09c.007,0,.011.012.018.016a.154.154,0,0,0,.015.006.4.4,0,0,0,.059.024.425.425,0,0,0,.123.025l.011,0H49.79a1.7,1.7,0,1,0,1.641-2.126Zm0,2.552a.851.851,0,1,1,.851-.851A.851.851,0,0,1,51.431,36.827Z" transform="translate(-26.623 -18.965)" fill="#fff"/>
    <path id="Shape-8" data-name="Shape" d="M14.221,44.689v-.007a.432.432,0,0,0-.014-.071.442.442,0,0,0-.017-.085.418.418,0,0,0-.073-.115c-.006-.006-.008-.014-.014-.02a.419.419,0,0,0-.151-.1,8.148,8.148,0,0,1-2.895-2.149.425.425,0,1,0-.646.553,9,9,0,0,0,2.959,2.262v2.565H10.333a1.7,1.7,0,1,0,0,.851h3.037a.851.851,0,0,0,.851-.851ZM8.693,48.794a.851.851,0,1,1,.851-.851A.851.851,0,0,1,8.693,48.794Z" transform="translate(-3.448 -24.127)" fill="#fff"/>
    <path id="Path" d="M29.729,48.605a8.208,8.208,0,0,1-3.232,0,.425.425,0,1,0-.17.833,8.964,8.964,0,0,0,1.361.158V53.02a.425.425,0,0,0,.851,0V49.6a8.959,8.959,0,0,0,1.361-.158.425.425,0,0,0-.17-.833Z" transform="translate(-14.363 -27.928)" fill="#fff"/>
    <path id="Shape-9" data-name="Shape" d="M13.371,1.276H10.333a1.7,1.7,0,1,0,0,.851h3.037V4.964a.427.427,0,0,0,.01.051.423.423,0,0,0,.034.128.4.4,0,0,0,.07.1.38.38,0,0,0,.046.043.438.438,0,0,0,.067.045.444.444,0,0,0,.061.028.435.435,0,0,0,.094.019l.043.009a.421.421,0,0,0,.176-.043,8.067,8.067,0,0,1,1.612-.506.426.426,0,1,0-.17-.834,8.855,8.855,0,0,0-1.191.332V2.126a.851.851,0,0,0-.851-.851ZM8.693,2.552a.851.851,0,1,1,.6-.249.851.851,0,0,1-.6.249Z" transform="translate(-3.448)" fill="#fff"/>
    <path id="Shape-10" data-name="Shape" d="M41.888,2.126a1.7,1.7,0,1,0,0-.851H38.851A.851.851,0,0,0,38,2.126V4.963a.393.393,0,0,0,.015.074.407.407,0,0,0,.017.082.421.421,0,0,0,.074.117c0,.006.007.013.012.018a.418.418,0,0,0,.151.1A8.064,8.064,0,0,1,40.793,7.1a.425.425,0,1,0,.609-.593A8.889,8.889,0,0,0,38.851,4.7V2.126ZM43.529.85a.851.851,0,1,1-.851.851A.851.851,0,0,1,43.529.85Z" transform="translate(-21.273 0)" fill="#fff"/>
    <path id="Path-2" data-name="Path" d="M30.425,0A.425.425,0,0,0,30,.425V4.253a.425.425,0,0,0,.425.425,8.144,8.144,0,0,1,1.616.162.415.415,0,0,0,.085.009.425.425,0,0,0,.085-.842,8.958,8.958,0,0,0-1.361-.158V.425A.425.425,0,0,0,30.425,0Z" transform="translate(-16.675 0)" fill="#fff"/>
    <path id="Shape-11" data-name="Shape" d="M49.79,18.126a1.7,1.7,0,1,0,0-.851H47.735c-.008,0-.014,0-.022,0a.394.394,0,0,0-.073.015.408.408,0,0,0-.1.034.014.014,0,0,0-.011,0,.1.1,0,0,1-.018.016.414.414,0,0,0-.1.09c0,.006-.008.012-.012.019a.407.407,0,0,0-.063.128.029.029,0,0,1,0,.017.419.419,0,0,0-.02.1.464.464,0,0,0,.009.048.078.078,0,0,0,0,.014.412.412,0,0,0,.049.145v.006a8.075,8.075,0,0,1,1.082,4.04.425.425,0,0,0,.425.425h3.828a.425.425,0,1,0,0-.851H49.291a8.926,8.926,0,0,0-.851-3.4Zm1.641-1.276a.851.851,0,1,1-.851.851A.851.851,0,0,1,51.431,16.85Z" transform="translate(-26.623 -9.195)" fill="#fff"/>
    <path id="Path-3" data-name="Path" d="M1.425,26.253H5.253a.425.425,0,0,0,.425-.425,8.076,8.076,0,0,1,.4-2.53.425.425,0,0,0-.808-.266,8.907,8.907,0,0,0-.43,2.37H1.425a.425.425,0,1,0,0,.851Z" transform="translate(-0.009 -13.069)" fill="#fff"/>
  </g>
</svg>
