<svg xmlns="http://www.w3.org/2000/svg" width="91" height="94.231" viewBox="0 0 91 94.231">
  <g id="OT_Security" data-name="OT Security" transform="translate(-306 -2841)">
    <path id="it-department" d="M80.726,12.766,54.76.111a1.1,1.1,0,0,0-.967,0L27.827,12.766a1.1,1.1,0,0,0-.62.993v3.2H15.438a6.669,6.669,0,0,0-6.662,6.661v50.81A6.669,6.669,0,0,0,15.438,81.1h30.7v.67A6.358,6.358,0,0,1,43.3,87.147l-5.541,3.8A1.8,1.8,0,0,0,38.78,94.23H69.773A1.8,1.8,0,0,0,70.79,90.95l-5.541-3.8a6.358,6.358,0,0,1-2.834-5.382V81.1h30.7a6.669,6.669,0,0,0,6.662-6.661V23.624a6.669,6.669,0,0,0-6.662-6.661H81.346v-3.2A1.1,1.1,0,0,0,80.726,12.766ZM27.208,32.284A41.88,41.88,0,0,0,53.879,68.8a1.1,1.1,0,0,0,.8,0A41.881,41.881,0,0,0,81.344,32.284c0-.022,0-.044,0-.065V25.386H91.352v44.2H17.2v-44.2H27.206v6.832C27.206,32.24,27.207,32.263,27.208,32.284Zm2.207-17.835L54.276,2.332,79.137,14.449V32.185A39.668,39.668,0,0,1,54.276,66.579,39.668,39.668,0,0,1,29.415,32.185ZM64,88.968l4.45,3.054H40.1l4.45-3.054a8.509,8.509,0,0,0,3.793-7.2V81.1H60.207v.67A8.509,8.509,0,0,0,64,88.968Zm29.114-69.8a4.458,4.458,0,0,1,4.454,4.453v50.81a4.458,4.458,0,0,1-4.454,4.453H15.438a4.458,4.458,0,0,1-4.454-4.453V23.624a4.458,4.458,0,0,1,4.454-4.453H27.206v4.007H16.984a1.994,1.994,0,0,0-1.992,1.992V69.8a1.994,1.994,0,0,0,1.992,1.992H91.568A1.994,1.994,0,0,0,93.56,69.8V25.17a1.994,1.994,0,0,0-1.992-1.992H81.346V19.171Z" transform="translate(297.224 2841)" fill="#fff"/>
    <path id="it-department-2" data-name="it-department" d="M44.762,49.856l2.926-1.9a14.975,14.975,0,0,0,1.685.7l.725,3.409a1.1,1.1,0,0,0,1.08.874h6.194a1.1,1.1,0,0,0,1.08-.874l.726-3.409a15.033,15.033,0,0,0,1.686-.7l2.925,1.9a1.1,1.1,0,0,0,1.382-.145l4.381-4.38a1.1,1.1,0,0,0,.146-1.382l-1.9-2.926a15.007,15.007,0,0,0,.7-1.685l3.409-.724a1.1,1.1,0,0,0,.874-1.08V31.337a1.1,1.1,0,0,0-.874-1.08L68.5,29.531a15.006,15.006,0,0,0-.7-1.686l1.9-2.925a1.1,1.1,0,0,0-.145-1.381l-4.38-4.38a1.1,1.1,0,0,0-1.382-.146l-2.926,1.9a15.012,15.012,0,0,0-1.685-.7L58.454,16.8a1.1,1.1,0,0,0-1.08-.874H51.179A1.1,1.1,0,0,0,50.1,16.8l-.726,3.409a15.022,15.022,0,0,0-1.685.7l-2.925-1.9a1.1,1.1,0,0,0-1.382.146L39,23.539a1.1,1.1,0,0,0-.146,1.382l1.9,2.925a15,15,0,0,0-.7,1.686l-3.408.725a1.1,1.1,0,0,0-.874,1.08v6.194a1.1,1.1,0,0,0,.874,1.08l3.409.726a15.024,15.024,0,0,0,.7,1.686l-1.9,2.925A1.1,1.1,0,0,0,39,45.33l4.38,4.38a1.1,1.1,0,0,0,1.381.145ZM43,40.559a12.785,12.785,0,0,1-1.029-2.481,1.1,1.1,0,0,0-.828-.767l-3.161-.673V32.231l3.16-.673a1.1,1.1,0,0,0,.828-.767A12.768,12.768,0,0,1,43,28.31a1.1,1.1,0,0,0-.044-1.129l-1.76-2.712,3.116-3.116,2.713,1.76a1.1,1.1,0,0,0,1.129.043,12.768,12.768,0,0,1,2.481-1.029A1.1,1.1,0,0,0,51.4,21.3l.673-3.161h4.406l.673,3.161a1.1,1.1,0,0,0,.767.828A12.755,12.755,0,0,1,60.4,23.156a1.1,1.1,0,0,0,1.129-.044l2.713-1.76,3.116,3.116L65.6,27.181a1.1,1.1,0,0,0-.043,1.129,12.8,12.8,0,0,1,1.029,2.481,1.1,1.1,0,0,0,.828.767l3.161.673v4.407l-3.161.673a1.1,1.1,0,0,0-.828.767,12.765,12.765,0,0,1-1.029,2.48,1.1,1.1,0,0,0,.044,1.129l1.76,2.713-3.116,3.116-2.712-1.76a1.1,1.1,0,0,0-1.129-.044,12.791,12.791,0,0,1-2.481,1.029,1.1,1.1,0,0,0-.767.828l-.673,3.161H52.073L51.4,47.57a1.1,1.1,0,0,0-.767-.828,12.782,12.782,0,0,1-2.481-1.029,1.1,1.1,0,0,0-1.129.043l-2.713,1.76L41.194,44.4l1.76-2.712A1.1,1.1,0,0,0,43,40.559Zm11.279,3.608a9.733,9.733,0,1,0-9.733-9.733A9.733,9.733,0,0,0,54.276,44.168Zm-4.1-3.426a4.391,4.391,0,0,1,8.191,0A7.5,7.5,0,0,1,50.181,40.742Zm4.1-5.369a1.642,1.642,0,1,1,1.641-1.642,1.642,1.642,0,0,1-1.641,1.642Zm0-8.464A7.52,7.52,0,0,1,60.1,39.2a6.552,6.552,0,0,0-3-2.85,3.85,3.85,0,1,0-5.632,0,6.563,6.563,0,0,0-3,2.849,7.52,7.52,0,0,1,5.82-12.288Z" transform="translate(297.224 2841)" fill="#2cf411"/>
  </g>
</svg>
