<svg xmlns="http://www.w3.org/2000/svg" width="94.227" height="94.231" viewBox="0 0 94.227 94.231">
  <g id="Risk_Advisory_Consulting_" data-name="Risk Advisory &amp; Consulting " transform="translate(-4.556 -4.557)">
    <path id="Path_16224" data-name="Path 16224" d="M26.494,20.609A10.969,10.969,0,1,0,15.526,31.578,10.969,10.969,0,0,0,26.494,20.609Zm-19.163,0a8.195,8.195,0,1,1,8.2,8.195A8.195,8.195,0,0,1,7.331,20.609Z" transform="translate(0 -1.054)" fill="#fff"/>
    <path id="Path_16225" data-name="Path 16225" d="M36.69,65.065H23.815V46.241a7.34,7.34,0,1,0-14.68,0V72.405a7.348,7.348,0,0,0,7.343,7.34H29.346V98.57a7.34,7.34,0,0,0,14.681,0V72.405a7.349,7.349,0,0,0-7.336-7.34ZM41.256,98.57a4.566,4.566,0,1,1-9.132,0V78.359a1.387,1.387,0,0,0-1.387-1.387H16.478a4.571,4.571,0,0,1-4.566-4.566V46.241a4.566,4.566,0,1,1,9.132,0V66.453a1.388,1.388,0,0,0,1.387,1.387H36.69a4.572,4.572,0,0,1,4.566,4.566Z" transform="translate(-0.95 -7.123)" fill="#fff"/>
    <path id="Path_16226" data-name="Path 16226" d="M106.73,9.482A10.969,10.969,0,1,0,117.7,20.451,10.969,10.969,0,0,0,106.73,9.482Zm0,19.164a8.195,8.195,0,1,1,8.195-8.195,8.195,8.195,0,0,1-8.195,8.195Z" transform="translate(-18.915 -1.021)" fill="#fff"/>
    <path id="Path_16227" data-name="Path 16227" d="M102.392,38.9a7.348,7.348,0,0,0-7.34,7.34V65.065H82.184a7.349,7.349,0,0,0-7.34,7.34V98.57a7.34,7.34,0,0,0,14.681,0V79.745h12.867a7.348,7.348,0,0,0,7.34-7.34V46.241a7.348,7.348,0,0,0-7.34-7.341Zm4.566,33.5a4.571,4.571,0,0,1-4.566,4.566H88.138a1.387,1.387,0,0,0-1.387,1.387V98.569a4.566,4.566,0,1,1-9.132,0V72.405a4.572,4.572,0,0,1,4.566-4.566H96.443a1.388,1.388,0,0,0,1.387-1.387V46.24a4.566,4.566,0,1,1,9.132,0Z" transform="translate(-14.577 -7.123)" fill="#fff"/>
    <path id="Path_16228" data-name="Path 16228" d="M37.491,60.852H78.938a1.387,1.387,0,0,0,1.387-1.387V52.227a1.387,1.387,0,0,0-1.387-1.387H37.491A1.387,1.387,0,0,0,36.1,52.227v7.238A1.387,1.387,0,0,0,37.491,60.852Zm1.384-7.238H77.554v4.464H38.875Z" transform="translate(-6.543 -9.599)" fill="#fff"/>
    <path id="Path_16229" data-name="Path 16229" d="M37.491,29.32H46.3v3.847a1.388,1.388,0,0,0,1.387,1.387H74.33a1.388,1.388,0,0,0,1.387-1.387V16.629l4.232-4.5A1.387,1.387,0,0,0,78.937,9.79h-8.81V5.944a1.387,1.387,0,0,0-1.387-1.387H42.1a1.387,1.387,0,0,0-1.387,1.387V22.48l-4.231,4.5a1.386,1.386,0,0,0,1.011,2.338Zm32.637-1.387V12.564h5.6L73.32,15.133a1.386,1.386,0,0,0-.376.951V31.777H49.074V29.32H68.741a1.387,1.387,0,0,0,1.387-1.389ZM43.109,23.98a1.388,1.388,0,0,0,.376-.951V7.331H67.354V26.546H40.7Z" transform="translate(-6.542)" fill="#2cf411"/>
    <path id="Path_16230" data-name="Path 16230" d="M65.063,22.515H51.651a1.387,1.387,0,0,0,0,2.774H65.063a1.387,1.387,0,1,0,0-2.774Z" transform="translate(-9.48 -3.724)" fill="#2cf411"/>
    <path id="Path_16231" data-name="Path 16231" d="M65.063,14.339H51.651a1.387,1.387,0,1,0,0,2.774H65.063a1.387,1.387,0,1,0,0-2.774Z" transform="translate(-9.48 -2.029)" fill="#2cf411"/>
  </g>
</svg>
