<svg xmlns="http://www.w3.org/2000/svg" width="35.239" height="25.518" viewBox="0 0 35.239 25.518">
  <g id="TRACE" transform="translate(-3 -11)">
    <path id="Path_15711" data-name="Path 15711" d="M3.608,26.215h9.47l3.467,3.467a.608.608,0,0,0,.43.178h4.357a1.823,1.823,0,1,0,0-1.215H17.226l-3.467-3.467a.608.608,0,0,0-.43-.178H3.608a.608.608,0,1,0,0,1.215Zm19.442,2.43a.608.608,0,1,1-.608.608A.608.608,0,0,1,23.05,28.645Z" transform="translate(0 -5.494)" fill="#2cf411"/>
    <path id="Path_15712" data-name="Path 15712" d="M3.608,13.43H22.546a1.823,1.823,0,1,0,0-1.215H3.608a.608.608,0,0,0,0,1.215Zm20.657-1.215a.608.608,0,1,1-.608.608.608.608,0,0,1,.608-.608Z" fill="#fff"/>
    <path id="Path_15713" data-name="Path 15713" d="M3.608,32.215h8.506a.608.608,0,1,0,0-1.215H3.608a.608.608,0,1,0,0,1.215Z" transform="translate(0 -7.849)" fill="#2cf411"/>
    <path id="Path_15714" data-name="Path 15714" d="M25,19.608a.608.608,0,0,0,.608.608H37.759a.608.608,0,0,0,0-1.215H25.608A.608.608,0,0,0,25,19.608Z" transform="translate(-8.633 -3.14)" fill="#fff"/>
    <path id="Path_15715" data-name="Path 15715" d="M53.608,14.215h3.645a.608.608,0,0,0,0-1.215H53.608a.608.608,0,0,0,0,1.215Z" transform="translate(-19.622 -0.785)" fill="#fff"/>
    <path id="Path_15716" data-name="Path 15716" d="M3.608,19.43h8a1.823,1.823,0,1,0,0-1.215h-8a.608.608,0,1,0,0,1.215Zm9.721-1.215a.608.608,0,1,1-.608.608A.608.608,0,0,1,13.329,18.215Z" transform="translate(0 -2.355)" fill="#fff"/>
    <path id="Path_15717" data-name="Path 15717" d="M53.329,15.861H48.72l-2.252-2.252a1.823,1.823,0,1,0-.859.859l2.43,2.43a.608.608,0,0,0,.43.178h4.861a.608.608,0,0,0,0-1.215Zm-8.506-2.43a.608.608,0,1,1,.608-.608A.608.608,0,0,1,44.823,13.43Z" transform="translate(-15.697 0)" fill="#fff"/>
    <path id="Path_15718" data-name="Path 15718" d="M3.608,37.43H7.965a1.823,1.823,0,1,0,0-1.215H3.608a.608.608,0,1,0,0,1.215Zm6.076-1.215a.608.608,0,1,1-.608.608.608.608,0,0,1,.608-.608Z" transform="translate(0 -9.418)" fill="#fff"/>
    <path id="Path_15719" data-name="Path 15719" d="M43.91,36.215H22.541a1.823,1.823,0,1,0,0,1.215H43.91a.608.608,0,0,0,0-1.215ZM20.823,37.43a.608.608,0,1,1,.608-.608.608.608,0,0,1-.608.608Z" transform="translate(-6.279 -9.418)" fill="#2cf411"/>
    <path id="Path_15720" data-name="Path 15720" d="M47.05,24.215H30.541a1.823,1.823,0,1,0,0,1.215H47.05a.608.608,0,0,0,0-1.215ZM28.823,25.43a.608.608,0,1,1,.608-.608A.608.608,0,0,1,28.823,25.43Z" transform="translate(-9.418 -4.709)" fill="#2cf411"/>
    <path id="Path_15721" data-name="Path 15721" d="M45.48,43H33.329a.608.608,0,0,0-.429.178l-3.468,3.467h-2.89a1.823,1.823,0,1,0,0,1.215h3.142a.607.607,0,0,0,.429-.178l3.468-3.467h11.9a.608.608,0,0,0,0-1.215ZM24.823,47.861a.608.608,0,1,1,.608-.608A.608.608,0,0,1,24.823,47.861Z" transform="translate(-7.849 -12.558)" fill="#fff"/>
    <path id="Path_15722" data-name="Path 15722" d="M52.544,30.215h-8a1.823,1.823,0,1,0,0,1.215h8a.608.608,0,0,0,0-1.215ZM42.823,31.43a.608.608,0,1,1,.608-.608A.608.608,0,0,1,42.823,31.43Z" transform="translate(-14.912 -7.064)" fill="#2cf411"/>
    <path id="Path_15723" data-name="Path 15723" d="M3.608,44.215H21.835a.608.608,0,0,0,0-1.215H3.608a.608.608,0,0,0,0,1.215Z" transform="translate(0 -12.558)" fill="#fff"/>
    <path id="Path_15724" data-name="Path 15724" d="M51.759,48.215H42.541a1.823,1.823,0,1,0,0,1.215h9.218a.608.608,0,0,0,0-1.215ZM40.823,49.43a.608.608,0,1,1,.608-.608A.608.608,0,0,1,40.823,49.43Z" transform="translate(-14.128 -14.128)" fill="#fff"/>
    <path id="Path_15725" data-name="Path 15725" d="M12.114,47a1.826,1.826,0,0,0-1.719,1.215H3.608a.608.608,0,1,0,0,1.215h6.787A1.823,1.823,0,1,0,12.114,47Zm0,2.43a.608.608,0,1,1,.608-.608A.608.608,0,0,1,12.114,49.43Z" transform="translate(0 -14.128)" fill="#fff"/>
  </g>
</svg>
