<svg xmlns="http://www.w3.org/2000/svg" width="25.518" height="25.518" viewBox="0 0 25.518 25.518">
  <g id="Zero_Hack" data-name="Zero Hack" transform="translate(-883 -2102)">
    <g id="hacking" transform="translate(883 2102)">
      <g id="Group_11238" data-name="Group 11238" transform="translate(0 0)">
        <path id="Path_15726" data-name="Path 15726" d="M232.461,396.387a1.235,1.235,0,1,0,1.235,1.235A1.236,1.236,0,0,0,232.461,396.387Zm0,1.646a.412.412,0,1,1,.412-.412A.412.412,0,0,1,232.461,398.033Z" transform="translate(-219.702 -376.631)" fill="#2cf411"/>
        <path id="Path_15727" data-name="Path 15727" d="M232.461,306.372h-1.235v.823h1.235a1.648,1.648,0,0,0,1.646-1.646h-.823A.824.824,0,0,1,232.461,306.372Z" transform="translate(-219.702 -290.32)" fill="#2cf411"/>
        <path id="Path_15728" data-name="Path 15728" d="M49.548,297.29h.823v1.646h-.823Z" transform="translate(-47.079 -282.473)" fill="#2cf411"/>
        <path id="Path_15729" data-name="Path 15729" d="M25.518,16.875a2.882,2.882,0,0,0-1.555-2.555,2.037,2.037,0,0,0-.416-3.4A11.108,11.108,0,0,0,17.13,3.368a4.521,4.521,0,0,0-8.742,0,11.081,11.081,0,0,0-6.1,6.512H2.058A1.236,1.236,0,0,0,.823,11.113v2.058A.824.824,0,0,0,0,13.994v3.293a.824.824,0,0,0,.823.823H2.614a11.128,11.128,0,0,0,3.3,4.216,2.37,2.37,0,0,0,2.226,3.192h9.246a2.37,2.37,0,0,0,2.226-3.192,11.129,11.129,0,0,0,3.3-4.216h2.614Zm-4.04-3.7H23.8a1.227,1.227,0,0,1-2.318,0Zm2.318-.823H21.479a1.227,1.227,0,0,1,2.318,0Zm-6.51,2.478a4.276,4.276,0,0,1-.933,2.66l-.5.624h-.771a3.7,3.7,0,0,0,1.381-2.881v-.98l.814.407c0,.057.009.113.009.17Zm-9.046-.17.814-.407v.98a3.7,3.7,0,0,0,1.381,2.881H9.664l-.5-.624a4.278,4.278,0,0,1-.933-2.66c0-.057.007-.113.009-.17Zm4.518,3.454a2.885,2.885,0,0,1-2.881-2.881V13.994H15.64v1.235A2.885,2.885,0,0,1,12.759,18.11Zm-3.7.823h7.409v4.116H9.055Zm7.094-5.762H9.369l-.968.484a4.26,4.26,0,0,1,1.224-1.981L12.32,9.225a.669.669,0,0,1,.879,0l2.694,2.449a4.26,4.26,0,0,1,1.224,1.981ZM9.055,4.527a3.678,3.678,0,0,1,.216-1.235h1.563a5.818,5.818,0,0,0,0,2.469H9.271A3.68,3.68,0,0,1,9.055,4.527Zm3.7-3.374.391.586a5.022,5.022,0,0,1,.4.73H11.967a5.023,5.023,0,0,1,.4-.73Zm1.078,2.139a4.94,4.94,0,0,1,0,2.469H11.681a4.946,4.946,0,0,1,0-2.469ZM12.759,7.9l-.391-.586a5.089,5.089,0,0,1-.4-.73h1.584a5.023,5.023,0,0,1-.4.73ZM11.076,6.585a5.854,5.854,0,0,0,.608,1.187l.241.361A3.712,3.712,0,0,1,9.681,6.585Zm2.518,1.548.241-.361a5.854,5.854,0,0,0,.608-1.187h1.395a3.713,3.713,0,0,1-2.244,1.548Zm2.87-3.606a3.677,3.677,0,0,1-.216,1.235H14.685a5.818,5.818,0,0,0,0-2.469h1.563A3.678,3.678,0,0,1,16.463,4.527Zm-.626-2.058H14.442a5.854,5.854,0,0,0-.608-1.187L13.593.921A3.712,3.712,0,0,1,15.837,2.469ZM11.924.922l-.241.361a5.873,5.873,0,0,0-.607,1.187H9.681A3.711,3.711,0,0,1,11.924.922ZM1.646,11.113a.412.412,0,0,1,.412-.412H3.7a.412.412,0,0,1,.412.412v2.058H1.646ZM.823,13.994H4.939v3.293H.823Zm2.7,4.116h1.42a.824.824,0,0,0,.823-.823V13.994a.824.824,0,0,0-.823-.823V11.113A1.236,1.236,0,0,0,3.7,9.878H3.156a10.26,10.26,0,0,1,5.086-5.54c0,.063-.01.126-.01.19A4.533,4.533,0,0,0,11.487,8.87L9.072,11.065A5.083,5.083,0,0,0,8.522,18l.162.2a.821.821,0,0,0-.452.731v1.042L6.616,21.321a2.359,2.359,0,0,0-.286.288,10.317,10.317,0,0,1-2.811-3.5Zm3.066,5.034a1.549,1.549,0,0,1,.557-1.191l1.089-.907v2.826a1.63,1.63,0,0,0,.229.823H8.136A1.552,1.552,0,0,1,6.585,23.144ZM9.878,24.7a.824.824,0,0,1-.823-.823h7.409a.824.824,0,0,1-.823.823Zm7.5,0h-.325a1.626,1.626,0,0,0,.229-.823V21.046l1.089.907a1.551,1.551,0,0,1-.993,2.742Zm1.806-3.086a2.372,2.372,0,0,0-.286-.289l-1.615-1.346V18.933a.821.821,0,0,0-.452-.731L17,18a5.083,5.083,0,0,0-.55-6.935L14.031,8.87a4.533,4.533,0,0,0,3.255-4.342c0-.064-.007-.127-.009-.19A10.289,10.289,0,0,1,22.64,10.7h0a2.049,2.049,0,0,0-1.326,3.619,2.882,2.882,0,0,0-1.555,2.555V18.11H22a10.311,10.311,0,0,1-2.811,3.5ZM24.7,17.287H20.579v-.412a2.058,2.058,0,1,1,4.116,0v.412Z" transform="translate(0 0)" fill="#fff"/>
      </g>
    </g>
    <path id="Path_15730" data-name="Path 15730" d="M-4139.241-3560.454l-.756.257-2.887,2.823s-2.865,2.781,0,6.651c0,.021,7.292,0,7.292,0s2.973-3.678,0-6.651S-4139.241-3560.454-4139.241-3560.454Z" transform="translate(5035 5671)" fill="none" stroke="#2cf411" stroke-width="1"/>
  </g>
</svg>
