<svg xmlns="http://www.w3.org/2000/svg" width="88.197" height="88.154" viewBox="0 0 88.197 88.154">
  <g id="service_icon" data-name="service icon" transform="translate(-0.985 0)">
    <path id="Shape" d="M27.408,50.323H42.1a4.408,4.408,0,0,0,4.408-4.408V32.692A4.408,4.408,0,0,0,42.1,28.285V25.346a7.346,7.346,0,0,0-14.692,0v2.938A4.408,4.408,0,0,0,23,32.692V45.915A4.408,4.408,0,0,0,27.408,50.323Zm2.938-24.977a4.408,4.408,0,0,1,8.815,0v2.938H30.346Zm-4.408,7.346a1.469,1.469,0,0,1,1.469-1.469H42.1a1.469,1.469,0,0,1,1.469,1.469V45.915A1.469,1.469,0,0,1,42.1,47.384H27.408a1.469,1.469,0,0,1-1.469-1.469Z" transform="translate(10.33 8.446)" fill="#2cf411"/>
    <path id="Shape-2" data-name="Shape" d="M30.939,37.551v.27a1.469,1.469,0,0,0,2.938,0v-.27a4.408,4.408,0,1,0-2.938,0Zm1.469-5.607a1.469,1.469,0,1,1-1.469,1.469,1.469,1.469,0,0,1,1.469-1.469Z" transform="translate(12.676 13.602)" fill="#2cf411"/>
    <path id="Shape-3" data-name="Shape" d="M14,37.977A24.977,24.977,0,1,0,38.977,13,24.977,24.977,0,0,0,14,37.977ZM38.977,15.938A22.038,22.038,0,1,1,16.938,37.977,22.038,22.038,0,0,1,38.977,15.938Z" transform="translate(6.107 6.1)" fill="#2cf411"/>
    <path id="Shape-4" data-name="Shape" d="M57.1,56.228a5.877,5.877,0,0,0-5.668,4.408H40.938V51.754A30.707,30.707,0,0,0,49.754,45.5a1.469,1.469,0,1,0-2.1-2.057,27.858,27.858,0,0,1-8.723,6.031,1.442,1.442,0,0,0-.52.354c-.016.018-.025.041-.041.062a1.453,1.453,0,0,0-.257.4,1.407,1.407,0,0,0-.057.284,1.359,1.359,0,0,0-.057.256v9.8a2.938,2.938,0,0,0,2.938,2.938H51.432A5.867,5.867,0,1,0,57.1,56.228Zm0,8.815A2.938,2.938,0,1,1,60.038,62.1,2.938,2.938,0,0,1,57.1,65.043Z" transform="translate(17.368 20.172)" fill="#fff"/>
    <path id="Shape-5" data-name="Shape" d="M12.552,44.754h7.1c.012,0,.022-.007.035-.007a1.41,1.41,0,0,0,.428-.087,1.468,1.468,0,0,0,.2-.082c.016-.009.035-.012.051-.022s.041-.041.065-.057a1.375,1.375,0,0,0,.35-.309.845.845,0,0,0,.048-.071,1.441,1.441,0,0,0,.212-.441.352.352,0,0,1,.013-.066,1.4,1.4,0,0,0,.068-.328,1.257,1.257,0,0,0-.034-.165.116.116,0,0,0-.01-.057,1.427,1.427,0,0,0-.166-.491l-.007-.023a27.675,27.675,0,0,1-3.176-8.375,1.47,1.47,0,0,0-2.88.588A30.626,30.626,0,0,0,17.2,41.815H12.552a5.877,5.877,0,1,0,0,2.938ZM6.884,46.224a2.938,2.938,0,1,1,2.938-2.938A2.938,2.938,0,0,1,6.884,46.224Z" transform="translate(0 15.484)" fill="#fff"/>
    <path id="Shape-6" data-name="Shape" d="M1,23.285a5.865,5.865,0,0,0,11.545,1.469h7.139a1.506,1.506,0,0,0,.425-.087,1.322,1.322,0,0,0,.188-.076,1.287,1.287,0,0,0,.22-.147,1.383,1.383,0,0,0,.317-.336c.019-.028.044-.048.062-.078a27.867,27.867,0,0,1,7.431-8.385,1.469,1.469,0,0,0-1.763-2.351,30.807,30.807,0,0,0-7.738,8.521H12.545A5.865,5.865,0,0,0,1,23.285Zm8.815,0a2.938,2.938,0,1,1-.861-2.078,2.938,2.938,0,0,1,.861,2.078Z" transform="translate(0.007 6.1)" fill="#fff"/>
    <path id="Shape-7" data-name="Shape" d="M61.547,37.408a5.877,5.877,0,0,0-5.668,4.408H51.231a30.519,30.519,0,0,0,2.351-7.052,1.47,1.47,0,0,0-2.881-.588,27.666,27.666,0,0,1-3.174,8.375v.019a1.423,1.423,0,0,0-.17.5.079.079,0,0,1-.01.047,1.6,1.6,0,0,0-.037.166,1.45,1.45,0,0,0,.068.339.1.1,0,0,0,.012.057,1.407,1.407,0,0,0,.216.441c.015.022.026.044.043.065A1.429,1.429,0,0,0,48,44.5c.024.016.038.041.063.056a.531.531,0,0,0,.051.022,1.37,1.37,0,0,0,.2.084,1.469,1.469,0,0,0,.425.085c.013,0,.024.007.037.007h7.1a5.867,5.867,0,1,0,5.668-7.345Zm0,8.815a2.938,2.938,0,1,1,2.938-2.938A2.938,2.938,0,0,1,61.547,46.223Z" transform="translate(21.737 15.484)" fill="#fff"/>
    <path id="Shape-8" data-name="Shape" d="M31.984,51.334v-.025a1.493,1.493,0,0,0-.048-.244,1.527,1.527,0,0,0-.06-.294,1.443,1.443,0,0,0-.253-.4c-.019-.022-.028-.049-.047-.069a1.449,1.449,0,0,0-.522-.354,28.148,28.148,0,0,1-10-7.425,1.469,1.469,0,1,0-2.232,1.91,31.089,31.089,0,0,0,10.223,7.813v8.861H18.552a5.877,5.877,0,1,0,0,2.938H29.045a2.938,2.938,0,0,0,2.938-2.938Zm-19.1,14.182a2.938,2.938,0,1,1,2.938-2.938A2.938,2.938,0,0,1,12.884,65.516Z" transform="translate(2.815 19.699)" fill="#fff"/>
    <path id="Path" d="M38.94,48.632a28.356,28.356,0,0,1-11.166,0,1.469,1.469,0,1,0-.588,2.878,30.964,30.964,0,0,0,4.7.545V63.882a1.469,1.469,0,0,0,2.938,0V52.055a30.95,30.95,0,0,0,4.7-.545,1.469,1.469,0,0,0-.588-2.878Z" transform="translate(11.727 22.802)" fill="#fff"/>
    <path id="Shape-9" data-name="Shape" d="M29.045,4.408H18.552a5.877,5.877,0,1,0,0,2.938H29.045v9.8a1.473,1.473,0,0,0,.035.175,1.46,1.46,0,0,0,.116.441,1.374,1.374,0,0,0,.241.357,1.314,1.314,0,0,0,.16.147,1.512,1.512,0,0,0,.231.156,1.532,1.532,0,0,0,.212.1,1.5,1.5,0,0,0,.323.065,1.254,1.254,0,0,0,.147.031,1.453,1.453,0,0,0,.607-.147,27.869,27.869,0,0,1,5.568-1.748A1.47,1.47,0,1,0,36.1,13.84a30.59,30.59,0,0,0-4.114,1.146V7.346A2.938,2.938,0,0,0,29.045,4.408ZM12.884,8.815a2.938,2.938,0,1,1,2.078-.861,2.938,2.938,0,0,1-2.078.861Z" transform="translate(2.815 0)" fill="#fff"/>
    <path id="Shape-10" data-name="Shape" d="M51.432,7.346a5.877,5.877,0,1,0,0-2.938H40.938A2.938,2.938,0,0,0,38,7.346v9.8a1.359,1.359,0,0,0,.051.256,1.406,1.406,0,0,0,.057.284,1.453,1.453,0,0,0,.257.4c.016.019.025.044.041.062a1.443,1.443,0,0,0,.52.354,27.858,27.858,0,0,1,8.723,6.024,1.469,1.469,0,1,0,2.1-2.048,30.707,30.707,0,0,0-8.815-6.252V7.346ZM57.1,2.939a2.938,2.938,0,1,1-2.938,2.938A2.938,2.938,0,0,1,57.1,2.939Z" transform="translate(17.368 0)" fill="#fff"/>
    <path id="Path-2" data-name="Path" d="M31.469,0A1.469,1.469,0,0,0,30,1.469V14.692a1.469,1.469,0,0,0,1.469,1.469,28.136,28.136,0,0,1,5.583.558,1.434,1.434,0,0,0,.294.029,1.469,1.469,0,0,0,.294-2.908,30.945,30.945,0,0,0-4.7-.545V1.469A1.469,1.469,0,0,0,31.469,0Z" transform="translate(13.614 0)" fill="#fff"/>
    <path id="Shape-11" data-name="Shape" d="M55.878,23.346a5.877,5.877,0,1,0,0-2.938h-7.1c-.028,0-.05.015-.076.015a1.362,1.362,0,0,0-.251.051,1.411,1.411,0,0,0-.348.118.047.047,0,0,0-.04.015.354.354,0,0,1-.063.056,1.429,1.429,0,0,0-.353.311c-.016.021-.028.043-.043.065a1.407,1.407,0,0,0-.216.441.1.1,0,0,1-.012.057,1.448,1.448,0,0,0-.068.341,1.607,1.607,0,0,0,.032.167.271.271,0,0,0,.01.047,1.424,1.424,0,0,0,.17.5v.019a27.9,27.9,0,0,1,3.739,13.956,1.469,1.469,0,0,0,1.469,1.469H65.954a1.469,1.469,0,1,0,0-2.938h-11.8a30.837,30.837,0,0,0-2.938-11.754Zm5.668-4.408a2.938,2.938,0,1,1-2.938,2.938A2.938,2.938,0,0,1,61.547,18.939Z" transform="translate(21.737 7.508)" fill="#fff"/>
    <path id="Path-3" data-name="Path" d="M2.469,34.876H15.692a1.469,1.469,0,0,0,1.469-1.469,27.9,27.9,0,0,1,1.394-8.739,1.469,1.469,0,1,0-2.792-.918,30.77,30.77,0,0,0-1.484,8.188H2.469a1.469,1.469,0,1,0,0,2.938Z" transform="translate(0.007 10.67)" fill="#fff"/>
  </g>
</svg>
