<?xml version="1.0"?>
<svg xmlns="http://www.w3.org/2000/svg" xmlns:xlink="http://www.w3.org/1999/xlink" xmlns:svgjs="http://svgjs.com/svgjs" version="1.1" width="512px" height="512px" x="0" y="0" viewBox="0 0 512 512" style="enable-background:new 0 0 512 512" xml:space="preserve" class=""><g><g><path d="m213.618 335.67h5.153c4.143 0 7.5-3.358 7.5-7.5s-3.357-7.5-7.5-7.5h-5.153c-4.143 0-7.5 3.358-7.5 7.5s3.358 7.5 7.5 7.5z" fill="#ffffff" data-original="#000000" class=""/><path d="m253.424 335.67h5.153c4.143 0 7.5-3.358 7.5-7.5s-3.357-7.5-7.5-7.5h-5.153c-4.143 0-7.5 3.358-7.5 7.5s3.357 7.5 7.5 7.5z" fill="#ffffff" data-original="#000000" class=""/><path d="m293.229 335.67h5.153c4.143 0 7.5-3.358 7.5-7.5s-3.357-7.5-7.5-7.5h-5.153c-4.143 0-7.5 3.358-7.5 7.5s3.357 7.5 7.5 7.5z" fill="#ffffff" data-original="#000000" class=""/><path d="m213.618 370.663h5.153c4.143 0 7.5-3.358 7.5-7.5s-3.357-7.5-7.5-7.5h-5.153c-4.143 0-7.5 3.358-7.5 7.5s3.358 7.5 7.5 7.5z" fill="#ffffff" data-original="#000000" class=""/><path d="m253.424 370.663h5.153c4.143 0 7.5-3.358 7.5-7.5s-3.357-7.5-7.5-7.5h-5.153c-4.143 0-7.5 3.358-7.5 7.5s3.357 7.5 7.5 7.5z" fill="#ffffff" data-original="#000000" class=""/><path d="m293.229 370.663h5.153c4.143 0 7.5-3.358 7.5-7.5s-3.357-7.5-7.5-7.5h-5.153c-4.143 0-7.5 3.358-7.5 7.5s3.357 7.5 7.5 7.5z" fill="#ffffff" data-original="#000000" class=""/><path d="m226.271 398.155c0-4.142-3.357-7.5-7.5-7.5h-5.153c-4.143 0-7.5 3.358-7.5 7.5s3.357 7.5 7.5 7.5h5.153c4.143 0 7.5-3.358 7.5-7.5z" fill="#ffffff" data-original="#000000" class=""/><path d="m253.424 405.655h5.153c4.143 0 7.5-3.358 7.5-7.5s-3.357-7.5-7.5-7.5h-5.153c-4.143 0-7.5 3.358-7.5 7.5s3.357 7.5 7.5 7.5z" fill="#ffffff" data-original="#000000" class=""/><path d="m293.229 405.655h5.153c4.143 0 7.5-3.358 7.5-7.5s-3.357-7.5-7.5-7.5h-5.153c-4.143 0-7.5 3.358-7.5 7.5s3.357 7.5 7.5 7.5z" fill="#ffffff" data-original="#000000" class=""/><path d="m371.913 379.832h-5.153c-4.143 0-7.5 3.358-7.5 7.5s3.357 7.5 7.5 7.5h5.153c4.143 0 7.5-3.358 7.5-7.5s-3.357-7.5-7.5-7.5z" fill="#ffffff" data-original="#000000" class=""/><path d="m371.913 414.825h-5.153c-4.143 0-7.5 3.358-7.5 7.5s3.357 7.5 7.5 7.5h5.153c4.143 0 7.5-3.358 7.5-7.5s-3.357-7.5-7.5-7.5z" fill="#ffffff" data-original="#000000" class=""/><path d="m371.913 449.817h-5.153c-4.143 0-7.5 3.358-7.5 7.5s3.357 7.5 7.5 7.5h5.153c4.143 0 7.5-3.358 7.5-7.5s-3.357-7.5-7.5-7.5z" fill="#ffffff" data-original="#000000" class=""/><path d="m97.69 497c-4.143 0-7.5 3.358-7.5 7.5s3.357 7.5 7.5 7.5h316.619c4.143 0 7.5-3.358 7.5-7.5s-3.357-7.5-7.5-7.5h-1.957v-57.175c0-4.142-3.357-7.5-7.5-7.5s-7.5 3.358-7.5 7.5v57.175h-56.926v-149.351h56.926v57.175c0 4.142 3.357 7.5 7.5 7.5s7.5-3.358 7.5-7.5v-57.175h1.957c4.143 0 7.5-3.358 7.5-7.5s-3.357-7.5-7.5-7.5c-15.723 0-57.149 0-73.883 0v-36.893c3.875-.292 6.93-3.522 6.93-7.471 0-4.142-3.357-7.5-7.5-7.5-4.452 0-163.224 0-167.713 0-4.143 0-7.5 3.358-7.5 7.5 0 3.95 3.055 7.179 6.93 7.471v36.893c-13.003 0-57.26 0-73.883 0-4.143 0-7.5 3.358-7.5 7.5s3.357 7.5 7.5 7.5h1.958v149.351zm181.798 0h-46.977v-52.618c0-.146.119-.266.266-.266h46.445c.146 0 .266.119.266.266zm-92.915-201.214h138.854v201.214h-30.938v-52.618c0-8.417-6.848-15.266-15.266-15.266h-46.445c-8.418 0-15.266 6.848-15.266 15.266v52.618h-30.938c-.001-5.189-.001-195.843-.001-201.214zm-71.925 51.863h56.925v149.351h-56.925z" fill="#ffffff" data-original="#000000" class=""/><path d="m145.24 379.832h-5.153c-4.143 0-7.5 3.358-7.5 7.5s3.357 7.5 7.5 7.5h5.153c4.143 0 7.5-3.358 7.5-7.5s-3.357-7.5-7.5-7.5z" fill="#ffffff" data-original="#000000" class=""/><path d="m145.24 414.825h-5.153c-4.143 0-7.5 3.358-7.5 7.5s3.357 7.5 7.5 7.5h5.153c4.143 0 7.5-3.358 7.5-7.5s-3.357-7.5-7.5-7.5z" fill="#ffffff" data-original="#000000" class=""/><path d="m145.24 449.817h-5.153c-4.143 0-7.5 3.358-7.5 7.5s3.357 7.5 7.5 7.5h5.153c4.143 0 7.5-3.358 7.5-7.5s-3.357-7.5-7.5-7.5z" fill="#ffffff" data-original="#000000" class=""/><path d="m215.357 60.941c-1.1-2.81-3.877-4.74-6.988-4.735-3.135.009-5.875 1.968-6.959 4.735l-20.943 52.925c-1.524 3.852.362 8.209 4.214 9.733 3.86 1.527 8.213-.37 9.733-4.214l2.995-7.569h21.949l2.995 7.569c1.525 3.854 5.885 5.737 9.733 4.214 3.852-1.524 5.738-5.882 4.214-9.733zm-12.012 35.876 5.039-12.734 5.039 12.734z" fill="#ffffff" data-original="#000000" class=""/><path d="m251.784 124.126h23.3c4.143 0 7.5-3.358 7.5-7.5s-3.357-7.5-7.5-7.5h-15.8v-45.425c0-4.142-3.357-7.5-7.5-7.5s-7.5 3.358-7.5 7.5v52.925c0 4.143 3.358 7.5 7.5 7.5z" fill="#ffffff" data-original="#000000" class=""/><path d="m320.757 109.126h-15.8v-45.425c0-4.142-3.357-7.5-7.5-7.5s-7.5 3.358-7.5 7.5v52.925c0 4.142 3.357 7.5 7.5 7.5h23.3c4.143 0 7.5-3.358 7.5-7.5s-3.358-7.5-7.5-7.5z" fill="#ffffff" data-original="#000000" class=""/><path d="m219.057 137.877c-4.143 0-7.5 3.358-7.5 7.5v59.188c0 4.142 3.357 7.5 7.5 7.5s7.5-3.358 7.5-7.5v-59.188c0-4.142-3.358-7.5-7.5-7.5z" fill="#ffffff" data-original="#000000" class=""/><path d="m289.142 137.877c-4.143 0-7.5 3.358-7.5 7.5v33.262l-23.53-37.267c-1.783-2.823-5.22-4.13-8.426-3.2-3.208.928-5.416 3.865-5.416 7.205v59.188c0 4.142 3.357 7.5 7.5 7.5s7.5-3.358 7.5-7.5v-33.262l23.53 37.267c1.399 2.216 3.816 3.496 6.342 3.496.692 0 1.394-.096 2.084-.296 3.208-.928 5.416-3.865 5.416-7.205v-59.188c0-4.142-3.358-7.5-7.5-7.5z" fill="#ffffff" data-original="#000000" class=""/><path d="m467.271 86.726c-2.395-4.74-7.182-7.685-12.492-7.685h-78.287c-20.265-46.471-66.643-79.041-120.492-79.041s-100.227 32.57-120.491 79.041h-78.287c-5.311 0-10.098 2.945-12.492 7.685s-1.925 10.34 1.227 14.615l22.143 30.037-22.144 30.038c-3.151 4.275-3.621 9.875-1.227 14.615s7.182 7.685 12.492 7.685h78.287c20.264 46.471 66.642 79.041 120.491 79.041s100.227-32.57 120.491-79.041h20.318c4.143 0 7.5-3.358 7.5-7.5s-3.357-7.5-7.5-7.5h-14.817c3.454-11.646 5.387-24.565 5.387-37.338 0-12.582-1.893-25.56-5.387-37.338h70.798l-21.403 29.033c-3.661 4.967-3.662 11.642 0 16.609l21.403 29.033h-20.98c-4.143 0-7.5 3.358-7.5 7.5s3.357 7.5 7.5 7.5h22.969c5.311 0 10.098-2.944 12.492-7.685s1.925-10.34-1.227-14.615l-22.143-30.037 22.144-30.038c3.151-4.274 3.621-9.874 1.227-14.614zm-337.263 81.99h-70.798l21.403-29.033c3.662-4.968 3.661-11.643 0-16.609l-21.403-29.033h70.798c-3.456 11.651-5.387 24.483-5.387 37.338 0 12.768 1.919 25.643 5.387 37.337zm125.992 79.041c-64.2 0-116.379-52.239-116.379-116.379 0-63.913 51.962-116.378 116.379-116.378 64.277 0 116.379 52.317 116.379 116.378 0 64.135-52.174 116.379-116.379 116.379z" fill="#ffffff" data-original="#000000" class=""/></g></g></svg>
