<?xml version="1.0"?>
<svg xmlns="http://www.w3.org/2000/svg" xmlns:xlink="http://www.w3.org/1999/xlink" xmlns:svgjs="http://svgjs.com/svgjs" version="1.1" width="512px" height="512px" x="0" y="0" viewBox="0 0 512 512" style="enable-background:new 0 0 512 512" xml:space="preserve" class=""><g><g><path d="m276.263 441.032-50.871-23.124 52.218-26.109c12.569-6.285 18.125-21.443 12.649-34.51-4.536-10.824-6.836-22.263-6.836-33.999v-40.073c0-9.75-1.145-19.493-3.402-28.96-.961-4.029-5.001-6.517-9.035-5.556-4.029.961-6.517 5.006-5.556 9.035 1.986 8.328 2.993 16.901 2.993 25.48v40.073c0 13.737 2.692 27.127 8.002 39.797 2.476 5.908.102 12.483-5.523 15.295l-58.215 29.107c-.909-2.063-1.41-4.32-1.41-6.653v-23.15c24.102-15.637 40.081-42.782 40.081-73.59v-22.784c0-4.469-1.919-8.732-5.265-11.697-3.283-2.91-7.643-4.281-11.968-3.756-34.759 4.208-64.116-2.109-87.249-18.775-17.226-12.41-24.464-26.3-24.58-26.526-1.859-3.688-6.353-5.179-10.05-3.33-3.705 1.853-5.207 6.357-3.354 10.062.34.681 8.563 16.837 28.488 31.436 18.144 13.293 49.966 27.906 98.549 22.025.036-.004.101-.012.216.09.08.071.213.226.213.472v22.784c0 40.065-32.596 72.661-72.662 72.661-40.065 0-72.661-32.596-72.661-72.661v-22.104c0-4.42 1.721-8.576 4.847-11.701l8.988-8.989c2.929-2.929 2.929-7.678 0-10.607s-7.678-2.929-10.606 0l-8.988 8.988c-5.959 5.958-9.241 13.881-9.241 22.308v22.104c0 30.809 15.978 57.953 40.081 73.59v23.15c0 2.333-.501 4.59-1.41 6.653l-58.215-29.107c-5.625-2.812-7.999-9.388-5.523-15.294 5.311-12.669 8.003-26.06 8.003-39.797v-43.243c0-37.273 20.067-72.035 52.37-90.72 3.585-2.074 4.811-6.662 2.737-10.248-2.075-3.585-6.662-4.81-10.248-2.736-36.922 21.357-59.859 61.095-59.859 103.705v43.243c0 11.736-2.3 23.175-6.837 34-5.476 13.066.081 28.225 12.649 34.509l52.219 26.109-50.871 23.124c-14.089 6.404-23.192 20.542-23.192 36.018v27.45c0 4.142 3.358 7.5 7.5 7.5s7.5-3.358 7.5-7.5v-27.45c0-9.608 5.652-18.387 14.399-22.362l34.765-15.802 58.204 27.485c4.255 2.009 8.822 3.014 13.39 3.014 4.567 0 9.135-1.004 13.39-3.014l58.204-27.485 34.765 15.803c8.747 3.976 14.399 12.754 14.399 22.362v27.45c0 4.142 3.358 7.5 7.5 7.5s7.5-3.358 7.5-7.5v-27.45c.001-15.478-9.103-29.616-23.192-36.02zm-105.581 11.775c-4.438 2.096-9.53 2.096-13.969 0l-46.71-22.058 2.621-1.191c11.234-5.106 18.493-16.38 18.493-28.721v-15.362c10.078 4.049 21.073 6.282 32.581 6.282s22.503-2.233 32.581-6.282v15.362c0 12.341 7.259 23.615 18.494 28.72l2.621 1.191z" fill="#ffffff" data-original="#000000" class=""/><path d="m404.416 0c-43.917 0-79.646 35.729-79.646 79.646 0 43.916 35.729 79.645 79.646 79.645s79.645-35.729 79.645-79.645c0-43.917-35.729-79.646-79.645-79.646zm0 144.29c-35.646 0-64.646-28.999-64.646-64.645s29-64.645 64.646-64.645 64.645 29 64.645 64.646-29 64.644-64.645 64.644z" fill="#ffffff" data-original="#000000" class=""/><path d="m219.811 48.097c-52.757 0-95.678 42.921-95.678 95.678s42.921 95.677 95.678 95.677 95.677-42.92 95.677-95.677-42.921-95.678-95.677-95.678zm0 176.355c-44.486 0-80.678-36.192-80.678-80.677 0-44.486 36.192-80.678 80.678-80.678 44.485 0 80.677 36.192 80.677 80.678 0 44.485-36.192 80.677-80.677 80.677z" fill="#ffffff" data-original="#000000" class=""/><path d="m220.053 94.412c-14.037-.26-26.126 9.991-28.068 23.897-.177 1.273-.268 2.573-.268 3.863 0 4.143 3.358 7.5 7.5 7.5s7.5-3.357 7.5-7.5c0-.599.042-1.201.124-1.79.891-6.386 6.443-11.107 12.91-10.973 6.654.134 12.136 5.438 12.481 12.074.184 3.546-1.056 6.91-3.491 9.476-2.437 2.566-5.725 3.98-9.257 3.98-4.142 0-7.5 3.357-7.5 7.5v21.191c0 4.143 3.358 7.5 7.5 7.5s7.5-3.357 7.5-7.5v-14.733c4.777-1.348 9.172-3.964 12.635-7.61 5.296-5.578 7.992-12.887 7.593-20.581-.75-14.453-12.679-26.003-27.159-26.294z" fill="#ffffff" data-original="#000000" class=""/><path d="m405.177 34.174c-13.032-.25-24.249 9.272-26.051 22.185-.164 1.18-.247 2.385-.247 3.581 0 4.142 3.358 7.5 7.5 7.5s7.5-3.358 7.5-7.5c0-.507.035-1.018.104-1.512.752-5.387 5.432-9.358 10.892-9.256 5.614.113 10.239 4.587 10.529 10.185.155 2.992-.891 5.831-2.945 7.995-2.056 2.166-4.83 3.358-7.81 3.358-4.142 0-7.5 3.358-7.5 7.5v19.105c0 4.142 3.358 7.5 7.5 7.5s7.5-3.358 7.5-7.5v-12.73c4.226-1.292 8.104-3.658 11.188-6.905 4.915-5.177 7.417-11.96 7.047-19.101-.696-13.415-11.768-24.135-25.207-24.405z" fill="#ffffff" data-original="#000000" class=""/><path d="m361.976 186.381c-15.937-.322-29.594 11.316-31.793 27.067-.201 1.44-.303 2.913-.303 4.377 0 4.142 3.358 7.5 7.5 7.5s7.5-3.358 7.5-7.5c0-.773.054-1.548.159-2.304 1.148-8.231 8.265-14.337 16.635-14.144 8.575.172 15.641 7.008 16.085 15.562.237 4.567-1.361 8.902-4.499 12.207-3.14 3.308-7.377 5.129-11.93 5.129-4.142 0-7.5 3.358-7.5 7.5v25.045c0 4.142 3.358 7.5 7.5 7.5s7.5-3.358 7.5-7.5v-18.46c5.795-1.433 11.146-4.501 15.308-8.885 5.999-6.317 9.053-14.597 8.6-23.313-.849-16.369-14.362-29.45-30.762-29.781z" fill="#ffffff" data-original="#000000" class=""/><circle cx="219.435" cy="190.063" r="7.5" fill="#ffffff" data-original="#000000" class=""/><circle cx="404.65" cy="121.16" r="7.5" fill="#ffffff" data-original="#000000" class=""/><circle cx="361.33" cy="298.08" r="7.5" fill="#ffffff" data-original="#000000" class=""/></g></g></svg>
