<svg id="Icons" height="512" viewBox="0 0 60 60" width="512" xmlns="http://www.w3.org/2000/svg"><path d="m48.72 39h9.28a1 1 0 0 1 1 1v18a1 1 0 0 1 -1 1h-28z" fill="#6de08e"/><path d="m39.88 7.82-2.88 10.18-1 1h-12l-1-1-2.88-10.18a3 3 0 0 1 2.87-3.82h2.43a5 5 0 0 1 9.16 0h2.43a3 3 0 0 1 2.87 3.82z" fill="#a9725e"/><path d="m21 56.97a20.9 20.9 0 0 0 9 2.03c9.94 0 19-7.06 19-17 0-7.38-5.65-16.37-12-20l-1-1h-12l-1 1c-5.509 3.152-10.491 10.336-11.714 17l-.066 3.243a15.5 15.5 0 0 0 9.78 14.727z" fill="#a9725e"/><rect fill="#fde05e" height="4" rx="2" width="18" x="21" y="18"/><path d="m22 53a2 2 0 0 0 -2-2h-1a2 2 0 0 0 0-4 2 2 0 0 0 0-4 2 2 0 0 0 0-4h-16a2 2 0 0 0 0 4 2 2 0 0 0 0 4 2 2 0 0 0 0 4h1a2 2 0 0 0 0 4h-1a2 2 0 0 0 0 4h16a2 2 0 0 0 0-4h1a2 2 0 0 0 2-2z" fill="#fde05e"/><rect fill="#e3c84c" height="4" rx="2" width="20" x="2" y="51"/><rect fill="#e3c84c" height="4" rx="2" width="20" x="1" y="43"/><g fill="#5fc77d"><circle cx="54" cy="49" r="2"/><path d="m59 54v4a1 1 0 0 1 -1 1h-4a5 5 0 0 1 5-5z"/><path d="m59 40v4a5 5 0 0 1 -5-5h4a1 1 0 0 1 1 1z"/></g><path d="m31 39.1v-5.916a3 3 0 0 1 2 2.816 1 1 0 0 0 2 0 5.009 5.009 0 0 0 -4-4.9v-.1a1 1 0 0 0 -2 0v.1a5 5 0 0 0 0 9.8v5.917a3 3 0 0 1 -2-2.817 1 1 0 0 0 -2 0 5.009 5.009 0 0 0 4 4.9v.1a1 1 0 0 0 2 0v-.1a5 5 0 0 0 0-9.8zm-4-3.1a3 3 0 0 1 2-2.816v5.632a3 3 0 0 1 -2-2.816zm4 10.816v-5.632a2.982 2.982 0 0 1 0 5.632z" fill="#fde05e"/><path d="m36.92 5.6v4a1 1 0 1 1 -2 0v-4a3.867 3.867 0 0 0 -.34-1.6h2.12a5.723 5.723 0 0 1 .22 1.6z" fill="#925c4c"/><path d="m25.42 4a3.867 3.867 0 0 0 -.34 1.6v4a1 1 0 1 1 -2 0v-4a5.723 5.723 0 0 1 .22-1.6z" fill="#925c4c"/></svg>