<svg height="512pt" viewBox="-71 0 512 512.00036" width="512pt" xmlns="http://www.w3.org/2000/svg"><path d="m317.347656 476.089844-48.851562-13.792969c-3.703125-1.042969-7.636719.59375-9.492188 3.964844l-24.460937 44.480469c-.980469 1.785156-3.578125 1.636718-4.371094-.230469l-21.980469-52.523438-52.921875-126.453125 39.195313-93.632812 33.308594 13.9375 33.347656 79.6875 59.128906 141.285156c.78125 1.878906-.953125 3.828125-2.902344 3.277344zm0 0" fill="#ff4a4a"/><path d="m261.121094 331.527344-52.929688 126.460937-52.921875-126.453125 39.195313-93.632812 33.304687 13.9375zm0 0" fill="#ef3535"/><path d="m134.773438 510.742188-24.464844-44.476563c-1.851563-3.371094-5.785156-5.015625-9.484375-3.96875l-48.855469 13.792969c-1.953125.550781-3.683594-1.402344-2.898438-3.277344l102.96875-246.039062 90.070313 37.695312-102.96875 246.039062c-.785156 1.875-3.386719 2.015626-4.367187.234376zm0 0" fill="#ff4a4a"/><path d="m206.628906 7.890625 30.054688 24.773437c5.3125 4.378907 11.8125 7.070313 18.660156 7.730469l38.769531 3.730469c16.460938 1.585938 29.488281 14.613281 31.074219 31.074219l3.734375 38.769531c.660156 6.851562 3.351563 13.351562 7.730469 18.660156l24.773437 30.054688c10.519531 12.761718 10.519531 31.183594 0 43.945312l-24.773437 30.054688c-4.378906 5.308594-7.070313 11.808594-7.730469 18.660156l-3.734375 38.769531c-1.585938 16.460938-14.613281 29.488281-31.074219 31.074219l-38.769531 3.734375c-6.851562.660156-13.347656 3.351563-18.660156 7.726563l-30.054688 24.777343c-12.757812 10.515625-31.183594 10.515625-43.945312 0l-30.050782-24.777343c-5.3125-4.375-11.8125-7.066407-18.664062-7.726563l-38.765625-3.734375c-16.460937-1.585938-29.492187-14.613281-31.074219-31.074219l-3.734375-38.769531c-.660156-6.851562-3.351562-13.351562-7.730469-18.660156l-24.773437-30.054688c-10.519531-12.757812-10.519531-31.183594 0-43.945312l24.773437-30.050782c4.378907-5.3125 7.070313-11.8125 7.730469-18.664062l3.730469-38.769531c1.585938-16.457031 14.613281-29.488281 31.074219-31.070313l38.769531-3.734375c6.851562-.660156 13.351562-3.351562 18.660156-7.730469l30.054688-24.773437c12.761718-10.519531 31.1875-10.519531 43.945312 0zm0 0" fill="#ffd782"/><path d="m299.058594 184.65625c0 63.183594-51.21875 114.402344-114.402344 114.402344-63.179688 0-114.398438-51.21875-114.398438-114.402344 0-63.179688 51.21875-114.398438 114.398438-114.398438 63.183594 0 114.402344 51.21875 114.402344 114.398438zm0 0" fill="#ff8000"/><path d="m184.65625 70.257812c-9.917969 0-19.546875 1.261719-28.726562 3.636719 49.277343 12.742188 85.675781 57.5 85.675781 110.761719s-36.394531 98.019531-85.675781 110.761719c9.179687 2.375 18.808593 3.636719 28.726562 3.636719 63.183594 0 114.402344-51.21875 114.402344-114.398438 0-63.183594-51.21875-114.398438-114.402344-114.398438zm0 0" fill="#ff5f06"/><path d="m158.042969 242.785156c-4.269531 0-8.363281-1.695312-11.382813-4.714844l-34.171875-34.175781c-6.289062-6.285156-6.289062-16.480469 0-22.769531 6.285157-6.289062 16.480469-6.289062 22.769531 0l22.789063 22.789062 63.210937-63.214843c6.289063-6.285157 16.484376-6.285157 22.769532 0 6.289062 6.289062 6.289062 16.484375 0 22.773437l-74.597656 74.597656c-3.019532 3.019532-7.113282 4.714844-11.386719 4.714844zm0 0" fill="#fff"/></svg>