<svg xmlns="http://www.w3.org/2000/svg" width="155.369" height="163.685" viewBox="0 0 155.369 163.685">
  <g id="Companies" transform="translate(-956.631 -2567)">
    <circle id="Ellipse_655" data-name="Ellipse 655" cx="42" cy="42" r="42" transform="translate(1028 2567)" fill="#17ec1c" opacity="0.27"/>
    <g id="government_2_" data-name="government (2)" transform="translate(956.631 2588.313)">
      <path id="Path_15971" data-name="Path 15971" d="M238.643,96.752a6.71,6.71,0,1,0-6.709-6.709A6.717,6.717,0,0,0,238.643,96.752Zm0-9.238a2.528,2.528,0,1,1-2.528,2.529A2.531,2.531,0,0,1,238.643,87.514Zm0,0" transform="translate(-167.274 -59.741)" fill="#fff"/>
      <path id="Path_15972" data-name="Path 15972" d="M140.648,128.953H138.12v-7.146a2.091,2.091,0,0,0-2.091-2.091h-7.146V112.57a2.091,2.091,0,0,0-2.091-2.091h-2.527V64.722h2.527a2.091,2.091,0,0,0,2.091-2.091V55.485h7.146a2.091,2.091,0,0,0,2.091-2.091V44.158a2.091,2.091,0,0,0-2.091-2.091h-3.965L72.56.87a2.092,2.092,0,0,0-2.381,0l-59.5,41.2H6.709a2.091,2.091,0,0,0-2.091,2.091v9.237a2.091,2.091,0,0,0,2.091,2.091h7.146v7.146a2.091,2.091,0,0,0,2.091,2.091h2.528v45.757H15.946a2.091,2.091,0,0,0-2.091,2.091v7.146H6.709a2.091,2.091,0,0,0-2.091,2.091v7.146H2.091A2.09,2.09,0,0,0,0,131.044v9.236a2.09,2.09,0,0,0,2.091,2.091H140.648a2.09,2.09,0,0,0,2.091-2.091v-9.236a2.091,2.091,0,0,0-2.091-2.091ZM124.7,119.716H105.791v-5.055H124.7Zm-14.293-9.237V64.722h9.675v45.757ZM124.7,60.541H105.791V55.485H124.7Zm-21,4.182h2.526v45.757H103.7a2.09,2.09,0,0,0-2.091,2.091v7.146h-16.6V112.57a2.091,2.091,0,0,0-2.091-2.091H80.388V64.722h2.528a2.091,2.091,0,0,0,2.091-2.091V55.485h16.6v7.146A2.091,2.091,0,0,0,103.7,64.722ZM61.914,55.485H80.825v5.055H61.914Zm4.617,9.237h9.675v45.757H66.532Zm14.293,49.939v5.055H61.914v-5.055ZM8.8,46.248H45.288a2.091,2.091,0,0,0,0-4.182H18.022L71.369,5.133l53.348,36.934H53.652a2.091,2.091,0,1,0,0,4.182h80.286V51.3H8.8Zm9.237,9.237H36.949v5.055H18.037ZM32.33,64.722v45.757H22.655V64.722ZM18.037,114.661H36.949v5.055H18.037Zm21-4.182H36.512V64.722H39.04a2.091,2.091,0,0,0,2.091-2.091V55.485h16.6v7.146a2.091,2.091,0,0,0,2.091,2.091H62.35v45.757H59.823a2.09,2.09,0,0,0-2.091,2.091v7.146h-16.6V112.57A2.091,2.091,0,0,0,39.04,110.479ZM8.8,123.9H133.938v5.055H8.8ZM138.557,138.19H4.182v-5.055H138.557Zm0,0" fill="#fff"/>
    </g>
  </g>
</svg>
