<svg xmlns="http://www.w3.org/2000/svg" width="170.249" height="167.497" viewBox="0 0 170.249 167.497">
  <g id="Companies" transform="translate(-606.751 -2567)">
    <circle id="Ellipse_654" data-name="Ellipse 654" cx="42" cy="42" r="42" transform="translate(693 2567)" fill="#17ec1c" opacity="0.27"/>
    <g id="enterprise" transform="translate(606.751 2585)">
      <g id="Group_11413" data-name="Group 11413" transform="translate(52.41 49.832)">
        <g id="Group_11412" data-name="Group 11412" transform="translate(0)">
          <rect id="Rectangle_17434" data-name="Rectangle 17434" width="6" height="5" transform="translate(-0.41 0.168)" fill="#fff"/>
        </g>
      </g>
      <g id="Group_11415" data-name="Group 11415" transform="translate(52.41 60.142)">
        <g id="Group_11414" data-name="Group 11414" transform="translate(0 0)">
          <rect id="Rectangle_17435" data-name="Rectangle 17435" width="6" height="4" transform="translate(-0.41 -0.143)" fill="#fff"/>
        </g>
      </g>
      <g id="Group_11417" data-name="Group 11417" transform="translate(52.41 69.593)">
        <g id="Group_11416" data-name="Group 11416" transform="translate(0 0)">
          <rect id="Rectangle_17436" data-name="Rectangle 17436" width="6" height="5" transform="translate(-0.41 0.406)" fill="#fff"/>
        </g>
      </g>
      <g id="Group_11419" data-name="Group 11419" transform="translate(52.41 79.904)">
        <g id="Group_11418" data-name="Group 11418" transform="translate(0 0)">
          <rect id="Rectangle_17437" data-name="Rectangle 17437" width="6" height="5" transform="translate(-0.41 0.097)" fill="#fff"/>
        </g>
      </g>
      <g id="Group_11421" data-name="Group 11421" transform="translate(62.72 49.832)">
        <g id="Group_11420" data-name="Group 11420" transform="translate(0)">
          <rect id="Rectangle_17438" data-name="Rectangle 17438" width="4" height="5" transform="translate(0.28 0.168)" fill="#fff"/>
        </g>
      </g>
      <g id="Group_11423" data-name="Group 11423" transform="translate(62.72 60.142)">
        <g id="Group_11422" data-name="Group 11422" transform="translate(0 0)">
          <rect id="Rectangle_17439" data-name="Rectangle 17439" width="4" height="4" transform="translate(0.28 -0.143)" fill="#fff"/>
        </g>
      </g>
      <g id="Group_11425" data-name="Group 11425" transform="translate(62.72 69.593)">
        <g id="Group_11424" data-name="Group 11424" transform="translate(0 0)">
          <rect id="Rectangle_17440" data-name="Rectangle 17440" width="4" height="5" transform="translate(0.28 0.406)" fill="#fff"/>
        </g>
      </g>
      <g id="Group_11427" data-name="Group 11427" transform="translate(62.72 79.904)">
        <g id="Group_11426" data-name="Group 11426" transform="translate(0 0)">
          <rect id="Rectangle_17441" data-name="Rectangle 17441" width="4" height="5" transform="translate(0.28 0.097)" fill="#fff"/>
        </g>
      </g>
      <g id="Group_11429" data-name="Group 11429" transform="translate(72.171 49.832)">
        <g id="Group_11428" data-name="Group 11428" transform="translate(0)">
          <rect id="Rectangle_17442" data-name="Rectangle 17442" width="5" height="5" transform="translate(-0.171 0.168)" fill="#fff"/>
        </g>
      </g>
      <g id="Group_11431" data-name="Group 11431" transform="translate(72.171 60.142)">
        <g id="Group_11430" data-name="Group 11430" transform="translate(0 0)">
          <rect id="Rectangle_17443" data-name="Rectangle 17443" width="5" height="4" transform="translate(-0.171 -0.143)" fill="#fff"/>
        </g>
      </g>
      <g id="Group_11433" data-name="Group 11433" transform="translate(72.171 69.593)">
        <g id="Group_11432" data-name="Group 11432" transform="translate(0 0)">
          <rect id="Rectangle_17444" data-name="Rectangle 17444" width="5" height="5" transform="translate(-0.171 0.406)" fill="#fff"/>
        </g>
      </g>
      <g id="Group_11435" data-name="Group 11435" transform="translate(72.171 79.904)">
        <g id="Group_11434" data-name="Group 11434" transform="translate(0 0)">
          <rect id="Rectangle_17445" data-name="Rectangle 17445" width="5" height="5" transform="translate(-0.171 0.097)" fill="#fff"/>
        </g>
      </g>
      <g id="Group_11437" data-name="Group 11437" transform="translate(82.481 49.832)">
        <g id="Group_11436" data-name="Group 11436" transform="translate(0)">
          <rect id="Rectangle_17446" data-name="Rectangle 17446" width="5" height="5" transform="translate(-0.481 0.168)" fill="#fff"/>
        </g>
      </g>
      <g id="Group_11439" data-name="Group 11439" transform="translate(62.72 39.522)">
        <g id="Group_11438" data-name="Group 11438" transform="translate(0 0)">
          <rect id="Rectangle_17447" data-name="Rectangle 17447" width="4" height="5" transform="translate(0.28 0.479)" fill="#fff"/>
        </g>
      </g>
      <g id="Group_11441" data-name="Group 11441" transform="translate(72.171 39.522)">
        <g id="Group_11440" data-name="Group 11440" transform="translate(0 0)">
          <rect id="Rectangle_17448" data-name="Rectangle 17448" width="5" height="5" transform="translate(-0.171 0.479)" fill="#fff"/>
        </g>
      </g>
      <g id="Group_11443" data-name="Group 11443" transform="translate(82.481 39.522)">
        <g id="Group_11442" data-name="Group 11442" transform="translate(0 0)">
          <rect id="Rectangle_17449" data-name="Rectangle 17449" width="5" height="5" transform="translate(-0.481 0.479)" fill="#fff"/>
        </g>
      </g>
      <g id="Group_11445" data-name="Group 11445" transform="translate(82.481 60.142)">
        <g id="Group_11444" data-name="Group 11444" transform="translate(0 0)">
          <rect id="Rectangle_17450" data-name="Rectangle 17450" width="5" height="4" transform="translate(-0.481 -0.143)" fill="#fff"/>
        </g>
      </g>
      <g id="Group_11447" data-name="Group 11447" transform="translate(82.481 69.593)">
        <g id="Group_11446" data-name="Group 11446" transform="translate(0 0)">
          <rect id="Rectangle_17451" data-name="Rectangle 17451" width="5" height="5" transform="translate(-0.481 0.406)" fill="#fff"/>
        </g>
      </g>
      <g id="Group_11449" data-name="Group 11449" transform="translate(82.481 79.904)">
        <g id="Group_11448" data-name="Group 11448" transform="translate(0 0)">
          <rect id="Rectangle_17452" data-name="Rectangle 17452" width="5" height="5" transform="translate(-0.481 0.097)" fill="#fff"/>
        </g>
      </g>
      <g id="Group_11451" data-name="Group 11451" transform="translate(91.932 49.832)">
        <g id="Group_11450" data-name="Group 11450" transform="translate(0)">
          <rect id="Rectangle_17453" data-name="Rectangle 17453" width="5" height="5" transform="translate(0.068 0.168)" fill="#fff"/>
        </g>
      </g>
      <g id="Group_11453" data-name="Group 11453" transform="translate(91.932 60.142)">
        <g id="Group_11452" data-name="Group 11452" transform="translate(0 0)">
          <rect id="Rectangle_17454" data-name="Rectangle 17454" width="5" height="4" transform="translate(0.068 -0.143)" fill="#fff"/>
        </g>
      </g>
      <g id="Group_11455" data-name="Group 11455" transform="translate(91.932 69.593)">
        <g id="Group_11454" data-name="Group 11454" transform="translate(0 0)">
          <rect id="Rectangle_17455" data-name="Rectangle 17455" width="5" height="5" transform="translate(0.068 0.406)" fill="#fff"/>
        </g>
      </g>
      <g id="Group_11457" data-name="Group 11457" transform="translate(91.932 79.904)">
        <g id="Group_11456" data-name="Group 11456" transform="translate(0 0)">
          <rect id="Rectangle_17456" data-name="Rectangle 17456" width="5" height="5" transform="translate(0.068 0.097)" fill="#fff"/>
        </g>
      </g>
      <g id="Group_11459" data-name="Group 11459" transform="translate(0 0)">
        <g id="Group_11458" data-name="Group 11458" transform="translate(0 0)">
          <path id="Path_15969" data-name="Path 15969" d="M147.008,37.374H109.631V2.492A2.49,2.49,0,0,0,107.142,0H42.358a2.49,2.49,0,0,0-2.492,2.489V37.374H2.492A2.49,2.49,0,0,0,0,39.863v89.7a2.49,2.49,0,0,0,2.489,2.492H7.7a14.952,14.952,0,0,0-.225,2.492v12.458A2.49,2.49,0,0,0,9.964,149.5H139.531a2.49,2.49,0,0,0,2.492-2.489V134.547a14.886,14.886,0,0,0-.225-2.492h5.208a2.49,2.49,0,0,0,2.492-2.489v-89.7A2.49,2.49,0,0,0,147.008,37.374ZM107.14,107.14a4.983,4.983,0,1,1-4.983-4.983A4.983,4.983,0,0,1,107.14,107.14Zm-59.8-4.983a4.983,4.983,0,1,1-4.983,4.983A4.983,4.983,0,0,1,47.341,102.156Zm-14.95,42.358H12.458v-9.966a9.966,9.966,0,1,1,19.933,0Zm-14.95-29.9a4.983,4.983,0,1,1,4.983,4.983A4.983,4.983,0,0,1,17.441,114.614Zm15.327,9.164a15.02,15.02,0,0,0-3.134-2.32,9.967,9.967,0,1,0-14.419,0A15.046,15.046,0,0,0,9.5,127.072H4.983V42.358H39.866v58.259a9.831,9.831,0,0,0,.265,13.368A14.992,14.992,0,0,0,32.769,123.779Zm24.539,20.735H37.374V127.073a9.966,9.966,0,1,1,19.933,0Zm29.9,0H62.29V127.073a12.458,12.458,0,1,1,24.916,0ZM67.274,102.156a7.475,7.475,0,1,1,7.475,7.475A7.475,7.475,0,0,1,67.274,102.156Zm22.649,16.35a17.55,17.55,0,0,0-7.149-6.9,12.458,12.458,0,1,0-16.052,0,17.55,17.55,0,0,0-7.149,6.9,15.049,15.049,0,0,0-5.024-4.522,9.895,9.895,0,0,0-9.7-16.457V4.983h59.8V97.527a9.923,9.923,0,0,0-9.7,16.457A15.049,15.049,0,0,0,89.923,118.506Zm22.2,16.041v9.966H92.19V127.073a9.966,9.966,0,1,1,19.933,0Zm24.916,9.966H117.106v-9.966a9.966,9.966,0,1,1,19.933,0Zm-14.95-29.9a4.983,4.983,0,1,1,4.983,4.983A4.983,4.983,0,0,1,122.089,114.614Zm22.425,12.458H140a15.046,15.046,0,0,0-5.718-5.614,9.967,9.967,0,1,0-14.419,0,15.011,15.011,0,0,0-3.134,2.32,14.991,14.991,0,0,0-7.363-9.795,9.831,9.831,0,0,0,.266-13.368V42.358h34.883v84.715Z" transform="translate(0 0)" fill="#fff"/>
        </g>
      </g>
      <g id="Group_11461" data-name="Group 11461" transform="translate(116.848 57.565)">
        <g id="Group_11460" data-name="Group 11460" transform="translate(0 0)">
          <rect id="Rectangle_17457" data-name="Rectangle 17457" width="5" height="39" transform="translate(0.152 0.436)" fill="#fff"/>
        </g>
      </g>
      <g id="Group_11463" data-name="Group 11463" transform="translate(132.314 57.565)">
        <g id="Group_11462" data-name="Group 11462" transform="translate(0 0)">
          <rect id="Rectangle_17458" data-name="Rectangle 17458" width="5" height="39" transform="translate(-0.313 0.436)" fill="#fff"/>
        </g>
      </g>
      <g id="Group_11465" data-name="Group 11465" transform="translate(12.888 57.565)">
        <g id="Group_11464" data-name="Group 11464" transform="translate(0 0)">
          <rect id="Rectangle_17459" data-name="Rectangle 17459" width="4" height="39" transform="translate(0.112 0.436)" fill="#fff"/>
        </g>
      </g>
      <g id="Group_11467" data-name="Group 11467" transform="translate(27.494 57.565)">
        <g id="Group_11466" data-name="Group 11466" transform="translate(0 0)">
          <rect id="Rectangle_17460" data-name="Rectangle 17460" width="6" height="39" transform="translate(-0.494 0.436)" fill="#fff"/>
        </g>
      </g>
      <g id="Group_11469" data-name="Group 11469" transform="translate(57.307 9.966)">
        <g id="Group_11468" data-name="Group 11468">
          <path id="Path_15970" data-name="Path 15970" d="M216.394,32h-29.9A2.49,2.49,0,0,0,184,34.489V54.425a2.49,2.49,0,0,0,2.489,2.492h29.9a2.49,2.49,0,0,0,2.492-2.489V34.492A2.49,2.49,0,0,0,216.394,32ZM213.9,51.933H188.983V36.983H213.9Z" transform="translate(-184 -32)" fill="#fff"/>
        </g>
      </g>
    </g>
  </g>
</svg>
