<svg xmlns="http://www.w3.org/2000/svg" width="169.906" height="167.497" viewBox="0 0 169.906 167.497">
  <g id="Universities" transform="translate(-268.094 -2567)">
    <circle id="Ellipse_653" data-name="Ellipse 653" cx="42" cy="42" r="42" transform="translate(354 2567)" fill="#17ec1c" opacity="0.27"/>
    <g id="_20-Education" data-name="20-Education" transform="translate(266.093 2585)">
      <path id="Path_15955" data-name="Path 15955" d="M36,47h4.672v4.672H36Z" transform="translate(45.419 62.787)" fill="#fff"/>
      <path id="Path_15956" data-name="Path 15956" d="M76.741,70.7H25.351a16.351,16.351,0,0,1,0-32.7h98.108a2.336,2.336,0,0,1,2.336,2.336v7.008a2.336,2.336,0,0,1-2.336,2.336H27.687a4.672,4.672,0,0,0,0,9.344H67.4v4.672H27.687a9.344,9.344,0,1,1,0-18.687h93.436V42.672H25.351a11.679,11.679,0,0,0,0,23.359h51.39Z" transform="translate(9.35 50.764)" fill="#fff"/>
      <path id="Path_15957" data-name="Path 15957" d="M68.687,58.679H50V54.008H66.351V51.672H50V47H68.687a2.336,2.336,0,0,1,2.336,2.336v7.008A2.336,2.336,0,0,1,68.687,58.679Z" transform="translate(64.122 62.787)" fill="#fff"/>
      <path id="Path_15958" data-name="Path 15958" d="M55,42h4.672V56.015H55Z" transform="translate(70.801 56.107)" fill="#fff"/>
      <path id="Path_15959" data-name="Path 15959" d="M119.459,58.7H21.351a16.351,16.351,0,0,1,0-32.7v4.672a11.679,11.679,0,0,0,0,23.359h95.772V51.695H23.687a9.344,9.344,0,0,1,0-18.687H44.71v4.672H23.687a4.672,4.672,0,0,0,0,9.344h95.772a2.336,2.336,0,0,1,2.336,2.336v7.008A2.336,2.336,0,0,1,119.459,58.7Z" transform="translate(4.006 34.733)" fill="#fff"/>
      <path id="Path_15960" data-name="Path 15960" d="M70.031,37.679H42V33.008H67.695V30.672H65.359V26h4.672a2.336,2.336,0,0,1,2.336,2.336v7.008A2.336,2.336,0,0,1,70.031,37.679Z" transform="translate(53.435 34.733)" fill="#fff"/>
      <path id="Path_15961" data-name="Path 15961" d="M51,30h4.672V44.015H51Z" transform="translate(65.458 40.076)" fill="#fff"/>
      <path id="Path_15962" data-name="Path 15962" d="M119.459,82.7H21.351a16.351,16.351,0,1,1,0-32.7H82.085v4.672H21.351a11.68,11.68,0,0,0,0,23.359h95.772V75.695H23.687a9.344,9.344,0,0,1,0-18.687h93.436V54.672h-7.008V50h9.344a2.336,2.336,0,0,1,2.336,2.336v7.008a2.336,2.336,0,0,1-2.336,2.336H23.687a4.672,4.672,0,1,0,0,9.344h95.772a2.336,2.336,0,0,1,2.336,2.336v7.008A2.336,2.336,0,0,1,119.459,82.7Z" transform="translate(4.006 66.794)" fill="#fff"/>
      <path id="Path_15963" data-name="Path 15963" d="M51,54h4.672V68.015H51Z" transform="translate(65.458 72.138)" fill="#fff"/>
      <path id="Path_15964" data-name="Path 15964" d="M72.076,51.389a2.369,2.369,0,0,1-.762-.128L3.573,27.9a2.336,2.336,0,0,1,0-4.415L71.314.128a2.336,2.336,0,0,1,1.523,0l67.741,23.359a2.336,2.336,0,0,1,0,4.415L72.837,51.261A2.369,2.369,0,0,1,72.076,51.389ZM11.5,25.694,72.076,46.582l60.577-20.888L72.076,4.807Z" transform="translate(0 0)" fill="#fff"/>
      <path id="Path_15965" data-name="Path 15965" d="M57.382,54.71c-35.258,0-43.66-12.214-44-12.735A2.352,2.352,0,0,1,13,40.695V15h4.672V39.861c1.887,2,11.3,10.178,39.71,10.178,28.346,0,37.779-8.127,39.71-10.185V15h4.672V40.695a2.352,2.352,0,0,1-.381,1.28C101.042,42.5,92.64,54.71,57.382,54.71Z" transform="translate(14.693 20.038)" fill="#fff"/>
      <path id="Path_15966" data-name="Path 15966" d="M59,11h4.672V29.687H59Z" transform="translate(76.145 14.694)" fill="#fff"/>
      <path id="Path_15967" data-name="Path 15967" d="M68.282,46.037H62.419a6.426,6.426,0,0,1-5.139-2.49,6.073,6.073,0,0,1-1.086-5.274c.021-.075.044-.152.07-.234l6.884-18.521a2.336,2.336,0,0,1,4.38,0l6.886,18.521c.026.072.049.149.07.234A6.073,6.073,0,0,1,73.4,43.547a6.426,6.426,0,0,1-5.116,2.49Zm-7.575-6.5a1.42,1.42,0,0,0,.283,1.152,1.782,1.782,0,0,0,1.43.673h5.863a1.782,1.782,0,0,0,1.43-.673,1.42,1.42,0,0,0,.283-1.152L65.35,27.047Z" transform="translate(72.131 24.039)" fill="#fff"/>
      <path id="Path_15968" data-name="Path 15968" d="M60.023,62.687a2.336,2.336,0,0,1-1.4-.467l-7.942-5.957L42.737,62.22A2.336,2.336,0,0,1,39,60.351V46.336A2.336,2.336,0,0,1,41.336,44H60.023a2.336,2.336,0,0,1,2.336,2.336V60.351A2.336,2.336,0,0,1,60.023,62.687ZM50.679,51.008a2.336,2.336,0,0,1,1.4.467l5.606,4.2V48.672H43.672v7.008l5.606-4.2a2.336,2.336,0,0,1,1.4-.467Z" transform="translate(49.427 58.779)" fill="#fff"/>
    </g>
  </g>
</svg>
