<svg xmlns="http://www.w3.org/2000/svg" width="78" height="78" viewBox="0 0 78 78">
  <g id="Countries" transform="translate(-991 -1421)">
    <rect id="Rectangle_17376" data-name="Rectangle 17376" width="78" height="78" rx="11" transform="translate(991 1421)" fill="#1d2636"/>
    <g id="world" transform="translate(999.927 1433)">
      <g id="Group_11390" data-name="Group 11390" transform="translate(4.073)">
        <g id="Group_11389" data-name="Group 11389">
          <path id="Path_15927" data-name="Path 15927" d="M50.647,12.054a10.7,10.7,0,0,0,1.243-4.54A7.511,7.511,0,0,0,38.006,3.535a25.14,25.14,0,0,0-4.477-.879.788.788,0,1,0-.161,1.568,23.572,23.572,0,0,1,3.937.748,7.479,7.479,0,0,0-.443,2.542c0,5.31,6.673,12.044,6.957,12.328a.8.8,0,0,0,1.115,0,35.994,35.994,0,0,0,4.892-6.272,23.362,23.362,0,0,1,3.624,7.055l-11.433,1.2a.789.789,0,0,0-.523.279c-.118.142-2.915,3.5-4.347,5.655a7.478,7.478,0,0,0-4.28,1.706l-.149-.891L31.7,22.517a.789.789,0,0,0-.271-.474l-6.1-5.115a.788.788,0,0,0-.409-.178l-6.246-.781a7.548,7.548,0,0,0-4.735-4.659A23.38,23.38,0,0,1,29.8,4.125a.788.788,0,1,0-.073-1.575,25.108,25.108,0,0,0-17.6,8.4c-.179-.013-.359-.022-.541-.022a7.523,7.523,0,0,0-7.514,7.514,12.267,12.267,0,0,0,1.916,5.8,25.489,25.489,0,0,0-.235,3.447,25.17,25.17,0,0,0,42.967,17.8,25.17,25.17,0,0,0,1.925-33.435Zm-6.271,6.085c-1.574-1.708-5.938-6.789-5.938-10.625a5.938,5.938,0,1,1,11.875,0C50.314,11.351,45.95,16.431,44.376,18.139ZM37.65,29.321a5.944,5.944,0,0,1,5.938,5.938c0,3.837-4.363,8.917-5.938,10.625-1.574-1.708-5.938-6.789-5.938-10.625A5.945,5.945,0,0,1,37.65,29.321Zm-32-10.877a5.938,5.938,0,1,1,11.876,0c0,3.837-4.363,8.917-5.938,10.625C10.013,27.361,5.649,22.28,5.649,18.444Zm1.681,9.248q0-.654.036-1.309a37.287,37.287,0,0,0,3.663,4.389.8.8,0,0,0,1.115,0,37.265,37.265,0,0,0,3.81-4.6l3.075,6.918a.788.788,0,0,0,.315.356l4.539,2.723-2.038,6.177-5.28,4.05A23.567,23.567,0,0,1,7.331,27.692ZM17.9,47.357,23,43.451a.789.789,0,0,0,.269-.378l2.312-7.006a.788.788,0,0,0-.343-.923l-4.866-2.92L16.979,24.6A12.73,12.73,0,0,0,19.1,18.444a7.571,7.571,0,0,0-.048-.838l5.447.681,5.695,4.778.968,5.773.349,2.1a7.469,7.469,0,0,0-1.376,4.326,9.247,9.247,0,0,0,.68,3.249l-2.219,6.3-7.53,4.315A23.6,23.6,0,0,1,17.9,47.357Zm13.02,3.928a23.483,23.483,0,0,1-8.012-1.4l6.723-3.852a.788.788,0,0,0,.352-.422l1.781-5.058a34.967,34.967,0,0,0,5.326,7.035.8.8,0,0,0,1.115,0c.221-.221,4.32-4.357,6.12-8.685l6.444,1.534A23.6,23.6,0,0,1,30.924,51.285Zm13.924-13.88a8.137,8.137,0,0,0,.316-2.146,7.525,7.525,0,0,0-6.172-7.392c1.21-1.692,2.926-3.8,3.509-4.5l11.372-1.2a23.792,23.792,0,0,1,.644,5.526,23.447,23.447,0,0,1-2.9,11.325Z" transform="translate(-4.073)" fill="#a7a7a7"/>
        </g>
      </g>
      <g id="Group_11392" data-name="Group 11392" transform="translate(33.499 31.107)">
        <g id="Group_11391" data-name="Group 11391">
          <path id="Path_15928" data-name="Path 15928" d="M293.232,301.3a4.151,4.151,0,1,0,4.151,4.151A4.156,4.156,0,0,0,293.232,301.3Zm0,6.726a2.575,2.575,0,1,1,2.575-2.575A2.578,2.578,0,0,1,293.232,308.022Z" transform="translate(-289.081 -301.296)" fill="#a7a7a7"/>
        </g>
      </g>
      <g id="Group_11394" data-name="Group 11394" transform="translate(40.225 3.363)">
        <g id="Group_11393" data-name="Group 11393">
          <path id="Path_15929" data-name="Path 15929" d="M358.377,32.573a4.151,4.151,0,1,0,4.151,4.151A4.156,4.156,0,0,0,358.377,32.573Zm0,6.726a2.575,2.575,0,1,1,2.575-2.575A2.578,2.578,0,0,1,358.377,39.3Z" transform="translate(-354.226 -32.573)" fill="#a7a7a7"/>
        </g>
      </g>
      <g id="Group_11396" data-name="Group 11396" transform="translate(7.436 14.293)">
        <g id="Group_11395" data-name="Group 11395">
          <path id="Path_15930" data-name="Path 15930" d="M40.8,138.433a4.151,4.151,0,1,0,4.151,4.151A4.156,4.156,0,0,0,40.8,138.433Zm0,6.726a2.575,2.575,0,1,1,2.575-2.575A2.578,2.578,0,0,1,40.8,145.159Z" transform="translate(-36.644 -138.433)" fill="#a7a7a7"/>
        </g>
      </g>
    </g>
  </g>
</svg>
