<svg id="Layer_1" height="512" viewBox="0 0 64 64" width="512" xmlns="http://www.w3.org/2000/svg" data-name="Layer 1"><path d="m3.014 29.343a36.755 36.755 0 0 0 19.986-10.343 36.793 36.793 0 0 0 7.644 5.865l-3.361 2.535.961 7.493-4.2 6.1 7.956-4.235-.023-7.028 4.019-2.314a36.523 36.523 0 0 0 6.991 1.927l2.013.338c-1.451 12.646-8.087 23.094-18.307 30.605l-3.693 2.714-4.608-3.565c-9.668-7.479-15.935-17.544-17.392-29.724v-.03z" fill="#5a6c80"/><path d="m36 15h4l-3 7 10-7h15a1 1 0 0 0 1-1v-12a1 1 0 0 0 -1-1h-26a1 1 0 0 0 -1 1v12a1 1 0 0 0 1 1z" fill="#d9575d"/><g fill="#6c8199"><path d="m40 24h2v2h-2z"/><path d="m46 25h2v2h-2z"/><path d="m45 20h2v2h-2z"/><path d="m29 16h2v2h-2z"/><path d="m31 20h2v2h-2z"/></g><g fill="#f2f2f2"><path d="m44.071 5.879-1.414-1.415-2.121 2.122-2.122-2.122-1.414 1.415 2.121 2.121-2.121 2.121 1.414 1.415 2.122-2.122 2.121 2.122 1.414-1.415-2.121-2.121z"/><path d="m52.536 5.879-1.415-1.415-2.121 2.122-2.121-2.122-1.415 1.415 2.122 2.121-2.122 2.121 1.415 1.415 2.121-2.122 2.121 2.122 1.415-1.415-2.122-2.121z"/><path d="m61 5.879-1.414-1.415-2.122 2.122-2.121-2.122-1.414 1.415 2.121 2.121-2.121 2.121 1.414 1.415 2.121-2.122 2.122 2.122 1.414-1.415-2.121-2.121z"/></g><path d="m15.61 54.727a42.152 42.152 0 0 1 -8-10.244l1.751-.966a40.186 40.186 0 0 0 7.621 9.756z" fill="#6c8199"/><path d="m19.213 57.807q-.957-.743-1.863-1.516l1.3-1.52q.87.742 1.788 1.454z" fill="#6c8199"/></svg>