<svg clip-rule="evenodd" fill-rule="evenodd" height="512" image-rendering="optimizeQuality" shape-rendering="geometricPrecision" text-rendering="geometricPrecision" viewBox="0 0 1707 1707" width="512" xmlns="http://www.w3.org/2000/svg"><g id="Layer_x0020_1"><g id="_541675424"><path d="m1454 1614c-3 0-6-1-9-2-6-3-10-10-11-17-1-15-13-26-28-26h-44c-11 0-20-9-20-20v-520c0-48-40-87-88-87h-190c-8 0-15-5-19-13-3-7-1-16 5-21l116-110c4-3 9-5 14-5h8 5c8 3 218 58 294 220 6 12 12 24 18 37 71 149 169 354 28 502-21 22-44 42-67 58-4 3-8 4-12 4z" fill="#2a4d5e"/><path d="m319 1650c-2 0-5 0-7-1-49-19-95-52-138-97-141-148-43-353 28-502 6-13 12-25 18-37 75-162 285-217 294-220h5 8c5 0 10 2 14 5l115 110c6 5 8 14 5 21-3 8-10 13-18 13h-125c-47 0-86 39-86 86v521c0 11-9 20-20 20h-45c-15 0-28 12-28 27v34c0 7-3 13-9 17-3 2-7 3-11 3z" fill="#2a4d5e"/><path d="m1064 942h-421c-5 0-10-2-14-5l-258-244c-4-4-6-9-6-14 0-6 2-11 6-15l36-34s1 0 1-1c97-76 266-122 454-122 153 0 297 31 396 85 1 1 3 2 4 3l73 69c4 4 7 9 7 15 0 5-3 10-7 14l-257 244c-4 3-9 5-14 5z" fill="#1e3744"/><path d="m391 712-20-19c-4-4-6-9-6-14 0-6 2-11 6-15l36-34s1 0 1-1c97-76 266-122 454-122 153 0 297 31 396 85 1 1 3 2 4 3l73 69c4 4 7 9 7 15 0 5-3 10-7 14l-14 14c-3-2-6-4-8-6-44-50-114-83-176-102-88-28-184-39-275-39-92 0-188 11-275 39-63 19-133 52-177 102-5 6-12 9-19 11z" fill="#1b323d"/><path d="m935 942h-143c-3 0-7-1-9-2-117-63-190-242-190-372 0-4 0-8 0-12 1-9 7-17 15-19 77-20 165-30 254-30 90 0 179 11 256 31 9 2 15 10 15 19v11c0 130-72 309-189 372-3 1-6 2-9 2z" fill="#e8c7b2"/><path d="m594 596c0-9-1-19-1-28 0-4 0-8 0-12 1-9 7-17 15-19 77-20 165-30 254-30 90 0 179 11 256 31 9 2 15 10 15 19v11c0 9 0 19-1 29-86-26-180-37-270-37-89 0-182 11-268 36z" fill="#eab3a0"/><path d="m711 632c-45 0-84-32-93-77-2-11 4-21 15-24 48-10 98-18 151-21 11-1 21 7 22 18v7c0 54-43 97-95 97z" fill="#fff"/><path d="m630 586c-6-9-10-20-12-31s4-21 15-24c48-10 98-18 151-21 11-1 21 7 22 18v7c0 9-1 18-4 27-58 3-116 11-172 24z" fill="#e6e6e6"/><path d="m1016 632c-53 0-95-43-95-97 0-2 0-4 0-7 0-5 3-10 7-13 4-4 9-6 14-5 53 4 104 11 152 22 10 3 17 13 15 24-10 44-49 76-93 76z" fill="#fff"/><path d="m924 562c-2-8-3-17-3-27 0-2 0-4 0-7 0-5 3-10 7-13 4-4 9-6 14-5 53 4 104 11 152 22 10 3 17 13 15 24-3 11-7 22-13 31-56-14-114-22-172-25z" fill="#e6e6e6"/><path d="m1362 1569h-84c-11 0-20-9-20-20v-19h-124v19c0 11-9 20-20 20h-455c-11 0-20-9-20-20v-19h-123v19c0 11-9 20-20 20h-84c-11 0-20-9-20-20v-521c0-69 56-126 126-126h736c71 0 128 57 128 127v520c0 11-9 20-20 20z" fill="#3291bc"/><path d="m920 802h-114c-11 0-20-9-20-20s9-20 20-20h114c11 0 20 9 20 20s-9 20-20 20z" fill="#333"/><path d="m976 1488h-179c-38 0-68-30-68-68v-87c-46-38-73-92-73-148 0-111 104-202 231-202s230 91 230 202c0 56-26 110-72 148v86c0 38-31 69-69 69z" fill="#6aafce"/><g fill="#3291bc"><path d="m833 1521c-11 0-20-9-20-20v-104c0-11 9-20 20-20s20 9 20 20v104c0 11-8 20-20 20z"/><path d="m940 1521c-11 0-20-9-20-20v-104c0-11 9-20 20-20s20 9 20 20v104c0 11-9 20-20 20z"/><path d="m801 1118c16 0 31 7 42 17 10 11 17 26 17 42s-7 31-17 41c-11 11-26 17-42 17s-31-6-41-17c-11-10-17-25-17-41s6-31 17-42c10-10 25-17 41-17z" fill-rule="nonzero"/><path d="m972 1118c16 0 31 7 42 17 10 11 17 26 17 42s-7 31-17 41c-11 11-26 17-42 17s-31-6-41-17c-11-10-17-25-17-41s6-31 17-42c10-10 25-17 41-17z" fill-rule="nonzero"/></g><circle cx="1019" cy="557" fill="#333" r="40"/><path d="m1019 517c22 0 40 18 40 40 0 7-2 15-6 21-24-5-48-9-72-11-1-3-1-7-1-10 0-22 17-40 39-40z" fill="#2e2e2e"/><circle cx="707" cy="557" fill="#333" r="40"/><path d="m707 517c22 0 40 18 40 40 0 3 0 6-1 9-25 3-49 7-73 11-4-6-6-13-6-20 0-22 18-40 40-40z" fill="#2e2e2e"/><path d="m1338 699c-5 0-11-3-15-7-78-90-255-145-461-145-207 0-384 55-462 145-5 6-14 8-22 6-8-3-13-10-13-19 0-6-15-608 494-679h5c509 71 494 673 494 679 0 9-5 16-13 19-2 0-4 1-7 1z" fill="#2a4d5e"/><path d="m659 1607h-163c-12 0-20-9-20-20v-77c0-11 8-20 20-20h163c11 0 20 9 20 20v77c0 11-9 20-20 20z"/><path d="m1278 1607h-164c-11 0-20-9-20-20v-77c0-11 9-20 20-20h164c11 0 20 9 20 20v77c0 11-9 20-20 20z"/><path d="m1406 1707h-1039c-37 0-68-31-68-68v-43c0-37 31-67 68-67h1039c38 0 68 30 68 67v43c0 37-30 68-68 68z" fill="#025d7f"/><path d="m659 1607h-163c-12 0-20-9-20-20v-77c0-11 8-20 20-20h163c11 0 20 9 20 20v77c0 11-9 20-20 20z" fill="#6aafce"/><path d="m1278 1607h-164c-11 0-20-9-20-20v-77c0-11 9-20 20-20h164c11 0 20 9 20 20v77c0 11-9 20-20 20z" fill="#6aafce"/><path d="m801 1118c-16 0-31 7-41 17-11 11-17 26-17 42s6 31 17 41c-3-7-5-15-5-23 0-16 6-31 17-42 11-10 25-17 42-17 16 0 30 7 41 17-3-6-7-13-12-18-11-10-26-17-42-17z" fill="#2b799b"/><path d="m972 1118c-16 0-31 7-41 17-11 11-17 26-17 42s6 31 17 41c-3-7-5-15-5-23 0-16 7-31 17-42 11-10 25-17 42-17 16 0 30 7 41 17-3-6-7-13-12-18-11-10-26-17-42-17z" fill="#2b799b"/></g></g></svg>