<svg xmlns="http://www.w3.org/2000/svg" width="153.852" height="156.029" viewBox="0 0 153.852 156.029">
  <g id="Defence" transform="translate(-994.148 -3448)">
    <circle id="Ellipse_662" data-name="Ellipse 662" cx="42" cy="42" r="42" transform="translate(1064 3448)" fill="#17ec1c" opacity="0.27"/>
    <g id="shield_4_" data-name="shield (4)" transform="translate(957.128 3467.595)">
      <path id="Path_15976" data-name="Path 15976" d="M151.06,26A23.36,23.36,0,0,1,127.726,2.665,2.665,2.665,0,0,0,125.061,0H65.683a2.665,2.665,0,0,0-2.665,2.665A23.36,23.36,0,0,1,39.685,26a2.665,2.665,0,0,0-2.665,2.665V56.642c0,38.457,18.768,64.5,57.377,79.609a2.664,2.664,0,0,0,1.942,0c38.614-15.111,57.385-41.152,57.385-79.609V28.664A2.665,2.665,0,0,0,151.06,26ZM148.4,56.642c0,35.687-17.35,59.989-53.027,74.262C59.7,116.63,42.349,92.328,42.349,56.642V31.206A28.712,28.712,0,0,0,68.225,5.329h54.294a28.712,28.712,0,0,0,25.876,25.876V56.642Z" fill="#fff"/>
      <path id="Path_15977" data-name="Path 15977" d="M150,45.831a2.665,2.665,0,0,0-2.533-1.838H107.819a2.665,2.665,0,0,0-2.533,1.838A35.156,35.156,0,0,1,82.852,68.265,2.665,2.665,0,0,0,81.014,70.8V88.912c0,16.592,3.844,30.1,11.753,41.3,7.495,10.613,18.556,18.984,33.814,25.591a2.666,2.666,0,0,0,2.118,0c15.261-6.606,26.324-14.977,33.82-25.591,7.909-11.2,11.754-24.708,11.754-41.3V70.8a2.665,2.665,0,0,0-1.838-2.533A35.154,35.154,0,0,1,150,45.831Zm18.943,43.081c0,12.963-2.55,24.015-7.812,33.4l-6.943-15.461a2.665,2.665,0,0,0-2.431-1.573H137.5a2.665,2.665,0,1,0,0,5.329h12.536L157.7,127.67a56.435,56.435,0,0,1-4.547,5.492L146.6,118.57A2.665,2.665,0,0,0,144.166,117H121.475a9.485,9.485,0,1,0,0,5.329h20.966l6.636,14.779q-2.426,2.145-5.158,4.126l-4.907-10.937a2.665,2.665,0,0,0-2.431-1.574H125.109a2.665,2.665,0,1,0,0,5.329h9.748l4.573,10.195a96.2,96.2,0,0,1-11.791,6.2c-28.168-12.533-41.3-32.114-41.3-61.536V85.806h14.39l12.022,12.03a2.664,2.664,0,0,0,1.885.781h26.006a2.664,2.664,0,0,0,1.885-.781l12.022-12.03h14.39v3.106Zm-52.413,30.75a4.152,4.152,0,1,1-4.156-4.156A4.161,4.161,0,0,1,116.53,119.661Zm52.413-39.185H153.449a2.664,2.664,0,0,0-1.885.781l-12.022,12.03h-23.8l-12.022-12.03a2.664,2.664,0,0,0-1.885-.781H86.343V72.682a40.438,40.438,0,0,0,14.63-9.668l4.06,9.035a2.665,2.665,0,0,0,2.431,1.572h22.691a9.484,9.484,0,1,0,0-5.329H109.188l-4.415-9.824a40.258,40.258,0,0,0,4.929-9.146h35.882a40.539,40.539,0,0,0,23.359,23.359v7.794ZM135.1,70.957a4.152,4.152,0,1,1,4.156,4.148A4.161,4.161,0,0,1,135.1,70.957Z" transform="translate(-32.271 -32.27)" fill="#fff"/>
    </g>
  </g>
</svg>
