<svg id="Capa_1" enable-background="new 0 0 511.999 511.999" height="512" viewBox="0 0 511.999 511.999" width="512" xmlns="http://www.w3.org/2000/svg"><g><g><path d="m456.865 97.575h-401.73c-20.634 0-37.361 16.727-37.361 37.361v292.138l238.226 27.878 238.225-27.877v-292.139c0-20.634-16.727-37.361-37.36-37.361z" fill="#7a8c98"/><path d="m499.243 427.074h-486.487c-8.448 0-14.559 8.068-12.272 16.2l2.257 8.026c5.244 18.646 22.25 31.528 41.619 31.528h423.278c19.369 0 36.375-12.883 41.619-31.528l2.257-8.026c2.289-8.132-3.823-16.2-12.271-16.2z" fill="#7a8c98"/><g fill="#596c76"><path d="m511.515 443.268-2.256 8.025c-5.244 18.646-22.252 31.534-41.619 31.534h-48.676c19.367 0 36.376-12.888 41.619-31.534l2.256-8.025c2.287-8.128-3.832-16.195-12.28-16.195h-432.788v-14.216h413.385c6.54 0 11.842-5.302 11.842-11.842v-266.08c0-20.635-16.73-37.354-37.365-37.354h51.231c20.636 0 37.365 16.729 37.365 37.365v292.128h5.017c8.447 0 14.556 8.066 12.269 16.194z"/><path d="m309.973 454.952h-107.947c-9.64 0-17.455-7.815-17.455-17.455v-10.422h142.857v10.422c0 9.64-7.815 17.455-17.455 17.455z"/></g></g><path d="m463.323 155.366v213.906c0 9.673-5.099 18.142-12.764 22.87-2.308 1.442-4.852 2.524-7.561 3.204-2.102.525-4.306.814-6.573.814h-360.851c-14.855 0-26.898-12.033-26.898-26.888v-213.906c0-14.855 12.043-26.888 26.898-26.888h360.851c2.112 0 4.162.247 6.13.701 2.833.659 5.501 1.772 7.912 3.255 7.715 4.718 12.856 13.228 12.856 22.932z" fill="#eef5f6"/><path d="m463.323 155.366v213.906c0 9.673-5.099 18.142-12.764 22.87-2.308 1.442-4.852 2.524-7.561 3.204v-260.419c0-1.957-.155-3.873-.443-5.748 2.833.659 5.501 1.772 7.912 3.255 7.715 4.718 12.856 13.228 12.856 22.932z" fill="#d9e7ec"/><g><g fill="#ffe177"><path d="m171.023 35.867c-8.929-8.929-23.406-8.929-32.335 0-6.053 6.053-7.989 14.652-5.836 22.347-7.695-2.153-16.294-.217-22.347 5.836-8.929 8.929-8.929 23.406 0 32.335 8.342 8.342 21.525 8.885 30.504 1.639l44.006 44.006 31.653-31.653-44.006-44.006c7.246-8.979 6.703-22.161-1.639-30.504z"/><path d="m340.975 326.856c8.929 8.929 23.406 8.929 32.335 0 6.053-6.053 7.989-14.652 5.836-22.347 7.695 2.153 16.294.217 22.347-5.836 8.929-8.929 8.929-23.406 0-32.335-8.342-8.342-21.525-8.885-30.504-1.639l-44.006-44.006-31.653 31.653 44.006 44.006c-7.246 8.979-6.703 22.161 1.639 30.504z"/><path d="m401.493 96.385c8.929-8.929 8.929-23.406 0-32.335-6.053-6.053-14.652-7.989-22.347-5.836 2.153-7.695.217-16.294-5.836-22.347-8.929-8.929-23.406-8.929-32.335 0-8.342 8.342-8.885 21.525-1.639 30.504l-44.006 44.006 31.653 31.653 44.006-44.006c8.98 7.246 22.162 6.704 30.504-1.639z"/><path d="m110.505 266.338c-8.929 8.929-8.929 23.406 0 32.335 6.053 6.053 14.652 7.989 22.347 5.836-2.153 7.695-.217 16.294 5.836 22.347 8.929 8.929 23.406 8.929 32.335 0 8.342-8.342 8.885-21.525 1.639-30.504l44.006-44.006-31.653-31.653-44.006 44.006c-8.979-7.247-22.162-6.704-30.504 1.639z"/></g><path d="m362.457 225.282c0 17.075-13.846 30.922-30.922 30.922h-15.197v27.211c0 7.023-5.696 12.73-12.719 12.73h-95.243c-7.023 0-12.719-5.707-12.719-12.73v-27.211h-15.197c-8.538 0-16.265-3.464-21.867-9.054-5.59-5.602-9.055-13.329-9.055-21.867 0-11.814 6.635-22.067 16.371-27.281-5.602-12.401-8.749-26.142-8.749-40.634 0-56.793 47.903-102.407 105.518-98.613 48.091 3.159 87.398 41.491 91.743 89.5 1.609 17.839-1.574 34.773-8.338 49.747 4.874 2.607 8.961 6.471 11.838 11.168 2.88 4.685 4.536 10.205 4.536 16.112z" fill="#fe646f"/><path d="m362.457 225.282c0 17.075-13.846 30.922-30.922 30.922h-15.197c11.427-25.578-11.415-36.112-20.27-44.967 30.44-61.244 2.584-142.993-33.388-152.482 48.091 3.159 87.398 41.491 91.743 89.5 1.609 17.839-1.574 34.773-8.338 49.747 4.874 2.607 8.961 6.471 11.838 11.168 2.878 4.685 4.534 10.205 4.534 16.112z" fill="#fd4755"/><g fill="#596c76"><g><path d="m235.22 197.015c10.145 5.036 9.704 19.741-.773 24.043-8.528 3.502-18.465 3.453-27.371-.968-8.907-4.421-14.954-12.306-17.32-21.217-2.907-10.946 8.539-20.188 18.684-15.152z"/><path d="m276.778 197.015c-10.145 5.036-9.704 19.741.773 24.043 8.528 3.502 18.465 3.453 27.371-.968 8.907-4.421 14.954-12.306 17.32-21.217 2.907-10.946-8.539-20.188-18.684-15.152z"/></g><path d="m247.06 240.311-9.625 16.67c-3.973 6.881.993 15.483 8.939 15.483h19.249c7.946 0 12.912-8.601 8.939-15.483l-9.625-16.67c-3.972-6.881-13.904-6.881-17.877 0z"/></g></g></g></svg>