<svg xmlns="http://www.w3.org/2000/svg" width="161.662" height="161.746" viewBox="0 0 161.662 161.746">
  <g id="Oil_Gas" data-name="Oil &amp; Gas" transform="translate(-615.338 -1720)">
    <g id="natural-gas" transform="translate(615.338 1733)">
      <path id="Path_15928" data-name="Path 15928" d="M145.121,184.734a1.13,1.13,0,1,0-.4-1.548A1.13,1.13,0,0,0,145.121,184.734Z" transform="translate(-137.298 -161.983)" fill="#fff"/>
      <path id="Path_15929" data-name="Path 15929" d="M115.664,15.717a1.137,1.137,0,0,0-2.187.251c-.476,3.372-2.369,11.86-5.849,15.585A76.7,76.7,0,0,0,106.309,21.3a56.591,56.591,0,0,0-3.27-10.955A31.52,31.52,0,0,0,96.614.337a1.137,1.137,0,0,0-1.933.638c-.108.745-.288,1.983-.313,2.131A51.308,51.308,0,0,1,90.1,16.89a1.137,1.137,0,0,0,2.046.993A53.431,53.431,0,0,0,96.573,3.706c4.25,5.3,6.414,12.564,7.5,17.993a71.466,71.466,0,0,1,1.37,12.136,1.148,1.148,0,0,0,1.683.992c2.755-1.506,5.043-5.12,6.8-10.74.41-1.31.741-2.573,1-3.686,2.219,6.736,3.131,12.717,2.714,17.822-.412,5.048-2.1,9.147-5.029,12.184a16.255,16.255,0,0,1-2.81,2.321c1.052-2.426,1.309-6.119-.915-11.645a1.137,1.137,0,0,0-2.177.246,16.194,16.194,0,0,1-1.174,3.876c-.371-2.892-1.4-7.284-4.27-10a1.148,1.148,0,0,0-1.894.59,28.54,28.54,0,0,1-2.285,6.54c-.288.518-.68,1.1-1.1,1.726a19.612,19.612,0,0,0-1.763,2.988,7.167,7.167,0,0,0-.169,5.548,7.467,7.467,0,0,0,1.562,2.436c-.2-.058-.4-.119-.591-.185a21.229,21.229,0,0,1-3.846-1.765,16.961,16.961,0,0,1-7.248-21.495,31.887,31.887,0,0,1,2.849-5.014,1.137,1.137,0,1,0-1.89-1.265,33.962,33.962,0,0,0-3.047,5.377A19.234,19.234,0,0,0,90.03,55.044,23.518,23.518,0,0,0,94.289,57a17.63,17.63,0,0,0,5.672.884,20.74,20.74,0,0,0,4.257-.441,19.356,19.356,0,0,0,10.032-5.456c3.3-3.424,5.2-7.992,5.658-13.576.523-6.406-.9-14.041-4.244-22.692ZM96.318,47.942a18.159,18.159,0,0,1,1.562-2.616c.443-.662.861-1.287,1.195-1.888a25.234,25.234,0,0,0,1.951-4.952c2.431,3.835,2.444,9.531,2.444,9.6a1.148,1.148,0,0,0,1.662,1.015,6.924,6.924,0,0,0,2.781-3.649c.814,3.495.393,6.231-1.261,8.019a6.4,6.4,0,0,1-3.633,1.892,6.134,6.134,0,0,1-4.233-.723,5.691,5.691,0,0,1-2.6-2.853,4.9,4.9,0,0,1,.137-3.841Z" transform="translate(-80.284 0)" fill="#fff"/>
    </g>
    <circle id="Ellipse_654" data-name="Ellipse 654" cx="42" cy="42" r="42" transform="translate(693 1720)" fill="#17ec1c" opacity="0.27"/>
    <g id="oil" transform="translate(633.858 1752.135)">
      <path id="Path_15936" data-name="Path 15936" d="M79.29,153.97a7.509,7.509,0,0,0,4.293-1.35l34.724-24.038a7.579,7.579,0,0,0-8.415-12.6L74.377,138.827A7.579,7.579,0,0,0,72.171,149.4l.794,1.192a7.524,7.524,0,0,0,4.885,3.241,7.645,7.645,0,0,0,1.439.137Zm-2.328-6.038-.794-1.195a2.78,2.78,0,0,1,.8-3.874l35.517-22.848a2.778,2.778,0,0,1,3.085,4.62L80.851,148.673a2.776,2.776,0,0,1-3.89-.74Zm0,0" transform="translate(-55.579 -81.568)" fill="#fff"/>
      <path id="Path_15937" data-name="Path 15937" d="M144.938,102.37c0-10.262-14.59-30.309-19.2-36.39V47.356a10.4,10.4,0,0,0-7.341-9.908V28.98a8.651,8.651,0,0,0-8.64-8.64H95.691a8.651,8.651,0,0,0-8.64,8.64v7.949h-1.38a10.374,10.374,0,0,0-5.83,1.783l-44.4,29.941a18.389,18.389,0,0,0-8.117,15.266v50.148A15.9,15.9,0,0,0,43.213,149.95h66.638a15.9,15.9,0,0,0,15.886-15.885v-9.629a22.324,22.324,0,0,0,19.2-22.067ZM91.853,28.98a3.845,3.845,0,0,1,3.839-3.84h14.064a3.845,3.845,0,0,1,3.839,3.84v7.949H91.853Zm18,116.171H43.212a11.1,11.1,0,0,1-11.085-11.085V83.918a13.6,13.6,0,0,1,6-11.287l44.4-29.942a5.6,5.6,0,0,1,3.144-.961h29.64a5.635,5.635,0,0,1,5.626,5.627V64.243c-.06.06-.144.085-.2.152-2.09,2.677-20.416,26.485-20.416,37.974a22.324,22.324,0,0,0,20.614,22.223v9.474a11.1,11.1,0,0,1-11.085,11.083Zm12.78-25.272a17.528,17.528,0,0,1-17.507-17.508c0-7.488,11.3-24.2,17.507-32.535,6.212,8.334,17.507,25.042,17.507,32.535A17.529,17.529,0,0,1,122.631,119.878Zm0,0" transform="translate(-27.328 -20.339)" fill="#fff"/>
      <path id="Path_15940" data-name="Path 15940" d="M303.353,242.2a2.4,2.4,0,0,0-2.4,2.4,8.411,8.411,0,0,1-8.4,8.4,2.4,2.4,0,0,0,0,4.8,13.216,13.216,0,0,0,13.2-13.2A2.4,2.4,0,0,0,303.353,242.2Zm0,0" transform="translate(-197.744 -164.197)" fill="#fff"/>
      <path id="Path_15941" data-name="Path 15941" d="M141.571,327.539H91.165a2.4,2.4,0,0,0,0,4.8h50.406a2.4,2.4,0,0,0,0-4.8Zm0,0" transform="translate(-67.164 -219.529)" fill="#fff"/>
    </g>
  </g>
</svg>
