<svg xmlns="http://www.w3.org/2000/svg" width="172.25" height="167.497" viewBox="0 0 172.25 167.497">
  <g id="Power" transform="translate(-265.75 -1720)">
    <circle id="Ellipse_653" data-name="Ellipse 653" cx="42" cy="42" r="42" transform="translate(354 1720)" fill="#17ec1c" opacity="0.27"/>
    <g id="electric-tower" transform="translate(265.75 1737.995)">
      <g id="Group_11393" data-name="Group 11393" transform="translate(0 0.005)">
        <path id="Path_15927" data-name="Path 15927" d="M144.39,136.07H111.51L90.844,93.834v-6.07H126.43v4.378h-2.19a2.19,2.19,0,0,0,0,4.38h2.19v4.38h-2.19a2.19,2.19,0,0,0,0,4.38H133a2.19,2.19,0,0,0,0-4.38h-2.19v-4.38H133a2.19,2.19,0,0,0,0-4.38h-2.19c0-2.371,0-7.961,0-10.3a9.549,9.549,0,0,0-5.324-8.527L90.844,56.4V51.174h12.9a2.19,2.19,0,0,0,0-4.38h-12.9V24.681l32.719,15.984a5.142,5.142,0,0,1,2.867,4.591v1.538H113.97a2.19,2.19,0,0,0,0,4.38h12.46v4.38h-2.19a2.19,2.19,0,0,0,0,4.38H133a2.19,2.19,0,0,0,0-4.38h-2.19v-6.57c0-.006,0-.011,0-.017V45.256a9.549,9.549,0,0,0-5.324-8.527L90.316,19.549l-7-15.163H97.381a.731.731,0,0,1,.73.73V8.773H95.923a2.19,2.19,0,1,0,0,4.38h8.76a2.19,2.19,0,0,0,0-4.38h-2.191V5.113A5.116,5.116,0,0,0,97.381.005H52.121a5.116,5.116,0,0,0-5.11,5.11v3.65h-2.19a2.19,2.19,0,1,0,0,4.38h8.76a2.19,2.19,0,0,0,0-4.38h-2.19V5.116a.731.731,0,0,1,.73-.73H66.183l-7,15.162-14.1,6.888a2.19,2.19,0,0,0,1.923,3.935l11.645-5.689V46.794H23.071V45.257a5.142,5.142,0,0,1,2.867-4.591l11.89-5.809a2.19,2.19,0,1,0-1.922-3.935L24.015,36.73a9.549,9.549,0,0,0-5.324,8.526v3.726h0v6.57H16.5a2.19,2.19,0,0,0,0,4.38h8.76a2.19,2.19,0,1,0,0-4.38h-2.19v-4.38H58.655V56.4L24.015,73.321a9.549,9.549,0,0,0-5.324,8.526V92.142H16.5a2.19,2.19,0,0,0,0,4.38h2.19v4.38H16.5a2.19,2.19,0,0,0,0,4.38h8.76a2.19,2.19,0,0,0,0-4.38h-2.19v-4.38h2.19a2.19,2.19,0,1,0,0-4.38h-2.19V87.764H38.885a2.19,2.19,0,0,0,0-4.38H23.071V81.848a5.142,5.142,0,0,1,2.867-4.591L58.654,61.273V83.385H49.148a2.19,2.19,0,1,0,0,4.38h9.506v6.073L37.99,136.07H5.11A5.116,5.116,0,0,0,0,141.18v3.212a5.116,5.116,0,0,0,5.11,5.11H144.39a5.116,5.116,0,0,0,5.11-5.11V141.18A5.116,5.116,0,0,0,144.39,136.07Zm-42.818,0-8.637-9.54a2.19,2.19,0,1,0-3.247,2.94l5.976,6.6H53.837l20.913-23.1,8.066,8.911a2.19,2.19,0,0,0,3.247-2.939L77.7,109.7,88.109,98.21l18.525,37.86ZM86.464,87.764v4.39H63.034v-4.39Zm-20.332-4.38,8.618-8.618,8.618,8.618H66.132ZM77.847,71.67l8.617-8.617V80.287Zm8.617-20.5v4.4H63.034v-4.4Zm-20.331-4.38,8.617-8.617,8.617,8.617ZM83.368,59.955,74.75,68.573l-8.618-8.618ZM77.847,35.08l8.617-8.617V43.7Zm-3.1-3.1-8.619-8.619H83.369Zm-3.1,3.1L63.034,43.7V26.462Zm0,36.59-8.619,8.618V63.051ZM83.719,96.534l-8.969,9.908-8.969-9.908Zm42.711-14.687v1.537H90.844V61.272l32.719,15.984A5.142,5.142,0,0,1,126.429,81.847ZM78.493,4.385l6.738,14.6H64.269l6.738-14.6ZM61.391,98.21,71.8,109.7,47.929,136.07H42.866Zm83.729,46.182a.731.731,0,0,1-.73.73H5.11a.731.731,0,0,1-.73-.73V141.18a.731.731,0,0,1,.73-.73H144.39a.731.731,0,0,1,.73.73Z" transform="translate(0 -0.005)" fill="#fff"/>
      </g>
    </g>
  </g>
</svg>
