<svg xmlns="http://www.w3.org/2000/svg" width="140.169" height="163.685" viewBox="0 0 140.169 163.685">
  <g id="Railways" transform="translate(-971.831 -1720)">
    <circle id="Ellipse_655" data-name="Ellipse 655" cx="42" cy="42" r="42" transform="translate(1028 1720)" fill="#17ec1c" opacity="0.27"/>
    <g id="Train" transform="translate(959.831 1737.813)">
      <path id="Path_15942" data-name="Path 15942" d="M95.6,115.471H29.734A17.756,17.756,0,0,1,12,97.737v-76A17.756,17.756,0,0,1,29.734,4H95.6a17.756,17.756,0,0,1,17.734,17.734v76A17.756,17.756,0,0,1,95.6,115.471ZM29.734,9.067A12.682,12.682,0,0,0,17.067,21.734v76A12.682,12.682,0,0,0,29.734,110.4H95.6a12.682,12.682,0,0,0,12.667-12.667v-76A12.682,12.682,0,0,0,95.6,9.067Z" transform="translate(0 0)" fill="#fff"/>
      <path id="Path_15943" data-name="Path 15943" d="M53.868,13.067H28.533a2.533,2.533,0,0,1,0-5.067H53.868a2.533,2.533,0,0,1,0,5.067Z" transform="translate(21.468 6.134)" fill="#fff"/>
      <circle id="Ellipse_651" data-name="Ellipse 651" cx="2.372" cy="2.372" r="2.372" transform="translate(37.623 14.439)" fill="#fff"/>
      <circle id="Ellipse_652" data-name="Ellipse 652" cx="2.372" cy="2.372" r="2.372" transform="translate(83.175 14.439)" fill="#fff"/>
      <path id="Path_15944" data-name="Path 15944" d="M89.47,47.468H23.6a7.609,7.609,0,0,1-7.6-7.6V19.6A7.609,7.609,0,0,1,23.6,12H89.47a7.609,7.609,0,0,1,7.6,7.6V39.868a7.609,7.609,0,0,1-7.6,7.6ZM23.6,17.067A2.535,2.535,0,0,0,21.067,19.6V39.868A2.535,2.535,0,0,0,23.6,42.4H89.47A2.535,2.535,0,0,0,92,39.868V19.6a2.535,2.535,0,0,0-2.533-2.533Z" transform="translate(6.134 12.267)" fill="#fff"/>
      <path id="Path_15945" data-name="Path 15945" d="M33.533,47.468A2.533,2.533,0,0,1,31,44.935v-30.4a2.533,2.533,0,0,1,5.067,0v30.4A2.533,2.533,0,0,1,33.533,47.468Z" transform="translate(29.135 12.267)" fill="#fff"/>
      <path id="Path_15946" data-name="Path 15946" d="M26.134,50.267A10.134,10.134,0,1,1,36.267,40.134,10.134,10.134,0,0,1,26.134,50.267Zm0-15.2A5.067,5.067,0,1,0,31.2,40.134a5.067,5.067,0,0,0-5.067-5.067Z" transform="translate(6.134 39.869)" fill="#fff"/>
      <path id="Path_15947" data-name="Path 15947" d="M50.134,50.267A10.134,10.134,0,1,1,60.268,40.134,10.134,10.134,0,0,1,50.134,50.267Zm0-15.2A5.067,5.067,0,1,0,55.2,40.134a5.067,5.067,0,0,0-5.067-5.067Z" transform="translate(42.936 39.869)" fill="#fff"/>
      <path id="Path_15948" data-name="Path 15948" d="M109.381,47.067h-94.5a2.533,2.533,0,1,1,0-5.067h94.5a2.533,2.533,0,0,1,0,5.067Z" transform="translate(0.537 58.271)" fill="#fff"/>
      <path id="Path_15949" data-name="Path 15949" d="M53.868,36.067H28.533a2.533,2.533,0,0,1,0-5.067H53.868a2.533,2.533,0,0,1,0,5.067Z" transform="translate(21.468 41.403)" fill="#fff"/>
      <path id="Path_15950" data-name="Path 15950" d="M45.734,40.067h-15.2a2.533,2.533,0,0,1,0-5.067h15.2a2.533,2.533,0,0,1,0,5.067Z" transform="translate(24.535 47.537)" fill="#fff"/>
      <path id="Path_15951" data-name="Path 15951" d="M16.531,81.469A2.533,2.533,0,0,1,14.267,77.8l15.2-30.4A2.534,2.534,0,1,1,34,49.667l-15.2,30.4a2.533,2.533,0,0,1-2.269,1.4Z" transform="translate(3.067 64.404)" fill="#fff"/>
      <path id="Path_15952" data-name="Path 15952" d="M59.737,81.469a2.533,2.533,0,0,1-2.269-1.4l-15.2-30.4A2.534,2.534,0,1,1,46.8,47.4L62,77.8a2.533,2.533,0,0,1-2.264,3.667Z" transform="translate(46.003 64.404)" fill="#fff"/>
      <path id="Path_15953" data-name="Path 15953" d="M86.4,55.067H20.533a2.533,2.533,0,0,1,0-5.067H86.4a2.533,2.533,0,1,1,0,5.067Z" transform="translate(9.201 70.538)" fill="#fff"/>
      <path id="Path_15954" data-name="Path 15954" d="M98.6,61.067H17.533a2.533,2.533,0,1,1,0-5.067H98.6a2.533,2.533,0,0,1,0,5.067Z" transform="translate(4.6 79.739)" fill="#fff"/>
    </g>
  </g>
</svg>
