<svg xmlns="http://www.w3.org/2000/svg" width="78" height="78" viewBox="0 0 78 78">
  <g id="Customers" transform="translate(-229 -1421)">
    <rect id="Rectangle_17373" data-name="Rectangle 17373" width="78" height="78" rx="11" transform="translate(229 1421)" fill="#1d2636"/>
    <g id="target_2_" data-name="target (2)" transform="translate(242 1433)">
      <g id="Group_11388" data-name="Group 11388" transform="translate(0 0)">
        <path id="Path_15921" data-name="Path 15921" d="M149.5,181.158a4.757,4.757,0,0,0,1.88-.386,5.3,5.3,0,0,1,3.4,4.93.77.77,0,0,0,1.541,0,6.849,6.849,0,0,0-3.455-5.93A4.793,4.793,0,0,0,154,177.981a4.815,4.815,0,0,0,.87.082,4.756,4.756,0,0,0,1.88-.386,5.283,5.283,0,0,1,3.4,4.931.77.77,0,0,0,1.541,0,6.829,6.829,0,0,0-3.455-5.93,4.781,4.781,0,1,0-7.867-5,4.728,4.728,0,0,0-1.738,0,4.785,4.785,0,0,0-6.134-2.891.77.77,0,0,0,.525,1.448,3.245,3.245,0,0,1,4.159,1.963,4.785,4.785,0,0,0-2.463,4.18c0,.03,0,.06,0,.09a3.24,3.24,0,0,1-3.668-4.212.77.77,0,0,0-1.461-.488,4.775,4.775,0,0,0,1.172,4.911,6.8,6.8,0,0,0-3.454,5.931.77.77,0,0,0,1.541,0,5.269,5.269,0,0,1,3.223-4.862.777.777,0,0,0,.145-.081,4.736,4.736,0,0,0,2.778.317,4.793,4.793,0,0,0,1.142,1.792,6.849,6.849,0,0,0-3.455,5.93.77.77,0,1,0,1.541,0,5.3,5.3,0,0,1,3.4-4.931,4.753,4.753,0,0,0,1.88.386Zm5.374-11.118a3.241,3.241,0,1,1-.594,6.426c0-.03,0-.06,0-.09a4.785,4.785,0,0,0-2.463-4.18A3.237,3.237,0,0,1,154.873,170.04Zm-5.374,3.1a3.241,3.241,0,1,1-3.241,3.241A3.245,3.245,0,0,1,149.5,173.135Z" transform="translate(-123.206 -151.193)" fill="#a7a7a7"/>
        <path id="Path_15922" data-name="Path 15922" d="M51.816,25.523H50.325A24.041,24.041,0,0,0,27.064,2.261V.77a.77.77,0,1,0-1.541,0V2.261A24.041,24.041,0,0,0,2.261,25.523H.77a.77.77,0,1,0,0,1.541h1.49A24.03,24.03,0,0,0,14.925,47.485a.77.77,0,0,0,.729-1.357A22.492,22.492,0,0,1,3.8,27.064H6.739a19.5,19.5,0,0,0,5.189,12.506l-.262.262a.77.77,0,0,0,1.089,1.089l.262-.262a19.5,19.5,0,0,0,12.506,5.189v2.936a22.408,22.408,0,0,1-6.8-1.292.77.77,0,0,0-.518,1.451,23.949,23.949,0,0,0,7.316,1.382v1.491a.77.77,0,0,0,1.541,0V50.325A24.041,24.041,0,0,0,50.325,27.064h1.491a.77.77,0,0,0,0-1.541ZM25.523,3.8V6.739a19.5,19.5,0,0,0-12.506,5.189l-.262-.262a.77.77,0,1,0-1.089,1.089l.262.262A19.5,19.5,0,0,0,6.739,25.523H3.8A22.532,22.532,0,0,1,25.523,3.8ZM14.107,39.569l.843-.843a.77.77,0,1,0-1.089-1.089l-.843.843A17.962,17.962,0,0,1,8.28,27.064h1.95a.77.77,0,1,0,0-1.541H8.28a17.961,17.961,0,0,1,4.737-11.416l.843.843a.77.77,0,1,0,1.089-1.089l-.843-.843A17.961,17.961,0,0,1,25.523,8.281v1.95a.77.77,0,0,0,1.541,0V8.282A18.127,18.127,0,0,1,38.48,13.017l-.843.843a.77.77,0,0,0,1.089,1.089l.844-.844a17.909,17.909,0,0,1,2.256,3.029.77.77,0,1,0,1.326-.784,19.634,19.634,0,0,0-2.489-3.338l.258-.258a.77.77,0,1,0-1.089-1.089l-.257.257A19.48,19.48,0,0,0,27.064,6.739V3.8a22.532,22.532,0,0,1,21.72,21.72H45.849A19.482,19.482,0,0,0,44.7,19.637a.77.77,0,0,0-1.449.524,17.943,17.943,0,0,1,1.054,5.362H42.356a.77.77,0,0,0,0,1.541h1.95A17.961,17.961,0,0,1,39.569,38.48l-.843-.843a.77.77,0,0,0-1.089,1.089l.843.843a17.961,17.961,0,0,1-11.416,4.737v-1.95a.77.77,0,1,0-1.541,0v1.95a17.961,17.961,0,0,1-11.416-4.737Zm12.957,9.214V45.848a19.5,19.5,0,0,0,12.506-5.189l.262.262a.77.77,0,0,0,1.089-1.089l-.262-.262a19.5,19.5,0,0,0,5.189-12.506h2.936a22.532,22.532,0,0,1-21.72,21.72Z" transform="translate(0 0)" fill="#a7a7a7"/>
      </g>
    </g>
  </g>
</svg>
