<svg xmlns="http://www.w3.org/2000/svg" width="93.339" height="93.339" viewBox="0 0 93.339 93.339">
  <g id="mission" transform="translate(-210.402 -3410.831)">
    <rect id="Rectangle_17387" data-name="Rectangle 17387" width="92" height="92" rx="2" transform="translate(211 3411)" fill="#0e1526"/>
    <g id="target_3_" data-name="target (3)" transform="translate(231.331 3431.344)">
      <path id="Path_15932" data-name="Path 15932" d="M45.417,12.62a1.85,1.85,0,0,0,1.308-.542l5.123-5.123a1.127,1.127,0,0,0-.726-1.92L48.4,4.865l1.779-1.779A.764.764,0,0,0,49.094,2L47.315,3.784l-.171-2.726a1.127,1.127,0,0,0-1.92-.726L40.1,5.455a1.85,1.85,0,0,0-.538,1.423l.176,2.805a24.12,24.12,0,0,0-33.466,34.6A.764.764,0,0,0,7.4,43.259,22.6,22.6,0,0,1,39.553,11.546l-3.488,3.487A17.686,17.686,0,0,0,8.379,36.153h0a17.7,17.7,0,0,0,33.067-4.492.764.764,0,1,0-1.5-.31,16.168,16.168,0,0,1-30.212,4.1h0a15.958,15.958,0,0,1-1.789-7.389,16.152,16.152,0,0,1,27.037-11.95L31.528,19.57a11.292,11.292,0,1,0,1.081,1.081l3.457-3.457a16.1,16.1,0,0,1,4.218,10.775.764.764,0,0,0,.764.76h0a.764.764,0,0,0,.76-.769,17.624,17.624,0,0,0-4.666-11.847l3.488-3.488a22.6,22.6,0,0,1-30.725,33,.764.764,0,0,0-.962,1.188,24.117,24.117,0,0,0,39.284-18.75A23.921,23.921,0,0,0,43.489,13.7q-.482-.649-1-1.259c3,.188,2.835.18,2.93.18ZM33.866,28.063a9.761,9.761,0,1,1-3.421-7.41l-3.478,3.478a4.866,4.866,0,1,0,1.081,1.081l3.478-3.478A9.707,9.707,0,0,1,33.866,28.063Zm-10.29.541a.764.764,0,0,0,1.081,0l2.291-2.291a3.334,3.334,0,1,1-1.081-1.081l-2.291,2.291a.764.764,0,0,0,0,1.081ZM41.089,6.782a.32.32,0,0,1,.093-.247l4.492-4.492.2,3.181L41.279,9.819ZM42.36,10.9l4.594-4.594,3.181.2L45.644,11a.319.319,0,0,1-.247.093Z" transform="translate(0 -0.002)" fill="#a7a7a7"/>
    </g>
    <g id="Group_11398" data-name="Group 11398" transform="translate(211.402 3411)">
      <line id="Line_181" data-name="Line 181" x2="38.196" transform="translate(0.415 0.83)" fill="none" stroke="#2cf211" stroke-width="2"/>
      <line id="Line_182" data-name="Line 182" y1="38.196" transform="translate(0)" fill="none" stroke="#2cf211" stroke-width="2"/>
    </g>
    <g id="Group_11399" data-name="Group 11399" transform="translate(302.741 3504) rotate(180)">
      <line id="Line_181-2" data-name="Line 181" x2="38.196" transform="translate(0.415 0.83)" fill="none" stroke="#2cf211" stroke-width="2"/>
      <line id="Line_182-2" data-name="Line 182" y1="38.196" fill="none" stroke="#2cf211" stroke-width="2"/>
    </g>
  </g>
</svg>
