<svg xmlns="http://www.w3.org/2000/svg" width="78" height="78" viewBox="0 0 78 78">
  <g id="Revenue" transform="translate(-484 -1421)">
    <rect id="Rectangle_17374" data-name="Rectangle 17374" width="78" height="78" rx="11" transform="translate(484 1421)" fill="#1d2636"/>
    <g id="business-and-finance" transform="translate(500 1436)">
      <path id="Path_15923" data-name="Path 15923" d="M7.05,320c-3.5,0-7.05,1.076-7.05,3.133v9.4c0,2.057,3.546,3.133,7.05,3.133s7.05-1.076,7.05-3.133v-9.4C14.1,321.076,10.554,320,7.05,320Zm0,1.567c3.562,0,5.483,1.112,5.483,1.567S10.612,324.7,7.05,324.7s-5.483-1.112-5.483-1.567S3.488,321.567,7.05,321.567Zm0,12.533c-3.562,0-5.483-1.112-5.483-1.567v-1.1a12.423,12.423,0,0,0,5.483,1.1,12.423,12.423,0,0,0,5.483-1.1v1.1C12.533,332.988,10.612,334.1,7.05,334.1Zm0-3.133c-3.562,0-5.483-1.112-5.483-1.567v-1.1a12.423,12.423,0,0,0,5.483,1.1,12.424,12.424,0,0,0,5.483-1.1v1.1C12.533,329.854,10.612,330.967,7.05,330.967Zm0-3.133c-3.562,0-5.483-1.112-5.483-1.567v-1.1a12.424,12.424,0,0,0,5.483,1.1,12.424,12.424,0,0,0,5.483-1.1v1.1C12.533,326.721,10.612,327.833,7.05,327.833Zm0,0" transform="translate(0 -288.667)" fill="#a7a7a7"/>
      <path id="Path_15924" data-name="Path 15924" d="M175.05,256c-3.5,0-7.05,1.076-7.05,3.133V274.8c0,2.057,3.546,3.133,7.05,3.133s7.05-1.076,7.05-3.133V259.133C182.1,257.076,178.554,256,175.05,256Zm0,1.567c3.562,0,5.483,1.112,5.483,1.567s-1.922,1.567-5.483,1.567-5.483-1.112-5.483-1.567S171.488,257.567,175.05,257.567Zm0,18.8c-3.562,0-5.483-1.112-5.483-1.567v-1.1a14.258,14.258,0,0,0,10.967,0v1.1C180.533,275.254,178.612,276.367,175.05,276.367Zm0-3.133c-3.562,0-5.483-1.112-5.483-1.567v-1.1a14.258,14.258,0,0,0,10.967,0v1.1C180.533,272.121,178.612,273.233,175.05,273.233Zm0-3.133c-3.562,0-5.483-1.112-5.483-1.567v-1.1a14.258,14.258,0,0,0,10.967,0v1.1C180.533,268.988,178.612,270.1,175.05,270.1Zm0-3.133c-3.562,0-5.483-1.112-5.483-1.567v-1.1a14.258,14.258,0,0,0,10.967,0v1.1C180.533,265.854,178.612,266.967,175.05,266.967Zm0-3.133c-3.562,0-5.483-1.112-5.483-1.567v-1.1a14.258,14.258,0,0,0,10.967,0v1.1C180.533,262.721,178.612,263.833,175.05,263.833Zm0,0" transform="translate(-151.55 -230.933)" fill="#a7a7a7"/>
      <path id="Path_15925" data-name="Path 15925" d="M343.05,160c-3.5,0-7.05,1.076-7.05,3.133V188.2c0,2.057,3.546,3.133,7.05,3.133s7.05-1.076,7.05-3.133V163.133C350.1,161.076,346.554,160,343.05,160Zm0,1.567c3.562,0,5.483,1.112,5.483,1.567s-1.922,1.567-5.483,1.567-5.483-1.112-5.483-1.567S339.488,161.567,343.05,161.567Zm0,28.2c-3.562,0-5.483-1.112-5.483-1.567v-1.1a14.258,14.258,0,0,0,10.967,0v1.1C348.533,188.654,346.612,189.767,343.05,189.767Zm0-3.133c-3.562,0-5.483-1.112-5.483-1.567v-1.1a14.258,14.258,0,0,0,10.967,0v1.1C348.533,185.521,346.612,186.633,343.05,186.633Zm0-3.133c-3.562,0-5.483-1.112-5.483-1.567v-1.1a14.258,14.258,0,0,0,10.967,0v1.1C348.533,182.388,346.612,183.5,343.05,183.5Zm0-3.133c-3.562,0-5.483-1.112-5.483-1.567v-1.1a14.258,14.258,0,0,0,10.967,0v1.1C348.533,179.254,346.612,180.367,343.05,180.367Zm0-3.133c-3.562,0-5.483-1.112-5.483-1.567v-1.1a14.258,14.258,0,0,0,10.967,0v1.1C348.533,176.121,346.612,177.233,343.05,177.233Zm0-3.133c-3.562,0-5.483-1.112-5.483-1.567v-1.1a14.258,14.258,0,0,0,10.967,0v1.1C348.533,172.988,346.612,174.1,343.05,174.1Zm0-3.133c-3.562,0-5.483-1.112-5.483-1.567v-1.1a14.258,14.258,0,0,0,10.967,0v1.1C348.533,169.854,346.612,170.967,343.05,170.967Zm0-3.133c-3.562,0-5.483-1.112-5.483-1.567v-1.1a14.258,14.258,0,0,0,10.967,0v1.1C348.533,166.721,346.612,167.833,343.05,167.833Zm0,0" transform="translate(-303.1 -144.333)" fill="#a7a7a7"/>
      <path id="Path_15926" data-name="Path 15926" d="M40.843,0V1.567h5.942L31.9,16.45H15.482L2.726,27.61l1.033,1.18L16.071,18.017H32.55L47.893,2.674V8.617H49.46V0Zm0,0" transform="translate(-2.46)" fill="#a7a7a7"/>
    </g>
  </g>
</svg>
