<svg xmlns="http://www.w3.org/2000/svg" width="78" height="78" viewBox="0 0 78 78">
  <g id="Team" transform="translate(-739 -1421)">
    <rect id="Rectangle_17375" data-name="Rectangle 17375" width="78" height="78" rx="11" transform="translate(739 1421)" fill="#1d2636"/>
    <path id="networking" d="M40.152,20.076A10.038,10.038,0,1,0,31.066,5.8l-2.688-.992a4.061,4.061,0,0,0,.064-.626,4.219,4.219,0,1,0-.639,2.2l2.684.99a9.855,9.855,0,0,0,.137,5.8l-9.2,3.9A9.99,9.99,0,0,0,9.009,12.367L6.7,7.5a4.161,4.161,0,1,0-2.513.861,4.113,4.113,0,0,0,1.006-.136L7.5,13.086a10.021,10.021,0,0,0-.536,17l-1.53,2.75a4.14,4.14,0,0,0-1.251-.212A4.232,4.232,0,1,0,6.9,33.649l1.533-2.756A9.954,9.954,0,0,0,18.648,29.7l3.293,3.622a9.99,9.99,0,0,0-2.7,6.828,10.1,10.1,0,0,0,.125,1.5l-3.874.919a4.158,4.158,0,1,0,.4,1.762c0-.046-.013-.089-.013-.136l3.866-.917a10.034,10.034,0,1,0,18.372-7.877l4.914-3.195a4.265,4.265,0,1,0-.908-1.405l-4.925,3.2a10.094,10.094,0,0,0-3.739-2.969L37.543,19.72a10,10,0,0,0,2.609.356ZM24.259,6.692a2.51,2.51,0,1,1,2.51-2.51A2.513,2.513,0,0,1,24.259,6.692ZM1.673,4.183a2.51,2.51,0,1,1,2.51,2.51A2.513,2.513,0,0,1,1.673,4.183Zm2.51,35.133a2.51,2.51,0,1,1,2.51-2.51A2.513,2.513,0,0,1,4.183,39.316Zm7.529,7.529a2.51,2.51,0,1,1,2.51-2.51A2.513,2.513,0,0,1,11.711,46.844Zm34.3-20.076a2.51,2.51,0,1,1-2.51,2.51A2.513,2.513,0,0,1,46.008,26.768ZM35.226,16.784a4.2,4.2,0,0,1,4.09-3.4h1.673a4.2,4.2,0,0,1,4.09,3.4,8.3,8.3,0,0,1-9.853,0Zm4.926-5.073a2.51,2.51,0,1,1,2.51-2.51A2.513,2.513,0,0,1,40.152,11.711Zm0-10.038a8.352,8.352,0,0,1,6.314,13.835,5.925,5.925,0,0,0-3.331-3.384,4.183,4.183,0,1,0-5.966,0,5.925,5.925,0,0,0-3.331,3.384A8.352,8.352,0,0,1,40.152,1.673ZM4.183,21.749A8.365,8.365,0,1,1,18.85,27.233a5.926,5.926,0,0,0-3.335-3.4,4.183,4.183,0,1,0-5.967,0,5.924,5.924,0,0,0-3.327,3.37A8.321,8.321,0,0,1,4.183,21.749Zm5.839-.837a2.51,2.51,0,1,1,2.51,2.51A2.513,2.513,0,0,1,10.021,20.913ZM7.608,28.484A4.193,4.193,0,0,1,11.694,25.1h1.673a4.193,4.193,0,0,1,4.091,3.411,8.3,8.3,0,0,1-9.851-.022Zm16.73,18.4A4.193,4.193,0,0,1,28.425,43.5H30.1a4.193,4.193,0,0,1,4.091,3.411,8.3,8.3,0,0,1-9.851-.022Zm4.923-5.062a2.51,2.51,0,1,1,2.51-2.51A2.513,2.513,0,0,1,29.261,41.825Zm8.382-1.673a8.323,8.323,0,0,1-2.063,5.483,5.926,5.926,0,0,0-3.335-3.4,4.183,4.183,0,1,0-5.967,0,5.924,5.924,0,0,0-3.327,3.37,8.361,8.361,0,1,1,14.692-5.456ZM31.887,30.47A9.9,9.9,0,0,0,23.178,32.2l-3.293-3.622a9.965,9.965,0,0,0,2.192-9.964l9.2-3.9a10.093,10.093,0,0,0,4.693,4.438Zm0,0" transform="translate(753 1434)" fill="#a7a7a7"/>
  </g>
</svg>
