<svg xmlns="http://www.w3.org/2000/svg" width="93.34" height="93.339" viewBox="0 0 93.34 93.339">
  <g id="Vision" transform="translate(-679.259 -3410.831)">
    <rect id="Rectangle_17388" data-name="Rectangle 17388" width="92" height="92" rx="2" transform="translate(680 3411)" fill="#0e1526"/>
    <g id="Group_11400" data-name="Group 11400" transform="translate(680.259 3411)">
      <line id="Line_181" data-name="Line 181" x2="38.196" transform="translate(0.415 0.83)" fill="none" stroke="#2cf211" stroke-width="2"/>
      <line id="Line_182" data-name="Line 182" y1="38.196" transform="translate(0)" fill="none" stroke="#2cf211" stroke-width="2"/>
    </g>
    <g id="Group_11401" data-name="Group 11401" transform="translate(771.599 3504) rotate(180)">
      <line id="Line_181-2" data-name="Line 181" x2="38.196" transform="translate(0.415 0.83)" fill="none" stroke="#2cf211" stroke-width="2"/>
      <line id="Line_182-2" data-name="Line 182" y1="38.196" fill="none" stroke="#2cf211" stroke-width="2"/>
    </g>
    <g id="_x37_0_x2C__Eye_x2C__See_x2C__View_x2C__Vision" transform="translate(696.866 3442.139)">
      <g id="Group_11402" data-name="Group 11402" transform="translate(0 0)">
        <path id="Path_15933" data-name="Path 15933" d="M63.017,140.136a50.571,50.571,0,0,0-8.26-7.056C48.834,128.989,41.8,126,34.655,126s-14.181,2.99-20.1,7.08a50.559,50.559,0,0,0-8.26,7.056,1.146,1.146,0,0,0,0,1.529,50.566,50.566,0,0,0,8.26,7.056c4.6,3.175,11.712,6.946,19.687,7.074.292.008.54.008.832,0,7.975-.128,15.091-3.9,19.687-7.074a50.565,50.565,0,0,0,8.26-7.056A1.146,1.146,0,0,0,63.017,140.136Zm-15.754.765a12.608,12.608,0,1,1-12.608-12.608A12.623,12.623,0,0,1,47.263,140.9Zm-38.53,0a51.627,51.627,0,0,1,7.122-5.934,42.728,42.728,0,0,1,8.108-4.432,14.871,14.871,0,0,0,0,20.732,42.687,42.687,0,0,1-8.06-4.4A51.761,51.761,0,0,1,8.733,140.9Zm44.722,5.934a42.741,42.741,0,0,1-8.107,4.432,14.871,14.871,0,0,0,0-20.732,42.677,42.677,0,0,1,8.06,4.4,51.777,51.777,0,0,1,7.169,5.967A51.6,51.6,0,0,1,53.455,146.834Z" transform="translate(-6 -126)" fill="#a7a7a7"/>
        <path id="Path_15934" data-name="Path 15934" d="M206,211.731A5.731,5.731,0,1,0,211.731,206,5.737,5.737,0,0,0,206,211.731Zm9.169,0a3.439,3.439,0,1,1-3.439-3.439A3.442,3.442,0,0,1,215.169,211.731Z" transform="translate(-183.076 -196.831)" fill="#a7a7a7"/>
      </g>
    </g>
  </g>
</svg>
